<ttFont>
          <CharString index="0">
            57 -295 -6 -5 -6 -5 -4 -7 rlinecurve
            -13 6 -16 19 0 vvcurveto
            -26 hlineto
            0 -10 -20 callsubr
            34 -32 -52 4 -42 hhcurveto
            -42 -53 -4 -34 -34 hvcurveto
            -9 6 -8 19 0 vvcurveto
            -26 hlineto
            0 -16 -19 -33 callgsubr
            -5 7 -6 5 -7 5 58 295 rcurveline
            -57 82 434 -82 hlineto
            -19 -529 rmoveto
            -24 -23 -24 -10 -21 hhcurveto
            -38 -24 24 28 -17 hvcurveto
            0 9 -4 10 44 12 26 33 80 -64 44 -62 -62 -64 -44 -80 -33 12 -26 44 10 8 4 0 -45 callsubr
            -21 -24 -39 hhcurveto
            -21 -23 10 24 -24 -20 callgsubr
            -32 -28 -10 -21 hhcurveto
            -36 -13 24 28 -7 hvcurveto
            0 4 -4 10 vhcurveto
            return
          </CharString>
          <CharString index="1">
            rmoveto
            31 callgsubr
            -84 callgsubr
            -25 hlineto
            -59 callgsubr
            -33 callgsubr
            -7 9 -8 6 -8 -29 callsubr
            117 133 37 115 116 132 28 callsubr
            -230 vlineto
            -9 -5 -7 -6 -7 13 callgsubr
            -25 hlineto
            -47 callgsubr
            -12 14 -13 9 -16 4 rrcurveto
            197 vlineto
            71 -46 37 -64 -62 -48 -37 -71 vhcurveto
            110 -485 rmoveto
            -115 -133 37 114 hvcurveto
            10 vlineto
            43 -16 40 -49 vhcurveto
            -24 callsubr
            -7 callgsubr
            28 hvcurveto
            0 22 5 22 29 vhcurveto
            20 -29 26 -5 -57 callgsubr
            26 26 0 28 -74 callsubr
            return
          </CharString>
          <CharString index="2">
            -55 callsubr
            56 -40 67 67 56 40 75 16 -11 41 -54 callgsubr
            28 -7 callgsubr
            26 hvcurveto
            0 26 5 20 29 vhcurveto
            22 -29 22 -5 -57 callgsubr
            -37 callgsubr
            27 -74 callsubr
            -49 -16 -40 -43 hvcurveto
            -10 vlineto
            -114 -133 -37 -115 vhcurveto
            return
          </CharString>
          <CharString index="3">
            -102 callgsubr
            -351 340 rmoveto
            -52 vlineto
            -35 callgsubr
            -63 callsubr
            -27 hlineto
            0 -12 -18 -12 -74 callgsubr
            287 vlineto
            return
          </CharString>
          <CharString index="4">
            11 -12 hlineto
            -176 169 -64 151 120 150 34 146 vhcurveto
            -562 421 rmoveto
            117 126 37 114 117 126 28 callsubr
            -71 -137 45 vlineto
            71 -40 37 -66 -63 -39 -37 -71 vhcurveto
            -198 vlineto
            -15 -5 -13 -8 -11 -14 rrcurveto
            -12 6 -12 19 0 vvcurveto
            -26 hlineto
            0 -14 -19 -10 -74 callgsubr
            483 -130 rmoveto
            -116 -128 -38 -113 -114 -127 38 116 vhcurveto
            9 vlineto
            45 -15 40 -50 vhcurveto
            24 vlineto
            -36 callgsubr
            -46 27 hvcurveto
            0 22 4 22 0 callsubr
            24 -46 callsubr
            46 28 25 0 27 -74 callsubr
            -48 -11 -42 -16 -78 47 -28 68 67 48 28 78 16 -12 42 -47 -27 callgsubr
            25 27 0 -46 28 hvcurveto
            0 24 4 21 30 vhcurveto
            23 -30 21 -46 callsubr
            46 -55 callgsubr
            -15 -40 -45 hvcurveto
            return
          </CharString>
          <CharString index="5">
            -100 -60 87 48 28 -28 188 -140 88 461 28 hstemhm
            18 28 257 28 125 80 -22 78 hintmask 1101111010000000
            592 640 rmoveto
            -60 60 rlineto
            -340 hlineto
            -174 -403 rlineto
            -114 vlineto
            -99 callsubr
            220 hlineto
            -12 -7 -11 -8 -16 hhcurveto
            -12 -2 callsubr
            -3 hvcurveto
            -26 -19 rlineto
            -66 8 75 -88 67 hhcurveto
            26 27 10 15 24 hvcurveto
            -15 26 27 -10 27 hhcurveto
            48 43 28 66 8 hvcurveto
            hintmask 1101111100000000
            -76 79 -2 -3 -3 -4 -6 -2 rlinecurve
            15 vlineto
            36 5 25 56 -15 callgsubr
            187 vlineto
            hintmask 1101111010000000
            56 hlineto
            -225 -196 rmoveto
            -11 -34 -32 -12 -24 -5 rrcurveto
            -41 -254 86 vlineto
            162 375 rlineto
            306 -84 hlineto
            hintmask 1010111100000000
            -58 -284 hlineto
            -13 -5 -12 -8 -10 -13 rrcurveto
            -11 6 -14 19 0 vvcurveto
            -132 299 rmoveto
            -117 -265 rlineto
            -40 184 305 vlineto
            49 -541 rmoveto
            -24 -26 -26 -10 -22 hhcurveto
            -38 -18 24 28 17 callgsubr
            10 64 13 51 52 vhcurveto
            52 vlineto
            27 11 12 6 13 28 rrcurveto
            22 -30 25 -23 callsubr
            -50 -15 -40 -45 hvcurveto
            hintmask 1101111010000000
            -52 6 -51 63 11 26 callsubr
            -28 10 24 -26 hvcurveto
            -84 264 rmoveto
            -56 hlineto
            56 128 rlineto
            endchar
          </CharString>
          <CharString index="6">
            -79 callsubr
            -278 -63 callgsubr
            hlineto
            42 -187 rlineto
            -23 -72 hlineto
            -99 callsubr
            0 15 0 11 -5 vhcurveto
            hintmask 101101100110101010000000
            0 7 -22 -23 vvcurveto
            hintmask 011101101010101010000000
            -21 -3 -32 -34 -6 vhcurveto
            -71 vlineto
            -99 callsubr
            57 27 0 30 24 hvcurveto
            hintmask 101101110010101010000000
            11 -7 20 -35 0 vvcurveto
            117 hlineto
            hintmask 011101110010101010000000
            54 97 20 -37 rlineto
            hintmask 101101110010101010000000
            -34 callgsubr
            hlineto
            0 17 35 11 7 vhcurveto
            hintmask 011101110010101010000000
            -28 22 25 -2 66 hhcurveto
            71 vlineto
            -38 6 -1 32 21 vvcurveto
            hintmask 101101110010010110000000
            49 28 60 54 1 vhcurveto
            72 vlineto
            -19 22 50 225 rlineto
            65 -78 callgsubr
            -278 -13 callgsubr
            41 -49 -41 -198 rlineto
            -34 -46 hlineto
            -18 22 -43 188 -97 callgsubr
            -70 hlineto
            -49 -224 rlineto
            -29 -46 hlineto
            -31 38 -40 195 rlineto
            185 -257 rmoveto
            0 27 18 20 26 vhcurveto
            37 -20 hlineto
            hintmask 011101110010101010000000
            -10 -6 -9 -20 -21 vvcurveto
            -33 49 -67 14 -9 vhcurveto
            15 9 49 67 32 vvcurveto
            22 -12 20 -9 6 vhcurveto
            20 38 vlineto
            22 -26 24 -18 0 vvcurveto
            38 24 29 9 29 hhcurveto
            -25 vlineto
            -54 -7 -33 -74 -52 vvcurveto
            -28 3 -41 38 -7 vhcurveto
            -30 vlineto
            -28 -36 0 44 -28 hvcurveto
            hintmask 101101110010101010000000
            0 -21 -27 -21 -29 vhcurveto
            -81 hlineto
            -61 115 rlineto
            -28 hlineto
            -67 -115 rlineto
            -80 hlineto
            -21 29 -24 27 0 vvcurveto
            hintmask 011011110001101010000000
            -44 -28 -34 0 -27 hhcurveto
            30 vlineto
            37 7 3 41 28 vvcurveto
            52 -32 74 -53 7 vhcurveto
            25 vlineto
            27 30 -9 -38 22 hvcurveto
            0 24 18 21 26 vhcurveto
            40 -20 hlineto
            -9 -6 -11 -20 -22 vvcurveto
            -32 50 -67 13 -9 vhcurveto
            15 9 50 67 33 vvcurveto
            21 -11 20 -9 6 vhcurveto
            20 39 vlineto
            21 -26 27 -18 0 vvcurveto
            -434 345 rmoveto
            85 vlineto
            hintmask 101011110010011010000000
            222 -85 -56 hlineto
            55 -275 rlineto
            -15 hlineto
            0 -19 -26 -12 callsubr
            -16 20 -17 7 -22 3 -62 277 rcurveline
            637 hmoveto
            -56 85 222 -85 -60 hlineto
            -63 -277 -22 -3 -16 -8 -15 -19 rlinecurve
            -12 6 -20 26 0 vvcurveto
            -14 hlineto
            -207 -36 rmoveto
            -10 6 -24 30 0 vvcurveto
            -24 hlineto
            43 197 rlineto
            28 hlineto
            45 -197 rlineto
            -22 hlineto
            0 -25 -30 -45 callgsubr
            endchar
          </CharString>
          <CharString index="7">
            -62 -72 86 81 29 55 74 33 88 42 88 25 87 56 28 -16 28 hstemhm
            47 23 56 245 -163 149 -28 28 151 79 -56 79 -79 140 hintmask 1111110111001000
            587 472 rmoveto
            148 -130 92 -125 vhcurveto
            hintmask 1111111010100100
            -66 -46 -23 -17 -25 hvcurveto
            -24 28 rlineto
            -124 -224 hlineto
            -99 callsubr
            111 -68 hlineto
            -99 callsubr
            24 -49 hlineto
            -99 callsubr
            9 hlineto
            -40 -7 -34 -15 -38 hhcurveto
            -35 -20 10 -8 callsubr
            -3 15 13 vvcurveto
            31 vlineto
            -97 callgsubr
            -116 -44 callsubr
            -49 53 53 -17 64 hhcurveto
            -5 callsubr
            hintmask 1111111011000010
            33 5 25 -89 callgsubr
            -16 -14 0 -1 -12 hvcurveto
            -23 32 -27 24 0 vvcurveto
            hintmask 1111111010011000
            35 29 23 38 38 vvcurveto
            -69 -183 rmoveto
            -9 -10 rlineto
            -10 6 -14 -76 callsubr
            -17 hlineto
            -17 -18 -16 18 rlineto
            -16 hlineto
            -47 callgsubr
            -4 5 -4 4 -4 3 -5 4 -6 3 -6 3 rrcurveto
            55 -21 -45 18 -61 hhcurveto
            -4 45 hlineto
            37 85 19 88 28 -19 62 -76 -76 -30 -62 -50 -14 hvcurveto
            -72 168 76 -71 5 hlineto
            hintmask 1111110111001000
            34 27 59 49 95 hhcurveto
            97 79 -56 -93 -55 -53 -45 -43 -21 hvcurveto
            -15 vlineto
            hintmask 1111111011000100
            57 -7 53 -43 9 -50 -5 -3 -4 -3 -4 -4 rrcurveto
            -87 -18 rmoveto
            20 -21 21 21 rlineto
            -27 callsubr
            -15 -40 -43 hvcurveto
            -13 vlineto
            -108 -4 -105 -44 -97 hhcurveto
            -77 -39 28 47 -58 hvcurveto
            -15 -20 -55 -35 -24 -3 rrcurveto
            8 6 2 12 33 vvcurveto
            143 59 vlineto
            -93 7 60 -37 69 hhcurveto
            77 32 52 44 hvcurveto
            7 vlineto
            20 -14 44 -50 vhcurveto
            24 vlineto
            21 21 0 -22 20 hvcurveto
            6 -6 5 -8 6 -9 rrcurveto
            0 23 6 22 24 vhcurveto
            -119 258 rmoveto
            hintmask 1111111010011000
            17 -3 rlineto
            -70 -72 -12 -37 -2 vhcurveto
            33 10 25 54 57 hhcurveto
            endchar
          </CharString>
          <CharString index="8">
            50 -60 rlineto
            return
          </CharString>
          <CharString index="9">
            179 rmoveto
            -31 vlineto
            -128 92 -80 84 93 38 30 65 7 vhcurveto
            28 callgsubr
            -4 -5 -7 -3 0 vvcurveto
            14 vlineto
            42 -11 44 -22 34 vhcurveto
            hintmask 1111111101111010
            55 43 21 69 74 vvcurveto
            149 -103 126 -190 vhcurveto
            -359 -63 callgsubr
            -50 callgsubr
            hintmask 1111111010111100
            3 -17 -19 0 -22 hhcurveto
            -94 callsubr
            11 hlineto
            -33 -1 -42 -40 -11 -6 4 5 -3 -45 callsubr
            rlineto
            -65 9 65 -90 77 hhcurveto
            26 27 10 17 25 hvcurveto
            -17 25 27 -10 26 hhcurveto
            48 43 12 callsubr
            -5 -6 -3 0 vvcurveto
            15 vlineto
            36 4 -14 callgsubr
            91 124 rmoveto
            -59 callgsubr
            -33 callgsubr
            33 -26 -34 0 -56 hhcurveto
            -54 -33 0 -33 -25 hvcurveto
            -12 -26 callsubr
            -9 7 -9 5 rrcurveto
            286 vlineto
            hintmask 1111111101111010
            -80 85 324 hlineto
            201 19 -126 -61 -65 -14 -80 -82 -38 hvcurveto
            1 -4 -5 0 -5 hhcurveto
            -166 -15 rmoveto
            52 hlineto
            -6 callsubr
            23 5 21 30 vhcurveto
            hintmask 1111111101111100
            52 -17 7 -44 -32 vvcurveto
            -55 6 -52 61 9 6 4 0 0 -5 -50 -92 -43 -61 14 109 vhcurveto
            26 vlineto
            45 -16 39 -49 vhcurveto
            -52 hlineto
            -50 -14 -39 -45 -51 5 -52 62 12 5 -40 callsubr
            -27 -12 -18 -23 -37 hhcurveto
            -21 -28 8 23 -26 hvcurveto
            -6 hlineto
            -23 -26 -27 -8 -22 hhcurveto
            -37 24 callsubr
            5 -4 10 63 6 52 51 45 -16 39 -48 vhcurveto
            25 vlineto
            25 -24 callgsubr
            26 hvcurveto
            0 24 5 22 0 callsubr
            25 -5 -31 callsubr
            26 26 0 27 hhcurveto
            -60 299 rmoveto
            -246 64 vlineto
            104 38 63 72 106 -93 5 -50 hvcurveto
            47 -87 rmoveto
            48 19 -9 -8 callsubr
            1 -8 -7 vvcurveto
            -81 -50 -21 -50 -4 vhcurveto
            130 vlineto
            endchar
          </CharString>
          <CharString index="10">
            -23 3 -45 31 -9 10 rrcurveto
            -16 -21 -45 -32 -72 hhcurveto
            -48 -36 20 21 -24 hvcurveto
            -8 7 rlineto
            -29 -29 -31 -19 -47 hhcurveto
            -38 -46 24 28 -6 25 callsubr
            10 55 38 64 53 34 -17 31 -39 6 vhcurveto
            5 24 rlineto
            31 callsubr
            18 hvcurveto
            0 26 4 27 30 vhcurveto
            return
          </CharString>
          <CharString index="11">
            9 7 -40 callsubr
            -27 -11 -18 -23 -38 hhcurveto
            return
          </CharString>
          <CharString index="12">
            -95 callgsubr
            121 157 35 145 vhcurveto
            13 vlineto
            return
          </CharString>
          <CharString index="13">
            -73 vlineto
            -99 callsubr
            return
          </CharString>
          <CharString index="14">
            59 -142 hlineto
            -33 2 -12 6 -6 vhcurveto
            -97 callsubr
            7 -13 17 -10 26 -11 rrcurveto
            endchar
          </CharString>
          <CharString index="15">
            -15 97 -116 5 5 8 5 9 5 rlinecurve
            -29 -7 -22 -13 -28 hhcurveto
            -42 -21 13 -8 callsubr
            -4 15 14 vvcurveto
            -147 377 rmoveto
            92 96 53 99 93 48 -45 -36 29 vhcurveto
            6 70 76 -168 -71 hlineto
            46 -15 -31 69 -79 hhcurveto
            -75 -12 -63 -25 -112 204 -4 63 -113 hvcurveto
            -11 -5 -10 -7 -9 -11 rrcurveto
            -10 6 -13 17 0 vvcurveto
            -25 hlineto
            0 -9 -11 -9 -9 vhcurveto
            26 -31 -29 4 -15 hhcurveto
            -14 -11 -2 -3 -11 hvcurveto
            -78 58 -146 33 140 vvcurveto
            132 -473 rmoveto
            -26 16 -14 9 0 vvcurveto
            -11 -21 -58 -33 -23 -4 rrcurveto
            8 7 2 11 32 vvcurveto
            141 59 vlineto
            -91 9 64 -42 72 hhcurveto
            74 13 62 27 19 -1 6 -2 8 hvcurveto
            27 -6 -24 17 -24 hhcurveto
            -13 -14 -5 -10 -13 hvcurveto
            -15 19 rlineto
            14 15 25 14 21 hhcurveto
            17 31 0 -42 28 hvcurveto
            0 19 4 21 25 vhcurveto
            20 -30 24 -4 -31 callsubr
            28 24 0 29 hhcurveto
            -25 vlineto
            -25 -8 -22 -20 hvcurveto
            hintmask 1101110111010000
            -22 2 -8 -14 vvcurveto
            -110 -91 -51 -99 -59 -45 28 21 -34 vhcurveto
            endchar
          </CharString>
          <CharString index="16">
            vhcurveto
            73 vlineto
            -97 callgsubr
            return
          </CharString>
          <CharString index="17">
            -34 callgsubr
            244 hlineto
            -97 callgsubr
            -537 -63 callgsubr
            -50 callgsubr
            return
          </CharString>
          <CharString index="18">
            -77 callgsubr
            60 return
          </CharString>
          <CharString index="19">
            -79 -72 88 74 29 -29 162 36 24 104 88 27 88 -88 169 -17 29 hstemhm
            35 30 164 81 202 73 -60 79 -79 106 hintmask 1011110111100000
            212 192 rmoveto
            -97 callgsubr
            -116 -180 hlineto
            -18 -2 -17 -16 -9 vhcurveto
            18 -28 -99 callsubr
            38 53 29 26 26 hvcurveto
            0 3 -2 21 -12 vhcurveto
            -12 23 49 -41 78 hhcurveto
            hintmask 1101110111010000
            106 111 57 134 hvcurveto
            19 -2 8 15 vvcurveto
            hintmask 1011101011001000
            11 4 7 25 -91 callsubr
            -21 -18 0 -2 -15 hvcurveto
            -27 74 -169 62 -20 16 rrcurveto
            0 -1 4 5 vvcurveto
            38 24 22 32 21 17 -9 0 0 11 -27 3 -19 vhcurveto
            -99 callsubr
            hintmask 1101101011100000
            117 224 hlineto
            -97 callgsubr
            -124 -46 hlineto
            hintmask 1101110111100000
            0 -45 58 -107 -109 -115 -59 -116 return
          </CharString>
          <CharString index="20">
            rmoveto
            15 20 28 13 26 52 15 -44 65 hhcurveto
            25 36 16 14 24 hvcurveto
            -89 vlineto
            -16 -28 -24 -13 -33 hhcurveto
            return
          </CharString>
          <CharString index="21">
            -23 -26 -62 callgsubr
            return
          </CharString>
          <CharString index="22">
            -10 rrcurveto
            -84 callgsubr
            return
          </CharString>
          <CharString index="23">
            12 hlineto
            -34 -2 -40 -41 -10 -5 3 5 -4 vhcurveto
            -27 -18 rlineto
            -65 9 62 -90 85 hhcurveto
            41 20 17 22 21 hvcurveto
            -26 35 31 -13 104 hhcurveto
            return
          </CharString>
          <CharString index="24">
            91 -132 rlineto
            -42 hlineto
            -81 70 rlineto
            -18 hlineto
            -81 -70 rlineto
            -42 hlineto
            return
          </CharString>
          <CharString index="25">
            -13 callgsubr
            -99 callsubr
            return
          </CharString>
          <CharString index="26">
            -60 87 48 28 72 83 31 27 24 250 82 28 return
          </CharString>
          <CharString index="27">
            hhcurveto
            -94 callsubr
            7 hlineto
            -36 return
          </CharString>
          <CharString index="28">
            499 rmoveto
            141 vlineto
            -97 callgsubr
            return
          </CharString>
          <CharString index="29">
            -72 hlineto
            -99 callsubr
            14 11 -5 0 hvcurveto
            hintmask 1011110011011010
            4 -13 3 -10 -22 vvcurveto
            hintmask 1011110101011010
            -21 -1 -32 -37 -6 vhcurveto
            -61 vlineto
            50 -70 rlineto
            65 24 2 28 21 hvcurveto
            hintmask 0111111001011010
            11 -7 20 -35 0 vvcurveto
            95 hlineto
            0 20 35 11 7 vhcurveto
            hintmask 1011111001011010
            -28 23 25 -2 63 hhcurveto
            71 vlineto
            -36 6 -2 32 21 vvcurveto
            hintmask 1011111000100110
            49 27 60 56 1 vhcurveto
            -76 84 rmoveto
            -53 -7 -32 -74 -52 vvcurveto
            -28 3 -41 37 -7 vhcurveto
            -30 vlineto
            -26 -36 0 44 -28 hvcurveto
            0 -24 -27 -22 -29 vhcurveto
            -56 hlineto
            -21 29 -24 27 0 vvcurveto
            -44 -26 -33 0 -29 hhcurveto
            30 vlineto
            37 7 4 41 28 vvcurveto
            52 -32 74 -54 7 vhcurveto
            25 vlineto
            return
          </CharString>
          <CharString index="30">
            vlineto
            35 25 10 31 return
          </CharString>
          <CharString index="31">
            18 0 vvcurveto
            return
          </CharString>
          <CharString index="32">
            -72 90 72 29 60 -8 callgsubr
            return
          </CharString>
          <CharString index="33">
            hhcurveto
            -24 vlineto
            return
          </CharString>
          <CharString index="34">
            -31 -25 10 35 hvcurveto
            return
          </CharString>
          <CharString index="35">
            -62 -286 hlineto
            -35 callgsubr
            return
          </CharString>
          <CharString index="36">
            -58 callsubr
            -60 85 return
          </CharString>
          <CharString index="37">
            75 116 hlineto
            -97 callgsubr
            -71 58 107 -43 hlineto
            return
          </CharString>
          <CharString index="38">
            -11 -54 callsubr
            return
          </CharString>
          <CharString index="39">
            rmoveto
            184 hlineto
            -56 250 rlineto
            -74 hlineto
            return
          </CharString>
          <CharString index="40">
            -80 85 481 -188 -60 103 -215 hlineto
            return
          </CharString>
          <CharString index="41">
            -87 callsubr
            hintmask 00111110
            -67 -25 44 -40 hhcurveto
            -25 -29 -15 -13 -20 hvcurveto
            hintmask 10011110
            256 -104 rmoveto
            hintmask 01011110
            47 63 44 0 hvcurveto
            -83 callgsubr
            hintmask 10011110
            50 -70 rlineto
            hintmask 01011110
            0 57 44 42 vhcurveto
            hintmask 10011110
            40 25 -44 67 hhcurveto
            endchar
          </CharString>
          <CharString index="42">
            -42 109 rlineto
            68 hlineto
            10 -109 rlineto
            endchar
          </CharString>
          <CharString index="43" raw="1">
            fbb20681 600a0b  
          </CharString>
          <CharString index="44">
            -10 6 -13 -76 callsubr
            return
          </CharString>
          <CharString index="45">
            rmoveto
            105 699 -97 callgsubr
            -163 hlineto
            -105 -699 -99 callsubr
            -12 87 rmoveto
            96 645 rlineto
            97 hlineto
            -97 -645 rlineto
            return
          </CharString>
          <CharString index="46">
            -86 callsubr
            49 464 rmoveto
            -40 -94 -29 68 rlineto
            43 57 hlineto
            return
          </CharString>
          <CharString index="47">
            -57 callsubr
            -304 -82 callsubr
            return
          </CharString>
          <CharString index="48">
            -22 callgsubr
            313 30 91 78 -58 79 return
          </CharString>
          <CharString index="49">
            7 -9 5 rrcurveto
            287 return
          </CharString>
          <CharString index="50">
            60 -78 callgsubr
            return
          </CharString>
          <CharString index="51">
            -35 -146 vhcurveto
            -222 vlineto
            return
          </CharString>
          <CharString index="52">
            -50 -11 -41 -16 -75 return
          </CharString>
          <CharString index="53">
            -6 vhcurveto
            -8 10 return
          </CharString>
          <CharString index="54">
            -9 callgsubr
            87 rmoveto
            return
          </CharString>
          <CharString index="55">
            83 -63 34 -83 10 -26 -49 -26 rcurveline
            -10 36 -69 106 -81 46 rrcurveto
            20 vlineto
            81 46 69 106 10 36 49 -26 rcurveline
            -10 -26 -34 -83 -83 -63 rrcurveto
            return
          </CharString>
          <CharString index="56">
            hhcurveto
            -43 callgsubr
            return
          </CharString>
          <CharString index="57">
            -107 callgsubr
            -65 callgsubr
            73 vlineto
            -11 13 rlineto
            return
          </CharString>
          <CharString index="58">
            194 101 hlineto
            176 -159 65 -162 -120 -148 -56 callsubr
            return
          </CharString>
          <CharString index="59">
            28 -9 89 7 callgsubr
            137 -14 78 -10 27 57 78 return
          </CharString>
          <CharString index="60">
            7 -10 5 rrcurveto
            return
          </CharString>
          <CharString index="61">
            -4 0 vvcurveto
            return
          </CharString>
          <CharString index="62">
            vhcurveto
            -28 -18 return
          </CharString>
          <CharString index="63">
            -182 hlineto
            -18 -2 -17 -15 -10 vhcurveto
            17 -26 -99 callsubr
            39 51 27 27 27 hvcurveto
            return
          </CharString>
          <CharString index="64">
            -5 -9 -7 return
          </CharString>
          <CharString index="65">
            5 21 29 vhcurveto
            22 -29 return
          </CharString>
          <CharString index="66">
            rmoveto
            -92 93 -113 102 81 65 63 82 105 -101 101 -95 -82 -63 -65 -81 vhcurveto
            return
          </CharString>
          <CharString index="67">
            4 0 hvcurveto
            return
          </CharString>
          <CharString index="68">
            28 30 30 return
          </CharString>
          <CharString index="69">
            -33 callsubr
            endchar
          </CharString>
          <CharString index="70">
            rmoveto
            -97 callgsubr
            -124 hlineto
            -120 -186 -99 callsubr
            104 hlineto
            78 70 78 -70 rlineto
            104 hlineto
            -273 219 rmoveto
            82 hlineto
            12 callgsubr
          </CharString>
          <CharString index="71">
            -50 callgsubr
            -10 callsubr
            -84 callsubr
            return
          </CharString>
          <CharString index="72">
            -121 -156 -35 -146 return
          </CharString>
          <CharString index="73">
            21 -30 24 return
          </CharString>
          <CharString index="74">
            rmoveto
            -31 -25 10 35 hvcurveto
            44 -68 callgsubr
            -44 -85 callgsubr
            return
          </CharString>
          <CharString index="75">
            -10 -35 vhcurveto
            return
          </CharString>
          <CharString index="76">
            0 vvcurveto
            47 return
          </CharString>
          <CharString index="77">
            44 -44 88 44 28 16 28 hstemhm
            return
          </CharString>
          <CharString index="78">
            5 rrcurveto
            230 vlineto
            return
          </CharString>
          <CharString index="79">
            187 hlineto
            return
          </CharString>
          <CharString index="80">
            -71 callgsubr
            -50 return
          </CharString>
          <CharString index="81">
            6 -13 -76 callsubr
            -26 hlineto
            -47 callgsubr
            -8 10 return
          </CharString>
          <CharString index="82">
            -174 123 -60 return
          </CharString>
          <CharString index="83">
            24 vlineto
            27 return
          </CharString>
          <CharString index="84">
            -46 callsubr
            46 -6 callgsubr
            return
          </CharString>
          <CharString index="85">
            hvcurveto
            -50 60 return
          </CharString>
          <CharString index="86">
            48 hmoveto
            54 44 41 52 54 41 -41 -54 -52 -41 -41 -54 -52 -44 41 52 vhcurveto
            return
          </CharString>
          <CharString index="87">
            -19 -12 callsubr
            return
          </CharString>
          <CharString index="88">
            36 37 2 23 1 return
          </CharString>
          <CharString index="89">
            225 rmoveto
            61 -20 43 -80 23 -49 50 -60 rcurveline
            97 51 -42 112 -49 44 -26 33 rlinecurve
            59 41 48 108 10 32 -50 60 rcurveline
            -97 51 return
          </CharString>
          <CharString index="90">
            -81 callsubr
            4 86 -86 115 68 56 -25 25 -22 callgsubr
            120 26 -26 55 68 return
          </CharString>
          <CharString index="91">
            rmoveto
            -54 69 -95 70 50 40 39 50 60 -76 90 -64 -50 -39 -40 -50 vhcurveto
            return
          </CharString>
          <CharString index="92">
            -64 callgsubr
            hstemhm
            return
          </CharString>
          <CharString index="93">
            68 -78 callgsubr
            return
          </CharString>
          <CharString index="94">
            25 vlineto
            -6 callsubr
            22 5 23 0 callsubr
            24 -5 -31 callsubr
            26 26 0 29 hhcurveto
            -25 vlineto
            -49 -17 -39 -45 return
          </CharString>
          <CharString index="95">
            -10 -6 vhcurveto
            return
          </CharString>
          <CharString index="96">
            28 69 111 -65 65 -28 28 42 78 -61 128 132 127 -13 28 43 79 -79 161 18 78 hintmask 101101110010101010000000
            return
          </CharString>
          <CharString index="97">
            3 -18 -20 0 -24 hhcurveto
            -94 callsubr
            return
          </CharString>
          <CharString index="98">
            -60 85 -31 callgsubr
            return
          </CharString>
          <CharString index="99">
            0 hvcurveto
            0 return
          </CharString>
          <CharString index="100">
            -52 callgsubr
            endchar
          </CharString>
          <CharString index="101">
            27 -24 callgsubr
            27 hvcurveto
            0 return
          </CharString>
          <CharString index="102">
            107 123 53 130 5 hvcurveto
            10 vlineto
            return
          </CharString>
          <CharString index="103">
            4 22 30 vhcurveto
            return
          </CharString>
          <CharString index="104">
            138 -138 return
          </CharString>
          <CharString index="105">
            -7 5 5 return
          </CharString>
          <CharString index="106">
            -79 callsubr
            -304 -82 callsubr
            8 -50 callgsubr
            3 -17 -19 0 return
          </CharString>
          <CharString index="107">
            30 vhcurveto
            21 -30 return
          </CharString>
          <CharString index="108">
            hhcurveto
            -12 -72 rlineto
            return
          </CharString>
          <CharString index="109">
            110 144 hlineto
            -97 callgsubr
            -60 49 hlineto
            -97 callgsubr
            -144 -109 -109 -144 hlineto
            return
          </CharString>
          <CharString index="110">
            rmoveto
            124 vlineto
            -97 callgsubr
            -363 -124 -53 callsubr
            70 303 -70 vlineto
            return
          </CharString>
          <CharString index="111">
            -242 rmoveto
            -23 -27 -26 -8 -23 hhcurveto
            -38 24 callsubr
            7 -4 9 65 5 52 51 return
          </CharString>
          <CharString index="112">
            1 callgsubr
            hstemhm
            return
          </CharString>
          <CharString index="113">
            5 22 29 vhcurveto
            21 -29 return
          </CharString>
          <CharString index="114">
            -12 -41 -16 return
          </CharString>
          <CharString index="115">
            84 25 71 126 27 hstem
            37 27 113 76 22 27 113 76 vstem
            253 return
          </CharString>
          <CharString index="116">
            -37 callgsubr
            -46 return
          </CharString>
          <CharString index="117">
            28 60 78 -29 29 29 30 126 80 -80 140 57 78 hintmask 1111111110110100
            return
          </CharString>
          <CharString index="118">
            114 110 -40 -115 hvcurveto
            -218 -69 callgsubr
            return
          </CharString>
          <CharString index="119">
            30 65 9 hvcurveto
            -78 78 rlineto
            -4 return
          </CharString>
          <CharString index="120">
            -62 15 callgsubr
            return
          </CharString>
          <CharString index="121">
            5 0 vhcurveto
            4 vlineto
            36 35 2 23 1 vhcurveto
            73 vlineto
            -11 13 rlineto
            return
          </CharString>
          <CharString index="122">
            rmoveto
            31 15 12 27 1 vhcurveto
            -68 vlineto
            -32 -13 -12 -29 -1 vhcurveto
            return
          </CharString>
          <CharString index="123">
            29 callgsubr
            73 vlineto
            return
          </CharString>
          <CharString index="124">
            -67 callgsubr
            -64 callgsubr
            23 return
          </CharString>
          <CharString index="125">
            -81 callsubr
            23 return
          </CharString>
          <CharString index="126">
            71 -81 callsubr
            return
          </CharString>
          <CharString index="127">
            -25 callsubr
            -123 -52 vlineto
            -10 -43 callsubr
            return
          </CharString>
          <CharString index="128">
            87 134 27 hstem
            return
          </CharString>
          <CharString index="129">
            -67 callgsubr
            360 28 hstemhm
            return
          </CharString>
          <CharString index="130">
            -60 87 645 27 hstem
            return
          </CharString>
          <CharString index="131">
            -18 23 27 -11 hvcurveto
            0 return
          </CharString>
          <CharString index="132">
            2 callgsubr
            -4 return
          </CharString>
          <CharString index="133">
            5 -28 callgsubr
            -28 -11 -18 -24 -38 hhcurveto
            -22 return
          </CharString>
          <CharString index="134">
            -2 callgsubr
            vstem
            return
          </CharString>
          <CharString index="135">
            -37 -117 vhcurveto
            return
          </CharString>
          <CharString index="136">
            rmoveto
            -63 callsubr
            -27 hlineto
            0 return
          </CharString>
          <CharString index="137">
            -72 87 84 28 53 83 24 25 -25 74 return
          </CharString>
          <CharString index="138">
            27 26 0 -46 return
          </CharString>
        <CharString name=".notdef">
          -336 endchar
        </CharString>
        <CharString name=".null">
          -735 endchar
        </CharString>
        <CharString name="A">
          19 callsubr
          -59 callsubr
          hintmask 1111111010100000
          111 180 rmoveto
          -82 callgsubr
          -31 -19 rlineto
          -68 58 -86 73 26 30 10 15 27 vhcurveto
          -15 24 24 -10 25 hhcurveto
          49 50 28 66 20 -22 callsubr
          -24 19 rlineto
          41 13 38 21 39 hhcurveto
          24 19 -10 -8 callsubr
          3 -8 -15 vvcurveto
          -21 -7 -18 -26 -12 -2 callsubr
          -4 vhcurveto
          -24 -19 rlineto
          -66 20 70 -88 79 hhcurveto
          25 25 10 15 22 hvcurveto
          -15 28 29 -10 27 hhcurveto
          43 40 26 68 -22 callsubr
          -32 19 rlineto
          -5 -1 -7 -5 -11 hhcurveto
          -3 -4 14 15 26 12 22 42 hvcurveto
          -12 72 -97 callgsubr
          -10 -9 0 -1 -9 hvcurveto
          -37 190 rlineto
          hintmask 1111110111000000
          52 139 hlineto
          -97 callgsubr
          -490 4 callgsubr
          -107 callsubr
          hintmask 1111111010100000
          -105 callgsubr
          -295 279 -68 callsubr
          69 -105 -7 callsubr
        </CharString>
        <CharString name="AE">
          259 -60 87 48 28 -1 29 44 83 -35 35 7 176 -152 27 -27 64 -13 247 -191 88 -71 28 58 -53 callgsubr
          hstemhm
          5 135 -8 28 276 30 7 30 89 80 -80 137 -14 78 -10 27 57 78 hintmask 101101000001110110101100
          718 -60 rmoveto
          81 45 -66 callgsubr
          -41 -39 -20 -39 -19 -15 14 callsubr
          hintmask 110101000001110111010100
          -70 callsubr
          hintmask 110100100101101111010100
          -34 callgsubr
          244 hlineto
          -97 callgsubr
          -763 -92 callgsubr
          -99 callsubr
          -37 -2 -24 -40 -28 hhcurveto
          -10 -6 5 5 -1 hvcurveto
          hintmask 110100100101110111010100
          -31 -19 rlineto
          -68 58 -86 73 26 30 10 15 27 vhcurveto
          -15 24 24 -10 25 hhcurveto
          49 50 28 66 20 -22 callsubr
          -24 19 rlineto
          39 12 40 23 38 hhcurveto
          25 18 -10 -8 callsubr
          3 -11 -12 vvcurveto
          -21 -7 -18 -26 -12 -2 callsubr
          -4 vhcurveto
          -24 -19 rlineto
          -66 20 70 -88 79 hhcurveto
          25 25 10 15 22 hvcurveto
          -15 28 29 -10 27 hhcurveto
          149 732 rmoveto
          -188 -60 vlineto
          hintmask 110100101000110111010100
          103 -215 vlineto
          hintmask 110100010011110111010100
          20 callsubr
          -8 -10 rrcurveto
          -10 6 -10 -76 callsubr
          -24 hlineto
          0 -8 -20 callsubr
          hintmask 110010101000101111010100
          34 -32 -52 4 -42 hhcurveto
          -42 -53 -4 -34 -34 hvcurveto
          -9 6 -8 19 0 vvcurveto
          -26 hlineto
          0 -16 -19 -33 callgsubr
          -5 7 -6 5 -7 5 58 295 rcurveline
          -57 82 hlineto
          504 -645 rmoveto
          -22 -30 10 24 -31 -20 callgsubr
          -23 -24 -10 -21 hhcurveto
          -38 -24 24 28 -17 hvcurveto
          0 9 -4 10 44 12 26 33 80 -64 44 -62 -62 -64 -44 -80 -33 12 -26 44 10 8 4 0 -45 callsubr
          -21 -24 -39 hhcurveto
          -21 -23 10 24 -24 -20 callgsubr
          -32 -28 -10 -21 hhcurveto
          -36 -13 24 28 -7 hvcurveto
          0 4 -4 10 vhcurveto
          hintmask 101010101000110111001100
          52 38 64 53 34 -16 31 -39 6 hvcurveto
          4 24 rlineto
          9 callsubr
          20 hvcurveto
          0 24 4 26 30 vhcurveto
          16 -30 23 -46 callsubr
          46 35 58 2 32 hhcurveto
          32 56 -2 -46 37 hvcurveto
          0 18 3 15 25 vhcurveto
          20 -24 19 -4 18 callgsubr
          -81 callgsubr
          hvcurveto
          61 -140 hlineto
          -33 2 -11 7 -8 vhcurveto
          -24 5 -47 30 -10 10 -4 -3 rcurveline
          -15 -19 -40 -31 -67 hhcurveto
          -198 313 rmoveto
          247 -126 vlineto
          -54 -247 rlineto
          150 26 rmoveto
          -53 hlineto
          hintmask 110101000001110111010100
          29 133 rlineto
          24 hlineto
          endchar
        </CharString>
        <CharString name="Aacute">
          71 18 callsubr
          85 110 25 -59 callsubr
          hintmask 1111111110101000
          111 180 rmoveto
          -82 callgsubr
          -31 -19 rlineto
          -68 58 -86 73 26 30 10 15 27 vhcurveto
          -15 24 24 -10 25 hhcurveto
          49 50 28 66 20 -22 callsubr
          -24 19 rlineto
          41 13 38 21 39 hhcurveto
          24 19 -10 -8 callsubr
          3 -8 -15 vvcurveto
          -21 -7 -18 -26 -12 -2 callsubr
          -4 vhcurveto
          -24 -19 rlineto
          -66 20 70 -88 79 hhcurveto
          25 25 10 15 22 hvcurveto
          -15 28 29 -10 27 hhcurveto
          43 40 26 68 -22 callsubr
          -32 19 rlineto
          -5 -1 -7 -5 -11 hhcurveto
          -3 -4 14 15 26 12 22 42 hvcurveto
          -12 72 -97 callgsubr
          -10 -9 0 -1 -9 hvcurveto
          -37 190 rlineto
          hintmask 1111111101110000
          52 139 hlineto
          -97 callgsubr
          -490 4 callgsubr
          -107 callsubr
          hintmask 1111111110101000
          -105 callgsubr
          -295 279 -68 callsubr
          69 -105 -52 callgsubr
          75 357 -98 callgsubr
          endchar
        </CharString>
        <CharString name="Acircumflex">
          19 callsubr
          -28 112 132 27 -59 callsubr
          hintmask 1111110101110000
          490 883 rmoveto
          -97 callgsubr
          -124 hlineto
          -120 -186 47 -57 rlineto
          -110 -92 callgsubr
          53 -60 rlineto
          -82 callgsubr
          hintmask 1111110110101000
          -31 -19 rlineto
          -68 58 -86 73 26 30 10 15 27 vhcurveto
          -15 24 24 -10 25 hhcurveto
          49 50 28 66 20 -22 callsubr
          -24 19 rlineto
          41 13 38 21 39 hhcurveto
          24 19 -10 -8 callsubr
          3 -8 -15 vvcurveto
          -21 -7 -18 -26 -12 -2 callsubr
          -4 vhcurveto
          -24 -19 rlineto
          -66 20 70 -88 79 hhcurveto
          25 25 10 15 22 hvcurveto
          -15 28 29 -10 27 hhcurveto
          43 40 26 68 -22 callsubr
          -32 19 rlineto
          -5 -1 -7 -5 -11 hhcurveto
          -3 -4 14 15 26 12 22 42 hvcurveto
          -12 72 -97 callgsubr
          -10 -9 0 -1 -9 hvcurveto
          -37 190 rlineto
          hintmask 1111110101110000
          52 139 hlineto
          -97 callgsubr
          -15 hlineto
          -70 -110 rmoveto
          -107 callsubr
          hintmask 1111101110101000
          -105 callgsubr
          -295 279 -68 callsubr
          -4 326 rmoveto
          82 hlineto
          -83 callsubr
          182 -17 rmoveto
          hintmask 1111110110110000
          74 -67 rlineto
          -149 hlineto
          57 -215 -7 callsubr
        </CharString>
        <CharString name="Adieresis">
          19 callsubr
          25 87 104 27 -22 callgsubr
          26 -2 callgsubr
          20 27 34 30 48 67 -24 78 -58 79 hintmask 111111111011110010000000
          111 180 rmoveto
          -82 callgsubr
          -31 -19 rlineto
          -68 58 -86 73 26 30 10 15 27 vhcurveto
          -15 24 24 -10 25 hhcurveto
          49 50 28 66 20 -22 callsubr
          -24 19 rlineto
          41 13 38 21 39 hhcurveto
          24 19 -10 -8 callsubr
          3 -8 -15 vvcurveto
          -21 -7 -18 -26 -12 -2 callsubr
          -4 vhcurveto
          -24 -19 rlineto
          -66 20 70 -88 79 hhcurveto
          25 25 10 15 22 hvcurveto
          -15 28 29 -10 27 hhcurveto
          43 40 26 68 -22 callsubr
          -32 19 rlineto
          -5 -1 -7 -5 -11 hhcurveto
          -3 -4 14 15 26 12 22 42 hvcurveto
          -12 72 -97 callgsubr
          -10 -9 0 -1 -9 hvcurveto
          -37 190 rlineto
          hintmask 111111110111110100000000
          52 139 hlineto
          -97 callgsubr
          -490 4 callgsubr
          -107 callsubr
          hintmask 111111111011110010000000
          -105 callgsubr
          -295 279 -68 callsubr
          69 -105 -52 callgsubr
          9 459 rmoveto
          63 -59 55 -64 -34 -49 -15 -43 vhcurveto
          -42 -94 callgsubr
          -123 29 rmoveto
          -73 callsubr
          14 -68 callgsubr
          -14 -85 callgsubr
          hintmask 111111111011111000000000
          349 13 rmoveto
          63 -59 55 -64 -34 -49 -15 -43 vhcurveto
          -42 -94 callgsubr
          -123 29 rmoveto
          -73 callsubr
          14 -68 callgsubr
          -14 -85 callgsubr
          endchar
        </CharString>
        <CharString name="Agrave">
          71 18 callsubr
          220 -25 25 -59 callsubr
          hintmask 1111111010101000
          111 180 rmoveto
          -82 callgsubr
          -31 -19 rlineto
          -68 58 -86 73 26 30 10 15 27 vhcurveto
          -15 24 24 -10 25 hhcurveto
          49 50 28 66 20 -22 callsubr
          -24 19 rlineto
          41 13 38 21 39 hhcurveto
          24 19 -10 -8 callsubr
          3 -8 -15 vvcurveto
          -21 -7 -18 -26 -12 -2 callsubr
          -4 vhcurveto
          -24 -19 rlineto
          -66 20 70 -88 79 hhcurveto
          25 25 10 15 22 hvcurveto
          -15 28 29 -10 27 hhcurveto
          43 40 26 68 -22 callsubr
          -32 19 rlineto
          -5 -1 -7 -5 -11 hhcurveto
          -3 -4 14 15 26 12 22 42 hvcurveto
          -12 72 -97 callgsubr
          -10 -9 0 -1 -9 hvcurveto
          -37 190 rlineto
          hintmask 1111111001110000
          52 139 hlineto
          -97 callgsubr
          -490 4 callgsubr
          -107 callsubr
          hintmask 1111111010101000
          -105 callgsubr
          -295 279 -68 callsubr
          69 -105 -52 callgsubr
          117 357 rmoveto
          -10 160 -97 callgsubr
          -136 hlineto
          60 -160 -99 callsubr
          -29 86 rmoveto
          hintmask 1111110110110000
          -65 callsubr
        </CharString>
        <CharString name="Aring">
          71 -17 callsubr
          106 -75 75 -36 36 85 78 -58 79 hintmask 111111011010011001000000
          281 853 -16 callsubr
          55 -16 callgsubr
          hintmask 111111100110100101000000
          -29 hmoveto
          -12 callgsubr
          -196 -673 rmoveto
          -82 callgsubr
          -31 -19 rlineto
          -68 58 -86 73 26 30 10 15 27 vhcurveto
          -15 24 24 -10 25 hhcurveto
          49 50 28 66 20 -22 callsubr
          -24 19 rlineto
          41 13 38 21 39 hhcurveto
          24 19 -10 0 hvcurveto
          hintmask 111111101010100010100000
          0 3 -8 -15 vvcurveto
          -21 -7 -18 -26 -12 -2 callsubr
          -4 vhcurveto
          -24 -19 rlineto
          -66 20 70 -88 79 hhcurveto
          25 25 10 15 22 hvcurveto
          -15 28 29 -10 27 hhcurveto
          43 40 26 68 -22 callsubr
          -32 19 rlineto
          -5 -1 -7 -5 -11 hhcurveto
          -3 -4 14 15 26 12 22 42 hvcurveto
          -12 72 -97 callgsubr
          -10 -9 0 -1 -9 hvcurveto
          -37 190 rlineto
          hintmask 111111101001101001000000
          52 139 hlineto
          -97 callgsubr
          -490 4 callgsubr
          -107 callsubr
          hintmask 111111101010101000100000
          -105 callgsubr
          -295 279 -68 callsubr
          69 -105 -7 callsubr
        </CharString>
        <CharString name="Atilde">
          19 callsubr
          40 -30 callsubr
          6 135 -8 28 46 25 242 30 19 75 -3 78 -58 79 hintmask 111111101110111010000000
          111 180 rmoveto
          -82 callgsubr
          -31 -19 rlineto
          -68 58 -86 73 26 30 10 15 27 vhcurveto
          -15 24 24 -10 25 hhcurveto
          49 50 28 66 20 -22 callsubr
          -24 19 rlineto
          41 13 38 21 39 hhcurveto
          24 19 -10 -8 callsubr
          3 -8 -15 vvcurveto
          -21 -7 -18 -26 -12 -2 callsubr
          -4 vhcurveto
          -24 -19 rlineto
          -66 20 70 -88 79 hhcurveto
          25 25 10 15 22 hvcurveto
          -15 28 29 -10 27 hhcurveto
          43 40 26 68 -22 callsubr
          -32 19 rlineto
          -5 -1 -7 -5 -11 hhcurveto
          -3 -4 14 15 26 12 22 42 hvcurveto
          -12 72 -97 callgsubr
          -10 -9 0 -1 -9 hvcurveto
          -37 190 rlineto
          hintmask 111111101110110100000000
          52 139 hlineto
          -97 callgsubr
          -108 hlineto
          hintmask 111111101101111010000000
          41 11 42 29 0 vvcurveto
          -83 callgsubr
          47 -66 rlineto
          -121 4 callgsubr
          hintmask 111111101101110100000000
          -107 callsubr
          hintmask 111111101110111010000000
          -105 callgsubr
          -295 279 -68 callsubr
          -109 298 -87 callsubr
          hintmask 111111011110111010000000
          -67 -25 44 -40 hhcurveto
          -25 -29 -15 -13 -20 hvcurveto
          124 -60 rmoveto
          32 23 -29 -11 43 hvcurveto
          -192 hlineto
          10 15 44 30 35 hhcurveto
          54 -255 -7 callsubr
        </CharString>
        <CharString name="B">
          17 -60 89 48 28 -3 29 48 -8 callgsubr
          -26 69 52 27 66 87 85 28 hstemhm
          40 28 33 30 122 81 -81 -3 callsubr
          194 -194 233 93 78 -45 78 -78 140 hintmask 110110111111000100000000
          620 340 rmoveto
          27 37 10 45 36 vvcurveto
          164 -106 78 -149 vhcurveto
          -362 -82 callsubr
          11 -36 callsubr
          hintmask 110110111111000010000000
          121 149 23 145 hvcurveto
          hintmask 110110111111000001000000
          46 5 25 57 -91 callsubr
          -22 -19 0 -2 -16 hvcurveto
          -7 9 -8 10 -10 11 rrcurveto
          hintmask 101101111110001100000000
          -245 15 rmoveto
          -119 -52 hlineto
          -12 -5 -10 -8 -9 -11 rrcurveto
          -63 callsubr
          -26 hlineto
          0 -12 -18 -45 callgsubr
          -7 8 -7 7 -8 4 rrcurveto
          289 -63 85 324 vlineto
          116 71 -42 -113 -42 -11 -46 -45 -41 hvcurveto
          52 -32 21 -32 11 -27 -7 -5 -6 -5 -6 -8 rrcurveto
          -12 6 -11 -76 callsubr
          -27 -26 callgsubr
          -13 16 -14 8 -18 4 rrcurveto
          33 -16 -30 15 -49 hhcurveto
          -5 -253 rmoveto
          69 47 28 75 16 -11 41 -54 callgsubr
          29 24 0 -45 27 hvcurveto
          0 25 6 callsubr
          23 -5 -57 callgsubr
          -6 callgsubr
          hintmask 110110111110010010000000
          -50 -14 -40 -53 -114 -127 -26 -115 -103 -31 16 28 -32 hvcurveto
          -8 hlineto
          -27 -25 -21 -19 -34 hhcurveto
          -42 -19 26 26 -12 hvcurveto
          0 6 -2 11 63 5 50 52 43 -13 40 -51 vhcurveto
          24 vlineto
          -36 callgsubr
          -45 27 hvcurveto
          0 22 6 callsubr
          24 -5 -57 callgsubr
          -55 callgsubr
          26 callgsubr
          hintmask 101110111110010100000000
          -75 49 -28 68 vhcurveto
          -37 305 rmoveto
          61 53 18 74 65 -23 23 -91 hvcurveto
          -77 -180 hlineto
          200 -228 rmoveto
          -33 -9 -30 -15 -47 hhcurveto
          -22 -16 -40 callsubr
          5 vlineto
          hintmask 110110111110100100000000
          36 35 16 callsubr
          -14 16 rlineto
          22 -29 hlineto
          -99 callsubr
          hintmask 110110111111000100000000
          -115 321 rmoveto
          49 hlineto
          35 1 -2 0 -22 0 -42 -85 hvcurveto
          endchar
        </CharString>
        <CharString name="C">
          -4 21 callgsubr
          29 hstemhm
          10 89 -28 28 138 78 -78 125 54 40 126 78 -78 140 hintmask 1111111100110100
          661 118 rmoveto
          36 4 26 57 -15 callgsubr
          -54 -33 0 -34 -27 hvcurveto
          -11 6 -13 19 0 vvcurveto
          -26 hlineto
          0 -13 -19 -45 callgsubr
          34 -27 -33 0 -54 -51 callsubr
          7 hlineto
          -35 -8 -30 -18 -48 hhcurveto
          -22 -16 5 0 hvcurveto
          8 vlineto
          37 35 29 callgsubr
          72 vlineto
          hintmask 1111111011011000
          -86 callgsubr
          50 -60 rlineto
          -49 callsubr
          hintmask 1111111101011000
          3 -18 -20 0 -23 -51 callsubr
          hintmask 1111111011011000
          -103 callsubr
          endchar
        </CharString>
        <CharString name="CR">
          -735 endchar
        </CharString>
        <CharString name="Ccaron">
          -4 21 callgsubr
          28 -28 101 132 27 hstemhm
          10 89 -28 28 138 78 -78 125 54 40 126 79 -79 140 hintmask 1111111011010110
          661 118 rmoveto
          hintmask 1111111011001101
          36 4 26 57 -15 callgsubr
          -54 -33 0 -34 -27 hvcurveto
          -11 6 -13 19 0 vvcurveto
          -26 hlineto
          0 -13 -19 -45 callgsubr
          34 -27 -33 0 -54 -51 callsubr
          7 hlineto
          -35 -8 -30 -18 -48 hhcurveto
          -22 -16 5 0 hvcurveto
          8 vlineto
          37 35 29 callgsubr
          72 vlineto
          hintmask 1111111010110110
          -86 callgsubr
          50 -60 rlineto
          194 101 hlineto
          133 -92 70 -114 26 vhcurveto
          118 183 -97 callgsubr
          -104 hlineto
          -78 -70 -78 70 rlineto
          -104 hlineto
          120 -186 38 -46 rlineto
          -115 -4 -130 -39 -137 vvcurveto
          -222 vlineto
          hintmask 1111111011010110
          3 -18 -20 0 -23 -51 callsubr
          hintmask 1111110110110110
          -103 callsubr
          -201 606 rmoveto
          -82 hlineto
          -91 132 rlineto
          42 hlineto
          81 -70 rlineto
          18 hlineto
          81 70 rlineto
          42 hlineto
          endchar
        </CharString>
        <CharString name="Ccedilla">
          -4 -299 84 -84 205 40 181 -28 -5 callgsubr
          29 hstemhm
          10 90 -29 29 126 136 -125 42 -42 78 -78 102 53 77 -53 40 126 78 -78 140 hintmask 101011111010001101000000
          466 370 rmoveto
          -49 callsubr
          hintmask 101011111101000101000000
          3 -18 -20 0 -23 -51 callsubr
          hintmask 100111111011000100100000
          11 -12 hlineto
          -123 82 -69 101 -29 vhcurveto
          -1 -7 0 -7 -8 vvcurveto
          -44 vlineto
          35 -41 rlineto
          -5 -10 -11 -1 -9 hhcurveto
          -10 -73 hlineto
          -99 callsubr
          48 hlineto
          83 40 45 98 hvcurveto
          19 vlineto
          8 -1 7 -2 5 vhcurveto
          -5 19 -10 16 -12 12 rrcurveto
          108 9 114 42 127 vvcurveto
          10 vlineto
          36 4 26 57 -15 callgsubr
          -54 -33 0 -34 -27 hvcurveto
          -11 6 -13 19 0 vvcurveto
          -26 hlineto
          0 -13 -19 -45 callgsubr
          34 -27 -33 0 -54 -51 callsubr
          7 hlineto
          -35 -8 -30 -18 -48 hhcurveto
          -22 -16 5 0 hvcurveto
          8 vlineto
          37 35 29 callgsubr
          72 vlineto
          hintmask 101011111100010011000000
          -86 callgsubr
          -125 -412 rmoveto
          -98 10 -93 42 99 vvcurveto
          9 vlineto
          45 -15 40 -50 vhcurveto
          24 vlineto
          -36 callgsubr
          -46 27 hvcurveto
          0 22 4 22 0 callsubr
          24 -46 callsubr
          46 28 25 0 27 -74 callsubr
          hintmask 100111111101000011000000
          -39 callgsubr
          -98 -92 -42 -96 -11 vhcurveto
          -9 -1 rlineto
          hintmask 101011111100001101000000
          -45 -18 -31 -40 -3 hvcurveto
          29 hlineto
          31 13 -2 -35 hvcurveto
          -6 vlineto
          -117 -66 -1 -45 vhcurveto
          -8 25 hlineto
          45 21 37 34 hvcurveto
          hintmask 011011111100001101000000
          25 vlineto
          hintmask 011011111100100101000000
          -60 19 hlineto
          46 13 28 19 17 vhcurveto
          -212 513 rmoveto
          hintmask 101011111100001101000000
          117 126 37 114 117 126 28 callsubr
          -71 -137 45 vlineto
          71 -40 37 -66 -63 -39 -37 -71 vhcurveto
          -198 vlineto
          -15 -5 -13 -8 -11 -14 rrcurveto
          -12 6 -12 19 0 vvcurveto
          -26 hlineto
          0 -14 -19 -10 -74 callgsubr
          endchar
        </CharString>
        <CharString name="D">
          28 -60 89 48 28 -3 29 48 -8 callgsubr
          -15 callsubr
          46 -39 callsubr
          128 78 -78 132 8 80 -28 28 132 79 -79 141 hintmask 1101111111010100
          692 458 rmoveto
          176 -151 66 -151 vhcurveto
          -344 -82 callsubr
          8 -36 callsubr
          121 149 23 145 hvcurveto
          hintmask 1011111111010010
          46 5 25 57 -91 callsubr
          -13 hlineto
          -302 360 rmoveto
          11 callsubr
          -11 callgsubr
          -283 hlineto
          -13 -5 -11 -8 -10 -12 rrcurveto
          -63 callsubr
          -26 hlineto
          0 -12 -18 -45 callgsubr
          -7 8 -7 7 -8 4 rrcurveto
          289 -60 85 vlineto
          299 -570 rmoveto
          69 47 28 75 16 -11 41 -54 callgsubr
          29 24 0 -45 27 hvcurveto
          0 25 6 callsubr
          23 -5 -57 callgsubr
          -6 callgsubr
          -50 -14 -40 -53 -114 -127 -26 -115 -103 -31 16 28 -32 hvcurveto
          -8 hlineto
          -27 -25 -21 -19 -34 hhcurveto
          -42 -19 26 26 -12 hvcurveto
          hintmask 1101111111010100
          0 6 -2 11 63 5 50 52 43 -13 40 -51 vhcurveto
          24 vlineto
          -36 callgsubr
          -45 27 hvcurveto
          0 22 6 callsubr
          24 -5 -57 callgsubr
          -55 callgsubr
          26 callgsubr
          hintmask 1011111110110100
          -75 49 -28 68 vhcurveto
          86 77 rmoveto
          -33 -9 -30 -15 -47 hhcurveto
          -22 -16 -40 callsubr
          5 vlineto
          36 35 2 24 1 -91 callsubr
          hintmask 1101111111001100
          -4 187 82 hlineto
          19 12 -4 -8 callsubr
          1 -4 -9 vvcurveto
          -172 vlineto
          hintmask 1101111111010100
          2 -15 -17 0 -20 hhcurveto
          -94 callsubr
          endchar
        </CharString>
        <CharString name="E">
          -79 -61 callgsubr
          hstemhm
          32 -48 callsubr
          hintmask 101110001110101011000000
          -90 callgsubr
          hintmask 110110001110110101000000
          -70 callsubr
          hintmask 110101101110110101000000
          -90 callsubr
          hintmask 110101101101010101000000
          -104 callsubr
          hintmask 110101101110110101000000
          -67 callsubr
          hintmask 110101011110110101000000
          -25 callsubr
          vlineto
          90 -130 rmoveto
          61 -140 hlineto
          -33 2 -11 7 -8 vhcurveto
          -24 5 -47 30 -10 10 rrcurveto
          -13 -17 -45 -34 -72 hhcurveto
          -49 -39 20 20 -24 hvcurveto
          -4 4 rlineto
          -9 hlineto
          -27 -26 -33 -18 -26 hhcurveto
          -38 -19 25 26 -9 2 callgsubr
          -2 9 63 7 50 52 43 -17 40 -48 vhcurveto
          -24 callsubr
          25 0 -45 28 hvcurveto
          0 24 -42 callsubr
          24 -5 18 callgsubr
          hvcurveto
          hintmask 101110001110110011000000
          -81 callgsubr
          vhcurveto
          endchar
        </CharString>
        <CharString name="Eacute">
          -79 -61 callgsubr
          23 5 callsubr
          32 -48 callsubr
          hintmask 101110001111101010110000
          -90 callgsubr
          hintmask 110110001111101101010000
          -70 callsubr
          hintmask 110101101111101101010000
          -90 callsubr
          hintmask 110101101111010101010000
          -104 callsubr
          hintmask 110101101111101101010000
          -67 callsubr
          hintmask 110101011111101101010000
          -25 callsubr
          vlineto
          90 -130 rmoveto
          61 -140 hlineto
          -33 2 -11 7 -8 vhcurveto
          -24 5 -47 30 -10 10 rrcurveto
          -13 -17 -45 -34 -72 hhcurveto
          -49 -39 20 20 -24 hvcurveto
          -4 4 rlineto
          -9 hlineto
          -27 -26 -33 -18 -26 hhcurveto
          -38 -19 25 26 -9 2 callgsubr
          -2 9 63 7 50 52 43 -17 40 -48 vhcurveto
          -24 callsubr
          25 0 -45 28 hvcurveto
          0 24 -42 callsubr
          24 -5 18 callgsubr
          hvcurveto
          hintmask 101110001111101100110000
          -81 callgsubr
          vhcurveto
          -85 500 -98 callgsubr
          endchar
        </CharString>
        <CharString name="Ecircumflex">
          -79 -61 callgsubr
          -28 112 132 27 hstemhm
          32 -48 callsubr
          hintmask 110110001101101101010000
          415 883 rmoveto
          -97 callgsubr
          -124 hlineto
          -120 -186 47 -57 rlineto
          -136 -63 callgsubr
          -50 callgsubr
          hintmask 110110001101010100110000
          -60 callgsubr
          hintmask 101110001101101010110000
          -41 -39 -20 -39 -20 -14 14 callsubr
          hintmask 110110001101101101010000
          -70 callsubr
          hintmask 110101101101010101010000
          -34 callgsubr
          244 hlineto
          -97 callgsubr
          -36 hlineto
          -267 -347 rmoveto
          -52 vlineto
          -35 callgsubr
          -63 callsubr
          -27 hlineto
          0 -12 -18 -12 -74 callgsubr
          287 vlineto
          hintmask 110101101101101101010000
          -67 callsubr
          hintmask 110101011101101101010000
          -25 callsubr
          vlineto
          90 -130 rmoveto
          61 -140 hlineto
          -33 2 -11 7 -8 vhcurveto
          -24 5 -47 30 -10 10 rrcurveto
          -13 -17 -45 -34 -72 hhcurveto
          -49 -39 20 20 -24 hvcurveto
          -4 4 rlineto
          -9 hlineto
          -27 -26 -33 -18 -26 hhcurveto
          -38 -19 25 26 -9 2 callgsubr
          -2 9 63 7 50 52 43 -17 40 -48 vhcurveto
          -24 callsubr
          25 0 -45 28 hvcurveto
          0 24 -42 callsubr
          24 -5 18 callgsubr
          hvcurveto
          hintmask 101110001011101100110000
          -81 callgsubr
          vhcurveto
          -217 693 rmoveto
          82 hlineto
          -83 callsubr
          182 -17 rmoveto
          hintmask 110110001101101101010000
          74 -67 rlineto
          -149 hlineto
          endchar
        </CharString>
        <CharString name="Edieresis">
          -79 -61 callgsubr
          25 -3 callgsubr
          32 28 -9 89 -30 30 111 67 -52 80 -80 137 -65 27 24 78 -10 27 -7 67 -3 78 hintmask 101110001111101001001010
          -90 callgsubr
          hintmask 110110001111101010010100
          -70 callsubr
          hintmask 110101101111101100110010
          -90 callsubr
          hintmask 110101101111010010010100
          -104 callsubr
          hintmask 110101101111101010010010
          -67 callsubr
          hintmask 110101011111101010010100
          -25 callsubr
          vlineto
          90 -130 rmoveto
          61 -140 hlineto
          -33 2 -11 7 -8 vhcurveto
          -24 5 -47 30 -10 10 rrcurveto
          -13 -17 -45 -34 -72 hhcurveto
          -49 -39 20 20 -24 hvcurveto
          -4 4 rlineto
          -9 hlineto
          -27 -26 -33 -18 -26 hhcurveto
          -38 -19 25 26 -9 2 callgsubr
          -2 9 63 7 50 52 43 -17 40 -48 vhcurveto
          -24 callsubr
          25 0 -45 28 hvcurveto
          0 24 -42 callsubr
          24 -5 18 callgsubr
          hvcurveto
          hintmask 101110001111101100101010
          -81 callgsubr
          vhcurveto
          -161 602 rmoveto
          63 -59 55 -64 -34 -49 -15 -43 vhcurveto
          -42 -94 callgsubr
          -123 29 rmoveto
          -73 callsubr
          14 -68 callgsubr
          -14 -85 callgsubr
          hintmask 110110001111101100110100
          349 13 rmoveto
          63 -59 55 -64 -34 -49 -15 -43 vhcurveto
          -42 -94 callgsubr
          -123 29 rmoveto
          -73 callsubr
          14 -68 callgsubr
          -14 -85 callgsubr
          endchar
        </CharString>
        <CharString name="Egrave">
          -79 -61 callgsubr
          23 -4 callgsubr
          32 28 -9 89 -30 30 126 80 43 78 -10 27 57 78 hintmask 101110001110101101100000
          -90 callgsubr
          hintmask 110110001110101110100000
          -70 callsubr
          hintmask 110101101110101110100000
          -90 callsubr
          hintmask 110101101110010110100000
          -104 callsubr
          hintmask 110101101110101110100000
          -67 callsubr
          hintmask 110101011110101110100000
          -25 callsubr
          vlineto
          90 -130 rmoveto
          61 -140 hlineto
          -33 2 -11 7 -8 vhcurveto
          -24 5 -47 30 -10 10 rrcurveto
          -13 -17 -45 -34 -72 hhcurveto
          -49 -39 20 20 -24 hvcurveto
          -4 4 rlineto
          -9 hlineto
          -27 -26 -33 -18 -26 hhcurveto
          -38 -19 25 26 -9 2 callgsubr
          -2 9 63 7 50 52 43 -17 40 -48 vhcurveto
          -24 callsubr
          25 0 -45 28 hvcurveto
          0 24 -42 callsubr
          24 -5 18 callgsubr
          hvcurveto
          hintmask 101110001110101101100000
          -81 callgsubr
          vhcurveto
          -53 500 rmoveto
          -10 160 -97 callgsubr
          -136 hlineto
          60 -160 -99 callsubr
          -29 86 rmoveto
          hintmask 110110001101101110100000
          -65 callsubr
        </CharString>
        <CharString name="Eth">
          28 -60 89 48 28 -3 29 48 83 -83 124 -17 40 60 27 86 -53 callgsubr
          hstemhm
          13 30 5 -39 callsubr
          128 78 -78 132 -20 108 -28 28 132 79 -79 141 hintmask 110101111111101010000000
          94 179 rmoveto
          -72 callgsubr
          hintmask 110101111111101001000000
          46 5 25 57 -91 callsubr
          -13 146 hlineto
          176 -151 66 -151 vhcurveto
          -344 -82 callsubr
          8 -86 -93 -114 hlineto
          31 -37 rlineto
          -23 vlineto
          186 40 rmoveto
          hintmask 110010111111101010000000
          -63 callsubr
          -26 hlineto
          0 -12 -18 -45 callgsubr
          -7 8 -7 7 -8 4 rrcurveto
          hintmask 110101111111101010000000
          28 -93 60 93 201 -60 85 316 vlineto
          11 callsubr
          hintmask 110010111111101010000000
          -11 callgsubr
          -201 112 hlineto
          hintmask 101101111111101010000000
          -60 -112 -22 vlineto
          -13 -5 -11 -8 -10 -12 rrcurveto
          145 -177 rmoveto
          69 47 28 75 16 -11 41 -54 callgsubr
          29 24 0 -45 27 hvcurveto
          0 25 6 callsubr
          23 -5 -57 callgsubr
          -6 callgsubr
          -50 -14 -40 -53 -114 -127 -26 -115 -103 -31 16 28 -32 hvcurveto
          -8 hlineto
          -27 -25 -21 -19 -34 hhcurveto
          -42 -19 26 26 -12 hvcurveto
          hintmask 110101111111101010000000
          0 6 -2 11 63 5 50 52 43 -13 40 -51 vhcurveto
          24 vlineto
          -36 callgsubr
          -45 27 hvcurveto
          0 22 6 callsubr
          24 -5 -57 callgsubr
          -55 callgsubr
          26 callgsubr
          hintmask 101101111111100110000000
          -75 49 -28 68 vhcurveto
          -33 397 rmoveto
          82 hlineto
          19 12 -4 -8 callsubr
          1 -4 -9 vvcurveto
          -129 vlineto
          -97 callgsubr
          -64 hlineto
          119 -234 rmoveto
          -33 -9 -30 -15 -47 hhcurveto
          -22 -16 -40 callsubr
          5 vlineto
          hintmask 110101111111010110000000
          36 35 29 callgsubr
          60 8 vlineto
          -99 callsubr
          endchar
        </CharString>
        <CharString name="F">
          -99 -76 callgsubr
          2 176 -153 65 -29 callgsubr
          hstemhm
          33 28 -8 88 7 callgsubr
          -3 callsubr
          215 -92 78 74 78 hintmask 111100011101100110000000
          468 265 rmoveto
          116 vlineto
          -97 callgsubr
          -71 58 107 -43 hlineto
          hintmask 111011011101100110000000
          -90 callsubr
          hintmask 111100011010010010000000
          3 -17 -19 0 -22 hhcurveto
          -73 vlineto
          -50 callsubr
          hintmask 111100011010100110000000
          -203 38 rmoveto
          -47 callgsubr
          -8 10 -8 -47 callsubr
          286 vlineto
          hintmask 111011011101001010000000
          -67 callsubr
          hintmask 111010111101100110000000
          -174 123 -60 -123 -52 vlineto
          -58 callgsubr
          -16 4 callsubr
          45 -15 39 -51 vhcurveto
          -13 callsubr
          -51 15 -52 55 -96 callsubr
          -86 callsubr
          endchar
        </CharString>
        <CharString name="G">
          28 -72 89 -77 77 60 185 -172 29 60 -8 callgsubr
          58 88 63 90 72 29 hstemhm
          4 90 -28 28 126 77 -77 137 -137 233 -221 78 101 29 137 78 -78 140 hintmask 101001111011000110000000
          461 370 rmoveto
          -49 callsubr
          hintmask 100111111101000110000000
          -10 callsubr
          hintmask 100111111011000110000000
          12 -11 hlineto
          -174 160 -66 160 104 31 25 26 35 vhcurveto
          hintmask 010111111101000110000000
          -22 21 20 -17 41 hhcurveto
          55 42 -89 callsubr
          -27 18 rlineto
          -5 -6 -7 -1 0 vvcurveto
          16 vlineto
          hintmask 100111111101000101000000
          33 6 24 -89 callgsubr
          -54 -34 0 -33 -26 hvcurveto
          -11 6 -12 18 14 callgsubr
          33 -26 -35 0 -55 -80 callsubr
          -8 -31 -24 -47 hhcurveto
          -22 -16 6 -8 callsubr
          -1 8 7 vvcurveto
          hintmask 100111111100100110000000
          36 36 16 callsubr
          hintmask 100111111100001110000000
          -86 callgsubr
          -220 -151 29 callsubr
          -11 -18 -33 callgsubr
          -7 9 -8 7 -9 5 rrcurveto
          229 vlineto
          117 126 37 114 117 126 28 callsubr
          -71 -137 45 vlineto
          71 -40 37 -66 -63 -39 -37 -71 vhcurveto
          31 callgsubr
          145 -189 rmoveto
          hintmask 101001111100010010000000
          68 49 40 75 16 -12 41 -54 callgsubr
          -36 callgsubr
          -45 27 hvcurveto
          0 24 -42 callsubr
          22 -5 -57 callgsubr
          -36 callgsubr
          27 -74 callsubr
          hintmask 100111111101000110000000
          -51 -13 -40 -43 hvcurveto
          hintmask 101001111101000110000000
          -52 5 -50 63 11 6 2 0 vhcurveto
          -26 -12 -19 -26 -42 hhcurveto
          -34 -21 19 27 -25 hvcurveto
          -8 hlineto
          -28 -32 -31 -28 -103 hhcurveto
          -115 -127 38 114 53 -14 40 -54 callgsubr
          27 -7 callgsubr
          27 hvcurveto
          0 23 5 21 29 vhcurveto
          11 callgsubr
          hvcurveto
          hintmask 100111111101000110000000
          -75 47 -40 69 vhcurveto
          endchar
        </CharString>
        <CharString name="H">
          120 -60 90 46 28 -28 236 -133 84 25 64 60 27 60 -53 callgsubr
          hstemhm
          54 -39 callsubr
          126 76 -14 78 40 -75 callgsubr
          hintmask 1010011111101110
          54 312 rmoveto
          -73 vlineto
          hintmask 1101111111101110
          -50 callsubr
          53 -26 hlineto
          -107 callgsubr
          -65 callgsubr
          73 vlineto
          hintmask 1010011111101110
          16 callgsubr
          hintmask 1010011111011101
          -44 callgsubr
          -60 -158 60 -44 callgsubr
          -50 callgsubr
          3 -17 -19 0 -22 hhcurveto
          138 -9 rmoveto
          -47 callgsubr
          -8 10 -8 -47 callsubr
          286 -9 callsubr
          vlineto
          hintmask 1101111111101101
          -62 -175 268 175 -9 callsubr
          hlineto
          hintmask 1101111111101110
          13 callsubr
          -26 hlineto
          -47 callgsubr
          -8 10 -8 -47 callsubr
          51 -268 -51 vlineto
          -58 callgsubr
          378 4 callsubr
          45 -15 39 -51 vhcurveto
          -13 callsubr
          -51 15 -52 55 -96 callsubr
          -86 callsubr
          -400 hmoveto
          -23 -27 -26 -8 -23 hhcurveto
          -38 24 callsubr
          7 -4 9 65 5 52 51 45 -15 39 -51 vhcurveto
          -13 callsubr
          -51 15 -52 55 -96 callsubr
          -86 callsubr
          endchar
        </CharString>
        <CharString name="I">
          -67 callgsubr
          -15 callsubr
          56 -75 callgsubr
          hintmask 1111111101000000
          410 -1 callsubr
          -22 hhcurveto
          -106 callgsubr
          36 6 23 -89 callgsubr
          hintmask 1111111110000000
          -8 -28 callsubr
          hintmask 1111111101000000
          -156 -196 rmoveto
          -47 callgsubr
          -8 10 -8 -47 callsubr
          286 -9 callsubr
          vlineto
          hintmask 1111111110000000
          13 callsubr
          -16 4 callsubr
          45 -15 39 -51 vhcurveto
          -13 callsubr
          -51 15 -52 55 -96 callsubr
          -86 callsubr
          endchar
        </CharString>
        <CharString name="Iacute">
          17 callsubr
          5 callsubr
          56 -75 callgsubr
          hintmask 1111111111010000
          410 -1 callsubr
          -22 hhcurveto
          -106 callgsubr
          36 6 23 -89 callgsubr
          hintmask 1111111111100000
          -8 -28 callsubr
          hintmask 1111111111010000
          -156 -196 rmoveto
          -47 callgsubr
          -8 10 -8 -47 callsubr
          286 -9 callsubr
          vlineto
          hintmask 1111111111100000
          13 callsubr
          -16 4 callsubr
          45 -15 39 -51 vhcurveto
          -13 callsubr
          -51 15 -52 55 -96 callsubr
          -86 callsubr
          79 662 -98 callgsubr
          endchar
        </CharString>
        <CharString name="Icircumflex">
          -67 callgsubr
          -64 callgsubr
          -28 112 132 27 hstemhm
          56 -75 callgsubr
          hintmask 1111110111100000
          320 883 rmoveto
          -97 callgsubr
          -124 hlineto
          -120 -186 47 -57 rlineto
          -17 -82 callsubr
          8 -50 callgsubr
          3 -17 -19 0 -22 hhcurveto
          -106 callgsubr
          36 6 23 56 vhcurveto
          73 vlineto
          16 callgsubr
          hintmask 1111110111010000
          60 141 hlineto
          -48 57 rlineto
          78 hlineto
          -246 -394 rmoveto
          -47 callgsubr
          -8 10 -8 -47 callsubr
          286 -9 callsubr
          vlineto
          hintmask 1111101111100000
          13 callsubr
          -16 4 callsubr
          45 -15 39 -51 vhcurveto
          -13 callsubr
          -51 15 -52 55 -96 callsubr
          -86 callsubr
          -43 855 rmoveto
          82 hlineto
          -83 callsubr
          182 -17 rmoveto
          hintmask 1111110111010000
          74 -67 rlineto
          -149 hlineto
          endchar
        </CharString>
        <CharString name="Idieresis">
          -67 callgsubr
          -64 callgsubr
          25 -3 callgsubr
          15 27 14 -39 callsubr
          10 67 20 27 2 -18 callgsubr
          -30 67 hintmask 1111111111111010
          410 -1 callsubr
          -22 hhcurveto
          -106 callgsubr
          36 6 23 -89 callgsubr
          hintmask 1111111111111101
          -8 -28 callsubr
          hintmask 1111111111111010
          -156 -196 rmoveto
          -47 callgsubr
          -8 10 -8 -47 callsubr
          286 -9 callsubr
          vlineto
          hintmask 1111111111111101
          13 callsubr
          -16 4 callsubr
          45 -15 39 -51 vhcurveto
          -13 callsubr
          -51 15 -52 55 -96 callsubr
          -86 callsubr
          11 764 rmoveto
          63 -59 55 -64 -34 -49 -15 -43 vhcurveto
          -42 -94 callgsubr
          -123 29 rmoveto
          -73 callsubr
          14 -68 callgsubr
          -46 callgsubr
        </CharString>
        <CharString name="Igrave">
          17 callsubr
          -4 callgsubr
          56 -75 callgsubr
          hintmask 1111111011010000
          410 -1 callsubr
          -22 hhcurveto
          -106 callgsubr
          36 6 23 -89 callgsubr
          hintmask 1111111011100000
          -8 -28 callsubr
          hintmask 1111111011010000
          -156 -196 rmoveto
          -47 callgsubr
          -8 10 -8 -47 callsubr
          286 -9 callsubr
          vlineto
          hintmask 1111111011100000
          13 callsubr
          -16 4 callsubr
          45 -15 39 -51 vhcurveto
          -13 callsubr
          -51 15 -52 55 -96 callsubr
          -86 callsubr
          119 662 rmoveto
          -10 160 -97 callgsubr
          -136 hlineto
          60 -160 -99 callsubr
          -29 86 rmoveto
          hintmask 1111110111100000
          -65 callsubr
        </CharString>
        <CharString name="J">
          -79 -72 89 56 147 -29 29 279 -53 callgsubr
          hstemhm
          0 28 158 119 -28 28 -6 66 -30 30 126 79 -17 78 hintmask 1101111001100000
          296 108 rmoveto
          52 vlineto
          -97 callgsubr
          -53 -35 0 -33 -24 hvcurveto
          -10 6 -14 27 0 vvcurveto
          -110 -54 hlineto
          -144 170 -94 142 120 138 34 144 vhcurveto
          15 vlineto
          hintmask 1101110101010000
          33 5 25 -89 callgsubr
          -10 187 -44 callgsubr
          -248 hlineto
          hintmask 1011110010100000
          -11 -2 -12 -2 -13 -1 rrcurveto
          -69 vlineto
          32 -39 -8 -14 -12 -10 -15 -6 rlinecurve
          194 73 rmoveto
          -14 vlineto
          -114 -114 -36 -114 -116 -118 36 114 vhcurveto
          24 69 vlineto
          17 -35 26 -7 -57 callgsubr
          25 30 0 26 -74 callsubr
          hintmask 1101111001100000
          -18 -17 -12 -23 -44 42 -18 36 45 57 28 73 hvcurveto
          29 -36 21 vlineto
          72 7 30 40 0 vvcurveto
          -27 callsubr
          -16 -38 -43 hvcurveto
          hintmask 1101110010100000
          -125 406 rmoveto
          hintmask 1101111001010000
          -9 callsubr
          hlineto
          hintmask 1101110010100000
          -62 -288 hlineto
          -5 -3 -4 -3 -4 -4 9 callgsubr
          -11 -12 -19 -17 -33 -13 rrcurveto
          endchar
        </CharString>
        <CharString name="K">
          -5 22 callsubr
          48 -39 callsubr
          126 77 -35 78 9 27 -7 30 119 77 -14 78 hintmask 1111111100110000
          411 179 rmoveto
          -31 vlineto
          -128 92 -80 84 93 38 30 65 7 vhcurveto
          28 callgsubr
          -4 -5 -7 -3 0 vvcurveto
          14 vlineto
          79 -37 83 -78 18 vhcurveto
          -23 25 150 175 rlineto
          hintmask 1111111011001000
          52 -78 callgsubr
          -260 -13 callgsubr
          16 -12 -25 -29 rlineto
          122 vlineto
          -97 callgsubr
          -284 -82 callsubr
          8 -50 callgsubr
          3 -17 -19 0 -22 hhcurveto
          -94 callsubr
          11 hlineto
          -33 -1 -42 -40 -11 -6 4 5 -3 -45 callsubr
          rlineto
          -65 9 65 -90 77 hhcurveto
          26 27 10 17 25 hvcurveto
          -17 25 27 -10 26 hhcurveto
          48 43 30 65 9 hvcurveto
          -78 78 rlineto
          hintmask 1111111100110000
          -4 -5 -6 -3 0 vvcurveto
          15 vlineto
          36 4 -14 callgsubr
          186 408 rmoveto
          -177 -208 78 -81 -5 -6 -8 -9 -8 -4 rlinecurve
          33 -26 -34 0 -56 hhcurveto
          -54 -33 0 -33 -25 hvcurveto
          -12 -26 callsubr
          -9 7 -9 5 rrcurveto
          286 -60 85 vlineto
          hintmask 1111111011010000
          228 -85 hlineto
          hintmask 1111111101001000
          -42 -206 37 hlineto
          178 206 rlineto
          -59 85 205 -85 hlineto
          -299 -299 rmoveto
          52 hlineto
          -6 callsubr
          23 5 21 30 vhcurveto
          hintmask 1111111100110000
          52 -17 7 -44 -32 vvcurveto
          -55 6 -52 61 9 6 4 0 0 -5 -50 -92 -43 -61 14 109 vhcurveto
          26 vlineto
          45 -16 39 -49 vhcurveto
          -52 hlineto
          -50 -14 -39 -45 -51 5 -52 62 12 5 -40 callsubr
          -27 -12 -18 -23 -37 hhcurveto
          -21 -28 8 23 -26 hvcurveto
          -6 hlineto
          -23 -26 -27 -8 -22 hhcurveto
          -37 24 callsubr
          5 -4 10 63 6 52 51 45 -16 39 -48 vhcurveto
          25 vlineto
          25 -24 callgsubr
          26 hvcurveto
          0 24 5 22 0 callsubr
          25 -5 -31 callsubr
          26 26 0 27 hhcurveto
          endchar
        </CharString>
        <CharString name="L">
          -99 -60 89 48 28 -3 29 92 30 33 26 -15 callsubr
          50 -75 callgsubr
          51 27 56 77 hintmask 1101111110111000
          404 499 rmoveto
          141 vlineto
          -50 60 rlineto
          -304 -141 hlineto
          50 -60 rlineto
          8 -190 hlineto
          -60 callgsubr
          hintmask 1011111111011000
          -41 -39 -20 -39 -20 -14 5 0 vhcurveto
          4 vlineto
          36 35 2 23 1 -91 callsubr
          -7 -28 callsubr
          hintmask 1101111110111000
          133 -276 rmoveto
          61 -140 hlineto
          -33 2 -11 7 -8 vhcurveto
          -24 5 -47 30 -10 10 rrcurveto
          -13 -17 -45 -34 -72 hhcurveto
          -49 -39 20 20 -24 hvcurveto
          -4 4 rlineto
          -9 hlineto
          -27 -26 -33 -18 -26 hhcurveto
          -38 -19 25 26 -9 2 callgsubr
          -2 9 63 7 50 52 43 -17 40 -48 vhcurveto
          -24 callsubr
          25 0 -45 28 hvcurveto
          0 24 -42 callsubr
          24 -5 -57 callgsubr
          26 26 0 27 -74 callsubr
          hintmask 1011111111011000
          -49 7 callsubr
          -81 callgsubr
          hvcurveto
          -240 56 29 callsubr
          -12 -18 -12 -74 callgsubr
          287 -60 85 vlineto
          hintmask 1101111110111000
          -31 callgsubr
          hlineto
          hintmask 1101111111011000
          -72 callsubr
          endchar
        </CharString>
        <CharString name="M">
          179 -76 callgsubr
          -84 133 187 201 -28 28 hstemhm
          43 -39 callsubr
          129 77 -77 135 339 -18 callgsubr
          hintmask 1110101110100000
          421 283 rmoveto
          50 -59 rlineto
          23 hlineto
          26 32 rlineto
          -17 vlineto
          -107 callgsubr
          -65 callgsubr
          73 vlineto
          hintmask 1101101110100000
          16 callgsubr
          hintmask 1101101101010000
          -57 callsubr
          -218 hlineto
          -163 -195 -161 195 rlineto
          -239 -82 callsubr
          8 -50 callgsubr
          3 -17 -19 0 -22 hhcurveto
          -106 callgsubr
          36 6 23 -89 callgsubr
          hintmask 1101011110010000
          -8 77 hlineto
          321 -86 rmoveto
          -47 callgsubr
          -9 11 -9 7 -11 5 rrcurveto
          190 -27 vlineto
          -146 -181 -145 181 rlineto
          -27 -50 callgsubr
          -11 -5 -10 -7 -8 -11 rrcurveto
          -11 -26 callsubr
          -8 -47 callsubr
          286 -60 85 175 vlineto
          175 -207 rlineto
          23 hlineto
          176 207 rlineto
          176 -85 hlineto
          hintmask 1110101110100000
          13 callsubr
          -493 4 callsubr
          45 -15 39 -51 vhcurveto
          -13 callsubr
          -51 15 -52 55 -96 callsubr
          -86 callsubr
          471 hmoveto
          -23 -27 -26 -8 -23 hhcurveto
          -38 24 callsubr
          7 -4 9 65 5 52 51 45 -15 39 -51 vhcurveto
          24 9 vlineto
          24 24 -5 -41 24 hvcurveto
          0 22 5 23 0 callsubr
          24 -5 -31 callsubr
          26 26 0 29 hhcurveto
          -25 vlineto
          -49 -17 -39 -45 -51 15 -52 55 -96 callsubr
          -86 callsubr
          endchar
        </CharString>
        <CharString name="N">
          -101 callgsubr
        </CharString>
        <CharString name="Ntilde">
          99 -103 callgsubr
        </CharString>
        <CharString name="O">
          18 -73 callgsubr
          hstemhm
          11 90 -29 29 125 78 -78 -3 callsubr
          246 -233 79 66 75 -29 29 138 80 -80 140 hintmask 1111111010001010
          399 -72 rmoveto
          121 157 35 145 hvcurveto
          13 vlineto
          hintmask 1111110110001001
          33 4 25 -89 callgsubr
          -11 159 hlineto
          145 -133 96 -194 -121 -156 -56 callsubr
          hintmask 1111111000011010
          -88 callgsubr
          vhcurveto
          -160 575 -106 callsubr
          hintmask 1111111000100010
          -105 callsubr
          hintmask 1111111000010110
          -87 callgsubr
          hintmask 1111111010001010
          -91 callgsubr
          hintmask 1111111001001010
          -19 callsubr
          vhcurveto
          73 vlineto
          hintmask 1111111000011010
          -46 55 rlineto
          endchar
        </CharString>
        <CharString name="Oacute">
          18 -73 callgsubr
          11 5 callsubr
          11 90 -29 29 125 78 -78 -3 callsubr
          246 -233 79 66 75 -29 29 138 80 -80 140 hintmask 111111111010001010000000
          399 -72 rmoveto
          121 157 35 145 hvcurveto
          13 vlineto
          hintmask 111111110110001001000000
          33 4 25 -89 callgsubr
          -11 159 hlineto
          145 -133 96 -194 -121 -156 -56 callsubr
          hintmask 111111111000011010000000
          -88 callgsubr
          vhcurveto
          -160 575 -106 callsubr
          hintmask 111111111000100010000000
          -105 callsubr
          hintmask 111111111000010110000000
          -87 callgsubr
          hintmask 111111111010001010000000
          -91 callgsubr
          hintmask 111111111001001010000000
          -19 callsubr
          vhcurveto
          73 vlineto
          hintmask 111111111000011010000000
          -46 55 rlineto
          115 416 -98 callgsubr
          endchar
        </CharString>
        <CharString name="Ocircumflex">
          18 -73 callgsubr
          -29 101 132 27 hstemhm
          11 90 -29 29 125 78 -78 -3 callsubr
          246 -233 79 66 75 -29 29 138 80 -80 140 hintmask 111111010110001010000000
          462 883 rmoveto
          -97 callgsubr
          -124 hlineto
          -120 -186 -99 callsubr
          -78 -22 -68 -48 -96 vvcurveto
          -222 vlineto
          hintmask 111111011010001010000000
          3 -17 -20 0 -24 -95 callsubr
          hintmask 111111011000011001000000
          33 4 25 -89 callgsubr
          -11 159 hlineto
          145 -133 96 -194 vhcurveto
          -11 hlineto
          62 55 78 -70 rlineto
          104 hlineto
          -343 -194 -106 callsubr
          hintmask 111111011000100010000000
          -105 callsubr
          hintmask 111111011000010110000000
          -87 callgsubr
          hintmask 111111011010001010000000
          -91 callgsubr
          hintmask 111111011001001010000000
          -19 callsubr
          vhcurveto
          73 vlineto
          hintmask 111110111000011010000000
          -46 55 rlineto
          -9 609 rmoveto
          82 hlineto
          12 callgsubr
        </CharString>
        <CharString name="Odieresis">
          18 -73 callgsubr
          13 -3 callgsubr
          11 90 -29 29 59 27 39 78 -78 246 -233 79 -19 67 20 27 17 29 66 67 5 80 -80 140 hintmask 111111111011000111100000
          399 -72 rmoveto
          121 157 35 145 hvcurveto
          13 vlineto
          hintmask 111111110111000111010000
          33 4 25 -89 callgsubr
          -11 159 hlineto
          145 -133 96 -194 -121 -156 -56 callsubr
          hintmask 111111111010010111100000
          -88 callgsubr
          vhcurveto
          -160 575 -106 callsubr
          hintmask 111111111010100001100000
          -105 callsubr
          hintmask 111111111010010111100000
          -87 callgsubr
          10 callgsubr
          hintmask 111111111011000111100000
          23 callgsubr
          hintmask 111111111010010111100000
          -46 55 rlineto
          hintmask 111111111010001111100000
          48 518 rmoveto
          63 -59 55 -64 -34 -49 -15 -43 vhcurveto
          -42 -94 callgsubr
          -123 29 rmoveto
          -73 callsubr
          14 -68 callgsubr
          -46 callgsubr
        </CharString>
        <CharString name="Ograve">
          18 -73 callgsubr
          11 -4 callgsubr
          11 90 -29 29 125 78 -78 -3 callsubr
          246 -233 79 66 75 -29 29 138 80 -80 140 hintmask 111111101010001010000000
          399 -72 rmoveto
          121 157 35 145 hvcurveto
          13 vlineto
          hintmask 111111100110001001000000
          33 4 25 -89 callgsubr
          -11 159 hlineto
          145 -133 96 -194 -121 -156 -56 callsubr
          hintmask 111111101000011010000000
          -88 callgsubr
          vhcurveto
          -160 575 -106 callsubr
          hintmask 111111101000100010000000
          -105 callsubr
          hintmask 111111101000010110000000
          -87 callgsubr
          hintmask 111111101010001010000000
          -91 callgsubr
          hintmask 111111101001001010000000
          -19 callsubr
          vhcurveto
          73 vlineto
          hintmask 111111101000011010000000
          -46 55 rlineto
          156 416 rmoveto
          -10 160 -97 callgsubr
          -136 hlineto
          60 -160 -99 callsubr
          -29 86 rmoveto
          hintmask 111111011010001010000000
          -65 callsubr
        </CharString>
        <CharString name="Oslash">
          18 -100 callgsubr
        </CharString>
        <CharString name="Otilde">
          18 -73 callgsubr
          28 -30 callsubr
          11 90 -29 29 80 25 20 78 -78 -3 callsubr
          246 -233 79 66 75 -29 29 38 75 25 80 -80 140 hintmask 111111101110110001011000
          399 -72 rmoveto
          121 157 35 145 hvcurveto
          13 vlineto
          hintmask 111111101101110001010100
          33 4 25 -89 callgsubr
          -11 159 hlineto
          111 -78 82 -124 32 vhcurveto
          45 7 53 37 0 vvcurveto
          -83 callgsubr
          48 -67 rlineto
          -85 -21 -72 -48 -99 vvcurveto
          -222 vlineto
          hintmask 111111101110100011011000
          -88 callgsubr
          vhcurveto
          -160 575 -106 callsubr
          hintmask 111111101110100100011000
          -105 callsubr
          hintmask 111111101110100010111000
          -87 callgsubr
          hintmask 111111101110110001011000
          -91 callgsubr
          hintmask 111111101110101001011000
          -19 callsubr
          vhcurveto
          73 vlineto
          hintmask 111111101110100011011000
          -46 55 rlineto
          -112 581 -87 callsubr
          hintmask 111111011110110001011000
          -67 -25 44 -40 hhcurveto
          -25 -29 -15 -13 -20 hvcurveto
          143 -88 rmoveto
          -36 -39 -3 -8 -37 hvcurveto
          11 16 43 28 34 hhcurveto
          25 20 -18 -13 28 hvcurveto
          2 -18 -18 1 -18 hhcurveto
          endchar
        </CharString>
        <CharString name="P">
          -36 -76 callgsubr
          -70 88 7 24 29 29 130 87 85 28 hstemhm
          38 28 -8 88 -30 30 128 78 100 28 130 80 hintmask 1110111110111100
          690 425 rmoveto
          149 -103 126 -190 vhcurveto
          -359 -63 callgsubr
          -50 callgsubr
          hintmask 1110111101011100
          3 -17 -19 0 -22 hhcurveto
          -106 callgsubr
          -65 callgsubr
          hintmask 1101111101011100
          14 50 vlineto
          136 94 70 162 hvcurveto
          -494 -122 rmoveto
          -47 callgsubr
          -8 10 -8 -47 callsubr
          286 vlineto
          hintmask 1101111110111100
          -80 85 324 hlineto
          199 21 -124 -63 -87 -26 -117 -183 hvcurveto
          -15 hlineto
          -26 31 rlineto
          -56 -33 0 -33 -25 hvcurveto
          -84 callgsubr
          52 284 rmoveto
          -246 64 vlineto
          104 38 63 72 106 -93 5 -50 hvcurveto
          -131 -526 rmoveto
          -23 -27 -26 -8 -23 hhcurveto
          -38 24 callsubr
          7 -4 9 vhcurveto
          hintmask 1110111110111100
          65 5 52 51 45 -15 39 -51 hvcurveto
          -13 callsubr
          -51 15 -52 55 -96 callsubr
          -86 callsubr
          172 439 rmoveto
          48 19 -9 -8 callsubr
          1 -8 -7 vvcurveto
          -81 -50 -21 -50 -4 vhcurveto
          130 vlineto
          endchar
        </CharString>
        <CharString name="Q">
          39 -72 89 -77 77 60 163 -150 27 62 -8 callgsubr
          197 91 82 30 hstemhm
          6 91 -28 28 125 77 -77 137 -137 233 -218 78 52 75 -28 28 138 78 -78 139 hintmask 101001110110001010000000
          658 471 rmoveto
          185 -180 56 -140 -119 -150 -36 -145 vhcurveto
          -222 vlineto
          hintmask 100111111010001010000000
          3 -18 -21 0 -24 hhcurveto
          -94 callsubr
          12 -11 hlineto
          -174 160 -66 160 104 31 25 26 35 vhcurveto
          hintmask 010111111010001001000000
          -22 21 20 -17 41 hhcurveto
          55 42 -89 callsubr
          -27 18 rlineto
          -5 -6 -7 -1 0 vvcurveto
          16 vlineto
          33 6 24 -89 callgsubr
          hintmask 100111111000011010000000
          -11 hlineto
          -103 -33 rmoveto
          -16 11 -7 13 14 callgsubr
          -12 14 -13 9 -16 4 rrcurveto
          185 vlineto
          73 -40 36 -64 -61 -40 -36 -73 vhcurveto
          -183 vlineto
          -17 -4 -13 -8 -14 -17 rrcurveto
          -63 callsubr
          -27 hlineto
          0 -10 -17 -13 -7 vhcurveto
          -7 9 -8 6 -8 5 rrcurveto
          231 vlineto
          115 128 37 113 115 127 -37 -115 vhcurveto
          -230 vlineto
          -9 -43 callsubr
          -7 -9 rrcurveto
          8 -38 rmoveto
          20 callgsubr
          hintmask 101001111010001010000000
          -52 5 -50 63 11 6 2 0 vhcurveto
          -26 -12 -19 -26 -42 hhcurveto
          -34 -21 19 27 -25 hvcurveto
          -8 hlineto
          -28 -32 -31 -28 -103 hhcurveto
          -115 -127 38 114 hvcurveto
          hintmask 100111111000100010000000
          53 -14 40 -50 vhcurveto
          -24 callsubr
          -7 callgsubr
          27 hvcurveto
          19 6 14 13 11 15 rrcurveto
          11 callgsubr
          -75 47 -40 69 68 49 17 78 hvcurveto
          hintmask 101001111000010110000000
          16 -11 35 -51 4 vhcurveto
          46 vlineto
          -36 callgsubr
          -45 27 hvcurveto
          0 24 5 21 29 vhcurveto
          12 -14 14 -14 18 -6 rrcurveto
          -248 188 -56 callgsubr
        </CharString>
        <CharString name="R">
          6 -67 callgsubr
          29 29 130 87 85 28 hstemhm
          37 28 -8 88 -30 30 128 78 69 30 1 28 90 77 -37 80 hintmask 1111111101111100
          420 -98 callsubr
        </CharString>
        <CharString name="S">
          -88 callsubr
          -133 115 -74 84 -53 vhcurveto
          -17 -92 callsubr
        </CharString>
        <CharString name="T">
          -89 -67 callgsubr
          84 88 15 -53 callgsubr
          hstemhm
          12 10 callsubr
          443 499 rmoveto
          35 -43 hlineto
          -99 callsubr
          110 244 hlineto
          -97 callgsubr
          -576 -244 hlineto
          -34 callgsubr
          103 29 -50 callgsubr
          hintmask 1111111101110100
          3 -17 -19 0 -22 hhcurveto
          -106 callgsubr
          36 6 23 -89 callgsubr
          -41 callgsubr
          286 vlineto
          hintmask 1111111110101100
          -137 -103 -60 188 520 -188 -57 103 -140 15 callgsubr
          -16 4 callsubr
          45 -15 39 -51 vhcurveto
          -13 callsubr
          -51 15 -52 55 -96 callsubr
          -86 callsubr
          endchar
        </CharString>
        <CharString name="Thorn">
          -53 -60 87 48 28 -28 188 -130 88 60 29 130 87 64 29 124 28 hstemhm
          41 -39 callsubr
          128 80 98 28 130 80 hintmask 1101111111111000
          443 133 rmoveto
          136 94 70 162 149 -103 106 -190 hvcurveto
          -43 92 hlineto
          -97 callgsubr
          -246 -82 callsubr
          8 -262 hlineto
          3 -17 -19 0 -22 -51 callsubr
          11 hlineto
          -35 -1 -42 -39 -12 -2 callsubr
          -2 vhcurveto
          -26 -19 rlineto
          -66 8 73 -88 68 hhcurveto
          27 27 10 15 26 hvcurveto
          -15 24 27 -10 26 hhcurveto
          47 45 28 66 8 -22 callsubr
          -26 19 -3 -4 -5 -5 -9 -1 rlinecurve
          0 -1 15 15 vvcurveto
          -146 170 rmoveto
          0 -14 -19 -69 callsubr
          -9 -47 callsubr
          359 -60 85 188 -153 116 vlineto
          199 21 -103 -63 -87 -26 -117 -183 hvcurveto
          -107 31 hlineto
          -24 5 -32 12 -11 34 rrcurveto
          47 224 rmoveto
          -246 64 vlineto
          104 38 63 72 106 -93 5 -50 hvcurveto
          -130 -466 rmoveto
          -24 -26 -28 -10 -22 hhcurveto
          -38 -18 24 28 17 callgsubr
          11 63 6 51 52 vhcurveto
          hintmask 1010111111111000
          45 -15 40 -50 vhcurveto
          24 vlineto
          31 callsubr
          27 hvcurveto
          0 25 -4 callsubr
          13 -28 12 -6 27 -11 rrcurveto
          -52 vlineto
          -52 13 -51 64 10 26 callsubr
          -26 10 24 -26 hvcurveto
          170 379 rmoveto
          48 19 -9 -8 callsubr
          1 -8 -7 vvcurveto
          -81 -48 -21 -50 -4 vhcurveto
          130 vlineto
          endchar
        </CharString>
        <CharString name="U">
          19 callgsubr
          hstemhm
          22 -75 callgsubr
          21 -39 callsubr
          126 77 -15 78 hintmask 1111111110110100
          -99 callgsubr
          hintmask 1111111101111000
          -44 callgsubr
          -50 callgsubr
          3 -17 -19 0 -22 -95 callsubr
          33 4 25 -89 callgsubr
          -7 -28 callsubr
          hintmask 1111111101110100
          -331 -481 rmoveto
          -115 -133 37 114 hvcurveto
          10 vlineto
          43 -16 40 -49 vhcurveto
          -24 callsubr
          -7 callgsubr
          28 hvcurveto
          0 22 5 22 29 vhcurveto
          20 -29 26 -5 -57 callgsubr
          26 26 0 28 -74 callsubr
          -105 callsubr
          225 261 rmoveto
          -12 6 -13 -76 callsubr
          -25 hlineto
          -47 callgsubr
          -8 9 -9 -71 callsubr
          248 -85 vlineto
          hintmask 1111111101111000
          -62 -287 hlineto
          -10 -5 -8 -6 -21 callgsubr
          -376 hmoveto
          -84 callgsubr
          -25 hlineto
          -59 callgsubr
          -12 -74 callgsubr
          287 -9 callsubr
          vlineto
          hintmask 1111111110111000
          -72 callsubr
          endchar
        </CharString>
        <CharString name="Uacute">
          19 callgsubr
          23 5 callsubr
          22 -75 callgsubr
          21 -39 callsubr
          126 77 -15 78 hintmask 1111111111101101
          -99 callgsubr
          hintmask 1111111111011110
          -44 callgsubr
          -50 callgsubr
          3 -17 -19 0 -22 -95 callsubr
          33 4 25 -89 callgsubr
          -7 -28 callsubr
          hintmask 1111111111011101
          -331 -481 rmoveto
          -115 -133 37 114 hvcurveto
          10 vlineto
          43 -16 40 -49 vhcurveto
          -24 callsubr
          -7 callgsubr
          28 hvcurveto
          0 22 5 22 29 vhcurveto
          20 -29 26 -5 -57 callgsubr
          26 26 0 28 -74 callsubr
          -105 callsubr
          225 261 rmoveto
          -12 6 -13 -76 callsubr
          -25 hlineto
          -47 callgsubr
          -8 9 -9 -71 callsubr
          248 -85 vlineto
          hintmask 1111111111011110
          -62 -287 hlineto
          -10 -5 -8 -6 -21 callgsubr
          -376 hmoveto
          -84 callgsubr
          -25 hlineto
          -59 callgsubr
          -12 -74 callgsubr
          287 -9 callsubr
          vlineto
          hintmask 1111111111101110
          -72 callsubr
          235 444 -98 callgsubr
          endchar
        </CharString>
        <CharString name="Ucircumflex">
          19 callgsubr
          -28 112 132 27 hstemhm
          22 -75 callgsubr
          21 -39 callsubr
          126 77 -15 78 hintmask 1111110111101110
          475 883 rmoveto
          -97 callgsubr
          -124 hlineto
          -120 -186 47 -57 rlineto
          -206 -82 callsubr
          8 -50 callgsubr
          3 -17 -19 0 -22 -95 callsubr
          33 4 25 -89 callgsubr
          -7 -28 callsubr
          hintmask 1111110111011101
          -57 callsubr
          -108 hlineto
          -233 -682 rmoveto
          -115 -133 37 114 hvcurveto
          10 vlineto
          43 -16 40 -49 vhcurveto
          -24 callsubr
          -7 callgsubr
          28 hvcurveto
          0 22 5 22 29 vhcurveto
          20 -29 26 -5 -57 callgsubr
          26 26 0 28 -74 callsubr
          -105 callsubr
          225 261 rmoveto
          -12 6 -13 -76 callsubr
          -25 hlineto
          -47 callgsubr
          -8 9 -9 -71 callsubr
          248 -85 vlineto
          hintmask 1111110111011110
          -62 -287 hlineto
          -10 -5 -8 -6 -21 callgsubr
          -376 hmoveto
          -84 callgsubr
          -25 hlineto
          -59 callgsubr
          -12 -74 callgsubr
          287 -9 callsubr
          vlineto
          hintmask 1111110111101110
          -72 callsubr
          188 280 rmoveto
          -99 callsubr
          8 -50 callgsubr
          3 -17 -19 0 -24 -80 callsubr
          -10 -35 -24 -47 hhcurveto
          23 callgsubr
          -97 callgsubr
          -9 187 hlineto
          hintmask 1111110111011110
          60 141 hlineto
          -48 57 rlineto
          7 hlineto
          78 70 74 -67 rlineto
          -90 hlineto
          -75 216 rmoveto
          82 hlineto
          hintmask 1111101111101110
          12 callgsubr
        </CharString>
        <CharString name="Udieresis">
          19 callgsubr
          25 -3 callgsubr
          22 -39 callsubr
          61 27 38 -18 callgsubr
          -66 66 21 -39 callsubr
          51 67 8 77 -15 78 hintmask 111111111111001110100000
          -99 callgsubr
          hintmask 111111111110101111000000
          -44 callgsubr
          -50 callgsubr
          3 -17 -19 0 -22 -95 callsubr
          33 4 25 -89 callgsubr
          -7 -28 callsubr
          hintmask 111111111110101110100000
          -331 -481 rmoveto
          -115 -133 37 114 hvcurveto
          10 vlineto
          43 -16 40 -49 vhcurveto
          -24 callsubr
          -7 callgsubr
          28 hvcurveto
          0 22 5 22 29 vhcurveto
          20 -29 26 -5 -57 callgsubr
          26 26 0 28 -74 callsubr
          -105 callsubr
          225 261 rmoveto
          -12 6 -13 -76 callsubr
          -25 hlineto
          -47 callgsubr
          -8 9 -9 -71 callsubr
          248 -85 vlineto
          hintmask 111111111110101111000000
          -62 -287 hlineto
          -10 -5 -8 -6 -21 callgsubr
          -376 hmoveto
          -84 callgsubr
          -25 hlineto
          -59 callgsubr
          -12 -74 callgsubr
          287 -9 callsubr
          vlineto
          hintmask 111111111111001111000000
          -72 callsubr
          168 546 rmoveto
          63 -59 55 -64 -34 -49 -15 -43 vhcurveto
          -42 -94 callgsubr
          -123 29 rmoveto
          -73 callsubr
          14 -77 callsubr
          vhcurveto
          hintmask 111111111110011111000000
          31 25 -10 -35 hvcurveto
          -46 callgsubr
        </CharString>
        <CharString name="Ugrave">
          19 callgsubr
          23 -4 callgsubr
          22 -75 callgsubr
          21 -39 callsubr
          126 77 -15 78 hintmask 1111111011101101
          -99 callgsubr
          hintmask 1111111011011110
          -44 callgsubr
          -50 callgsubr
          3 -17 -19 0 -22 -95 callsubr
          33 4 25 -89 callgsubr
          -7 -28 callsubr
          hintmask 1111111011011101
          -331 -481 rmoveto
          -115 -133 37 114 hvcurveto
          10 vlineto
          43 -16 40 -49 vhcurveto
          -24 callsubr
          -7 callgsubr
          28 hvcurveto
          0 22 5 22 29 vhcurveto
          20 -29 26 -5 -57 callgsubr
          26 26 0 28 -74 callsubr
          -105 callsubr
          225 261 rmoveto
          -12 6 -13 -76 callsubr
          -25 hlineto
          -47 callgsubr
          -8 9 -9 -71 callsubr
          248 -85 vlineto
          hintmask 1111111011011110
          -62 -287 hlineto
          -10 -5 -8 -6 -21 callgsubr
          -376 hmoveto
          -84 callgsubr
          -25 hlineto
          -59 callgsubr
          -12 -74 callgsubr
          287 -9 callsubr
          vlineto
          hintmask 1111111011101110
          -72 callsubr
          243 444 rmoveto
          -10 160 -97 callgsubr
          -136 hlineto
          60 -160 -99 callsubr
          -29 86 rmoveto
          hintmask 1111110111101110
          -65 callsubr
        </CharString>
        <CharString name="V">
          -3 -60 85 -76 -21 358 26 -15 callsubr
          16 -1 callgsubr
          627 -42 callgsubr
          41 -187 rlineto
          -25 -78 callsubr
          27 29 -9 -38 24 hvcurveto
          -70 callgsubr
        </CharString>
        <CharString name="W">
          255 -72 85 -73 85 261 26 187 37 -37 -53 callgsubr
          hstemhm
          15 -11 callsubr
          343 -101 callsubr
        </CharString>
        <CharString name="X">
          93 -60 87 48 28 72 83 31 23 -15 callsubr
          12 135 -93 28 250 103 45 30 111 79 -15 78 hintmask 1111111011100000
          117 180 rmoveto
          -82 callgsubr
          -31 -19 rlineto
          -68 58 -86 73 26 30 10 15 27 vhcurveto
          -15 24 24 -10 25 hhcurveto
          49 50 28 66 20 -22 callsubr
          -24 19 rlineto
          41 13 38 21 39 hhcurveto
          24 19 -10 -8 callsubr
          3 -8 -15 vvcurveto
          -21 -7 -18 -26 -12 -2 callsubr
          -4 vhcurveto
          -24 -19 rlineto
          -66 20 70 -88 79 hhcurveto
          25 25 10 15 22 hvcurveto
          -15 28 29 -10 27 hhcurveto
          43 40 26 68 -22 callsubr
          -32 19 rlineto
          -5 -1 -7 -5 -11 hhcurveto
          -3 -4 14 15 26 12 22 42 hvcurveto
          -12 72 -97 callgsubr
          -53 -34 -5 -28 -19 hvcurveto
          -6 10 115 210 rlineto
          hintmask 1111110111010000
          -14 callsubr
          -305 -58 hlineto
          -48 58 rlineto
          -306 -82 callsubr
          51 hlineto
          83 -149 -28 -49 -4 -5 -12 -13 -10 -5 rlinecurve
          29 -20 -35 5 -53 1 callsubr
          432 109 rmoveto
          29 -54 -3 -8 -5 -5 -7 -4 rlinecurve
          34 -32 -52 4 -42 hhcurveto
          -42 -53 -4 -34 -34 hvcurveto
          -6 3 -4 8 -3 6 30 54 rcurveline
          -131 238 rlineto
          -59 85 250 -85 -64 hlineto
          104 -186 rlineto
          25 hlineto
          102 186 rlineto
          -64 85 250 -85 -60 hlineto
          -43 -526 rmoveto
          -24 -23 -24 -10 -21 hhcurveto
          -38 -24 24 28 -17 hvcurveto
          0 9 -4 10 44 12 26 33 80 -64 44 -62 -62 -64 -44 -80 -33 12 -26 44 10 8 4 0 -45 callsubr
          -21 -24 -39 hhcurveto
          -21 -23 10 24 -24 -20 callgsubr
          -32 -28 -10 -21 hhcurveto
          -36 -13 24 28 -7 hvcurveto
          0 4 -4 10 vhcurveto
          hintmask 1111111011100000
          -105 callgsubr
          -152 465 rmoveto
          -42 -83 -28 56 rlineto
          44 57 hlineto
          endchar
        </CharString>
        <CharString name="Y">
          -46 -76 callgsubr
          236 -53 callgsubr
          -25 callgsubr
          hintmask 1111111110100000
          169 312 rmoveto
          -106 callgsubr
          hintmask 1111111101100000
          -104 callgsubr
          -61 callsubr
          endchar
        </CharString>
        <CharString name="Yacute">
          -15 -76 callgsubr
          236 -53 callgsubr
          23 85 110 25 -25 callgsubr
          hintmask 1111111111101000
          169 312 rmoveto
          -106 callgsubr
          hintmask 1111111111011000
          -104 callgsubr
          -61 callsubr
          70 167 -98 callgsubr
          endchar
        </CharString>
        <CharString name="Ydieresis">
          -35 -76 callgsubr
          236 -53 callgsubr
          25 -3 callgsubr
          0 28 89 27 25 91 -4 67 -55 104 -29 29 8 79 -79 141 -39 67 62 78 hintmask 111111111101010110000000
          169 312 rmoveto
          -106 callgsubr
          hintmask 111111111101001010000000
          -104 callgsubr
          hintmask 111111111010110110000000
          -61 callsubr
          -23 269 rmoveto
          63 -59 55 -64 -34 -49 -15 -43 vhcurveto
          -42 -94 callgsubr
          -123 29 rmoveto
          -73 callsubr
          14 -68 callgsubr
          -46 callgsubr
        </CharString>
        <CharString name="Z">
          -28 -60 87 48 28 -2 28 -28 151 35 25 84 88 15 -53 callgsubr
          hstemhm
          33 140 -127 28 60 78 102 134 54 29 26 79 -51 78 hintmask 1100111101111100
          212 499 rmoveto
          75 hlineto
          -105 -197 rlineto
          9 -19 -27 1 -36 hhcurveto
          -11 -72 -99 callsubr
          -37 -1 -25 -40 -29 hhcurveto
          -11 -2 callsubr
          -1 hvcurveto
          hintmask 1001111110011010
          -32 -19 rlineto
          -78 91 -76 75 51 37 14 22 27 vhcurveto
          -20 28 37 -16 49 hhcurveto
          83 55 40 0 hvcurveto
          -17 17 41 -23 39 hhcurveto
          18 26 rlineto
          -15 10 -3 17 18 vvcurveto
          181 vlineto
          -97 callgsubr
          -115 -31 hlineto
          3 -11 1 -9 -9 vvcurveto
          hintmask 1010111110011100
          -42 -38 -21 -41 -20 -13 5 0 vhcurveto
          6 vlineto
          6 callgsubr
          hintmask 1001111101111100
          72 vlineto
          -12 14 133 233 rlineto
          67 -78 callgsubr
          -540 -244 hlineto
          -34 callgsubr
          hlineto
          26 -93 rmoveto
          0 -17 -19 -13 -6 vhcurveto
          -3 5 162 304 rlineto
          -233 -103 -60 188 483 -85 -57 hlineto
          -153 -276 -26 -2 -16 -7 -18 -24 rlinecurve
          -38 callgsubr
          46 24 26 0 25 -74 callsubr
          -48 -9 -42 -16 -78 56 -26 58 51 52 30 56 hvcurveto
          14 -5 11 12 vvcurveto
          hintmask 1100111110011010
          59 -142 hlineto
          -33 2 -12 6 -6 vhcurveto
          -97 callsubr
          9 -15 24 -15 17 -4 rrcurveto
          endchar
        </CharString>
        <CharString name="a">
          19 callsubr
          -59 callsubr
          hintmask 1111111010100000
          111 180 rmoveto
          -82 callgsubr
          -31 -19 rlineto
          -68 58 -86 73 26 30 10 15 27 vhcurveto
          -15 24 24 -10 25 hhcurveto
          49 50 28 66 20 -22 callsubr
          -24 19 rlineto
          41 13 38 21 39 hhcurveto
          24 19 -10 -8 callsubr
          3 -8 -15 vvcurveto
          -21 -7 -18 -26 -12 -2 callsubr
          -4 vhcurveto
          -24 -19 rlineto
          -66 20 70 -88 79 hhcurveto
          25 25 10 15 22 hvcurveto
          -15 28 29 -10 27 hhcurveto
          43 40 26 68 -22 callsubr
          -32 19 rlineto
          -5 -1 -7 -5 -11 hhcurveto
          -3 -4 14 15 26 12 22 42 hvcurveto
          -12 72 -97 callgsubr
          -10 -9 0 -1 -9 hvcurveto
          -37 190 rlineto
          hintmask 1111110111000000
          52 139 hlineto
          -97 callgsubr
          -490 4 callgsubr
          -107 callsubr
          hintmask 1111111010100000
          -105 callgsubr
          -295 279 -68 callsubr
          69 -105 -7 callsubr
        </CharString>
        <CharString name="aacute">
          88 18 callsubr
          85 110 25 -59 callsubr
          hintmask 1111111110101000
          111 180 rmoveto
          -82 callgsubr
          -31 -19 rlineto
          -68 58 -86 73 26 30 10 15 27 vhcurveto
          -15 24 24 -10 25 hhcurveto
          49 50 28 66 20 -22 callsubr
          -24 19 rlineto
          41 13 38 21 39 hhcurveto
          24 19 -10 -8 callsubr
          3 -8 -15 vvcurveto
          -21 -7 -18 -26 -12 -2 callsubr
          -4 vhcurveto
          -24 -19 rlineto
          -66 20 70 -88 79 hhcurveto
          25 25 10 15 22 hvcurveto
          -15 28 29 -10 27 hhcurveto
          43 40 26 68 -22 callsubr
          -32 19 rlineto
          -5 -1 -7 -5 -11 hhcurveto
          -3 -4 14 15 26 12 22 42 hvcurveto
          -12 72 -97 callgsubr
          -10 -9 0 -1 -9 hvcurveto
          -37 190 rlineto
          hintmask 1111111101110000
          52 139 hlineto
          -97 callgsubr
          -490 4 callgsubr
          -107 callsubr
          hintmask 1111111110101000
          -105 callgsubr
          -295 279 -68 callsubr
          69 -105 -52 callgsubr
          75 357 -98 callgsubr
          endchar
        </CharString>
        <CharString name="acircumflex">
          83 -81 callsubr
          -28 112 132 27 -59 callsubr
          hintmask 1111110101110000
          490 883 rmoveto
          -97 callgsubr
          -124 hlineto
          -120 -186 47 -57 rlineto
          -110 -92 callgsubr
          53 -60 rlineto
          -82 callgsubr
          hintmask 1111110110101000
          -31 -19 rlineto
          -68 58 -86 73 26 30 10 15 27 vhcurveto
          -15 24 24 -10 25 hhcurveto
          49 50 28 66 20 -22 callsubr
          -24 19 rlineto
          41 13 38 21 39 hhcurveto
          24 19 -10 -8 callsubr
          3 -8 -15 vvcurveto
          -21 -7 -18 -26 -12 -2 callsubr
          -4 vhcurveto
          -24 -19 rlineto
          -66 20 70 -88 79 hhcurveto
          25 25 10 15 22 hvcurveto
          -15 28 29 -10 27 hhcurveto
          43 40 26 68 -22 callsubr
          -32 19 rlineto
          -5 -1 -7 -5 -11 hhcurveto
          -3 -4 14 15 26 12 22 42 hvcurveto
          -12 72 -97 callgsubr
          -10 -9 0 -1 -9 hvcurveto
          -37 190 rlineto
          hintmask 1111110101110000
          52 139 hlineto
          -97 callgsubr
          -15 hlineto
          -70 -110 rmoveto
          -107 callsubr
          hintmask 1111101110101000
          -105 callgsubr
          -295 279 -68 callsubr
          -4 326 rmoveto
          82 hlineto
          -83 callsubr
          182 -17 rmoveto
          hintmask 1111110110110000
          74 -67 rlineto
          -149 hlineto
          57 -215 -7 callsubr
        </CharString>
        <CharString name="acute">
          -479 523 1 callgsubr
          hstem
          186 523 -98 callgsubr
          endchar
        </CharString>
        <CharString name="adieresis">
          77 -81 callsubr
          25 87 104 27 -22 callgsubr
          26 -2 callgsubr
          20 27 34 30 48 67 -24 78 -58 79 hintmask 111111111011110010000000
          111 180 rmoveto
          -82 callgsubr
          -31 -19 rlineto
          -68 58 -86 73 26 30 10 15 27 vhcurveto
          -15 24 24 -10 25 hhcurveto
          49 50 28 66 20 -22 callsubr
          -24 19 rlineto
          41 13 38 21 39 hhcurveto
          24 19 -10 -8 callsubr
          3 -8 -15 vvcurveto
          -21 -7 -18 -26 -12 -2 callsubr
          -4 vhcurveto
          -24 -19 rlineto
          -66 20 70 -88 79 hhcurveto
          25 25 10 15 22 hvcurveto
          -15 28 29 -10 27 hhcurveto
          43 40 26 68 -22 callsubr
          -32 19 rlineto
          -5 -1 -7 -5 -11 hhcurveto
          -3 -4 14 15 26 12 22 42 hvcurveto
          -12 72 -97 callgsubr
          -10 -9 0 -1 -9 hvcurveto
          -37 190 rlineto
          hintmask 111111110111110100000000
          52 139 hlineto
          -97 callgsubr
          -490 4 callgsubr
          -107 callsubr
          hintmask 111111111011110010000000
          -105 callgsubr
          -295 279 -68 callsubr
          69 -105 -52 callgsubr
          9 459 rmoveto
          63 -59 55 -64 -34 -49 -15 -43 vhcurveto
          -42 -94 callgsubr
          -123 29 rmoveto
          -73 callsubr
          14 -68 callgsubr
          -14 -85 callgsubr
          hintmask 111111111011111000000000
          349 13 rmoveto
          63 -59 55 -64 -34 -49 -15 -43 vhcurveto
          -42 -94 callgsubr
          -123 29 rmoveto
          -73 callsubr
          14 -68 callgsubr
          -14 -85 callgsubr
          endchar
        </CharString>
        <CharString name="ae">
          262 -60 87 48 28 -1 29 44 83 -35 35 7 176 -152 27 -27 64 -13 247 -191 88 -71 28 58 -53 callgsubr
          hstemhm
          5 135 -8 28 276 30 7 30 89 80 -80 137 -14 78 -10 27 57 78 hintmask 101101000001110110101100
          718 -60 rmoveto
          81 45 -66 callgsubr
          -41 -39 -20 -39 -19 -15 14 callsubr
          hintmask 110101000001110111010100
          -70 callsubr
          hintmask 110100100101101111010100
          -34 callgsubr
          244 hlineto
          -97 callgsubr
          -763 -92 callgsubr
          -99 callsubr
          -37 -2 -24 -40 -28 hhcurveto
          -10 -6 5 5 -1 hvcurveto
          hintmask 110100100101110111010100
          -31 -19 rlineto
          -68 58 -86 73 26 30 10 15 27 vhcurveto
          -15 24 24 -10 25 hhcurveto
          49 50 28 66 20 -22 callsubr
          -24 19 rlineto
          39 12 40 23 38 hhcurveto
          25 18 -10 -8 callsubr
          3 -11 -12 vvcurveto
          -21 -7 -18 -26 -12 -2 callsubr
          -4 vhcurveto
          -24 -19 rlineto
          -66 20 70 -88 79 hhcurveto
          25 25 10 15 22 hvcurveto
          -15 28 29 -10 27 hhcurveto
          149 732 rmoveto
          -188 -60 vlineto
          hintmask 110100101000110111010100
          103 -215 vlineto
          hintmask 110100010011110111010100
          20 callsubr
          -8 -10 rrcurveto
          -10 6 -10 -76 callsubr
          -24 hlineto
          0 -8 -20 callsubr
          hintmask 110010101000101111010100
          34 -32 -52 4 -42 hhcurveto
          -42 -53 -4 -34 -34 hvcurveto
          -9 6 -8 19 0 vvcurveto
          -26 hlineto
          0 -16 -19 -33 callgsubr
          -5 7 -6 5 -7 5 58 295 rcurveline
          -57 82 hlineto
          504 -645 rmoveto
          -22 -30 10 24 -31 -20 callgsubr
          -23 -24 -10 -21 hhcurveto
          -38 -24 24 28 -17 hvcurveto
          0 9 -4 10 44 12 26 33 80 -64 44 -62 -62 -64 -44 -80 -33 12 -26 44 10 8 4 0 -45 callsubr
          -21 -24 -39 hhcurveto
          -21 -23 10 24 -24 -20 callgsubr
          -32 -28 -10 -21 hhcurveto
          -36 -13 24 28 -7 hvcurveto
          0 4 -4 10 vhcurveto
          hintmask 101010101000110111001100
          52 38 64 53 34 -16 31 -39 6 hvcurveto
          4 24 rlineto
          9 callsubr
          20 hvcurveto
          0 24 4 26 30 vhcurveto
          16 -30 23 -46 callsubr
          46 35 58 2 32 hhcurveto
          32 56 -2 -46 37 hvcurveto
          0 18 3 15 25 vhcurveto
          20 -24 19 -4 18 callgsubr
          -81 callgsubr
          hvcurveto
          61 -140 hlineto
          -33 2 -11 7 -8 vhcurveto
          -24 5 -47 30 -10 10 -4 -3 rcurveline
          -15 -19 -40 -31 -67 hhcurveto
          -198 313 rmoveto
          247 -126 vlineto
          -54 -247 rlineto
          150 26 rmoveto
          -53 hlineto
          hintmask 110101000001110111010100
          29 133 rlineto
          24 hlineto
          endchar
        </CharString>
        <CharString name="agrave">
          91 18 callsubr
          220 -25 25 -59 callsubr
          hintmask 1111111010101000
          111 180 rmoveto
          -82 callgsubr
          -31 -19 rlineto
          -68 58 -86 73 26 30 10 15 27 vhcurveto
          -15 24 24 -10 25 hhcurveto
          49 50 28 66 20 -22 callsubr
          -24 19 rlineto
          41 13 38 21 39 hhcurveto
          24 19 -10 -8 callsubr
          3 -8 -15 vvcurveto
          -21 -7 -18 -26 -12 -2 callsubr
          -4 vhcurveto
          -24 -19 rlineto
          -66 20 70 -88 79 hhcurveto
          25 25 10 15 22 hvcurveto
          -15 28 29 -10 27 hhcurveto
          43 40 26 68 -22 callsubr
          -32 19 rlineto
          -5 -1 -7 -5 -11 hhcurveto
          -3 -4 14 15 26 12 22 42 hvcurveto
          -12 72 -97 callgsubr
          -10 -9 0 -1 -9 hvcurveto
          -37 190 rlineto
          hintmask 1111111001110000
          52 139 hlineto
          -97 callgsubr
          -490 4 callgsubr
          -107 callsubr
          hintmask 1111111010101000
          -105 callgsubr
          -295 279 -68 callsubr
          69 -105 -52 callgsubr
          117 357 rmoveto
          -10 160 -97 callgsubr
          -136 hlineto
          60 -160 -99 callsubr
          -29 86 rmoveto
          hintmask 1111110110110000
          -65 callsubr
        </CharString>
        <CharString name="ampersand">
          30 -72 89 -77 77 58 237 -222 29 -29 222 374 26 hstemhm
          81 28 5 28 110 129 108 78 hintmask 1001011111000000
          332 165 rmoveto
          -17 10 4 15 5 15 9 12 rlinecurve
          76 -82 rlineto
          -10 -15 -19 -6 -23 hhcurveto
          -21 -16 6 -8 callsubr
          -1 3 6 vvcurveto
          -18 306 rmoveto
          53 26 32 28 43 vvcurveto
          55 -31 20 -33 -37 -28 -27 -34 -36 18 -40 26 -35 vhcurveto
          271 32 rmoveto
          159 -116 81 -134 -115 -88 -66 -95 -44 19 -51 44 -53 vhcurveto
          -29 -23 -34 -40 -14 -36 rrcurveto
          hintmask 1000111111000000
          8 -21 -26 0 -33 -51 callsubr
          11 hlineto
          -162 7 126 -90 168 hhcurveto
          104 51 25 26 35 hvcurveto
          hintmask 0101011111000000
          -22 31 30 -17 31 hhcurveto
          55 32 -89 callsubr
          -27 18 rlineto
          -8 -5 -5 -5 -8 hhcurveto
          3 9 3 11 11 vvcurveto
          59 vlineto
          25 3 15 15 44 hhcurveto
          72 vlineto
          -97 callgsubr
          -54 -34 0 -34 -27 hvcurveto
          -11 6 -14 19 0 vvcurveto
          -24 hlineto
          31 35 17 41 43 vvcurveto
          -67 -414 rmoveto
          -22 -28 -56 -19 -84 hhcurveto
          -145 -78 50 122 hvcurveto
          6 vlineto
          31 -2 -15 37 -46 hhcurveto
          24 vlineto
          31 callsubr
          27 hvcurveto
          0 35 -4 callsubr
          13 -28 25 -21 27 -11 -12 -21 rcurveline
          -61 3 46 -43 67 hhcurveto
          33 26 10 17 21 hvcurveto
          20 17 -169 184 -32 -28 -7 -22 -4 -20 rlinecurve
          -22 14 -9 20 -6 21 rrcurveto
          -33 hlineto
          0 -18 -25 -15 -2 vhcurveto
          -13 13 16 34 22 36 39 28 rlinecurve
          14 10 rlineto
          -47 53 -26 52 45 vvcurveto
          81 71 58 104 99 73 -47 -107 -57 -39 -64 -94 -45 vhcurveto
          137 -155 rlineto
          1 -1 2 24 37 vvcurveto
          19 vlineto
          16 8 10 6 10 21 rrcurveto
          22 -30 23 -23 callsubr
          -43 -15 -29 -37 -4 hvcurveto
          -50 vlineto
          0 -5 -41 -19 -25 vhcurveto
          hintmask 1010011111000000
          -26 26 32 -30 32 hhcurveto
          6 6 2 2 6 hvcurveto
          -2 -5 rlineto
          -24 -11 -11 -23 -39 hhcurveto
          -27 -34 20 27 -34 hvcurveto
          endchar
        </CharString>
        <CharString name="aring">
          80 -17 callsubr
          100 -69 69 -30 30 91 78 -58 79 hintmask 111111101010100010100000
          111 180 rmoveto
          -82 callgsubr
          -31 -19 rlineto
          -68 58 -86 73 26 30 10 15 27 vhcurveto
          -15 24 24 -10 25 hhcurveto
          49 50 28 66 20 -22 callsubr
          -24 19 rlineto
          41 13 38 21 39 hhcurveto
          24 19 -10 -8 callsubr
          3 -8 -15 vvcurveto
          -21 -7 -18 -26 -12 -2 callsubr
          -4 vhcurveto
          -24 -19 rlineto
          -66 20 70 -88 79 hhcurveto
          25 25 10 15 22 hvcurveto
          -15 28 29 -10 27 hhcurveto
          43 40 26 68 -22 callsubr
          -32 19 rlineto
          -5 -1 -7 -5 -11 hhcurveto
          -3 -4 14 15 26 12 22 42 hvcurveto
          -12 72 -97 callgsubr
          -10 -9 0 -1 -9 hvcurveto
          -37 190 rlineto
          hintmask 111111101001101001000000
          52 139 hlineto
          -97 callgsubr
          -490 4 callgsubr
          -107 callsubr
          hintmask 111111100110100100100000
          -105 callgsubr
          -301 792 -16 callsubr
          6 -513 -68 callsubr
          -34 263 rmoveto
          -12 callgsubr
          hintmask 111111011010011001000000
          29 -16 callgsubr
          74 -368 -7 callsubr
        </CharString>
        <CharString name="asciicircum">
          -267 453 87 132 27 hstem
          305 639 -37 callsubr
        </CharString>
        <CharString name="asciitilde">
          -267 165 88 -44 -30 callsubr
          30 25 291 75 hintmask 10011110
          55 357 -66 callsubr
        </CharString>
        <CharString name="asterisk">
          -244 131 88 304 28 hstem
          404 332 rmoveto
          46 15 -63 109 -50 60 -19 -16 -39 51 rlineto
          -129 hlineto
          21 -105 -81 70 -63 -109 47 -56 -47 -16 63 -109 50 -60 17 15 43 -50 rlineto
          126 hlineto
          -22 105 83 -70 63 109 rlineto
          -183 100 rmoveto
          -8 vlineto
          95 -42 -35 -60 -84 64 -10 -5 15 -105 rlineto
          -70 hlineto
          15 105 -9 5 -84 -64 -35 60 94 42 rlineto
          8 vlineto
          -94 42 35 60 84 -64 9 5 -15 105 rlineto
          70 hlineto
          -15 -105 10 -5 84 64 35 -60 rlineto
          endchar
        </CharString>
        <CharString name="at">
          149 -72 88 39 86 -65 28 10 27 -27 88 57 184 55 27 11 88 60 28 hstemhm
          56 28 60 78 30 28 60 78 0 77 -20 20 50 76 43 28 60 78 hintmask 101101111111101111000000
          252 343 rmoveto
          -137 96 -92 96 26 28 16 0 vhcurveto
          hintmask 110001111111010111000000
          -42 30 51 -33 66 hhcurveto
          125 60 105 130 220 -202 202 -210 -200 -162 -162 -200 -210 162 -212 250 hvcurveto
          27 116 hlineto
          hintmask 101101111111101111000000
          -97 callgsubr
          -27 hlineto
          -126 -70 60 126 58 20 54 34 42 hvcurveto
          -15 -29 -9 -35 -37 vvcurveto
          166 -327 rmoveto
          -214 -120 150 184 184 150 150 184 184 150 -150 -184 hvcurveto
          hintmask 110001111111101111000000
          -95 -51 -114 -110 -64 -23 26 44 -10 vhcurveto
          39 vlineto
          hintmask 101011111111101111000000
          -23 -25 -32 -25 -43 hhcurveto
          -29 -85 14 127 102 63 53 51 42 33 -22 -25 25 hvcurveto
          46 51 -257 vlineto
          -30 11 -23 36 76 24 108 55 151 -123 123 -151 -151 -123 -123 -151 -151 103 -123 171 vhcurveto
          -78 266 rmoveto
          -58 30 -25 37 44 47 44 44 76 -37 20 -39 -48 -34 -36 -65 vhcurveto
          281 -120 rmoveto
          243 vlineto
          -31 37 rlineto
          45 -30 29 -50 -72 vvcurveto
          -32 -11 -69 -32 -27 vhcurveto
          -203 63 rmoveto
          51 1 22 22 26 hhcurveto
          8 -6 hlineto
          -26 -29 -34 -28 -7 vhcurveto
          51 212 rmoveto
          -23 21 -27 7 -21 1 rrcurveto
          6 22 23 4 25 hhcurveto
          26 25 -4 -7 23 hvcurveto
          -73 hlineto
          endchar
        </CharString>
        <CharString name="atilde">
          80 -81 callsubr
          40 -30 callsubr
          6 135 -8 28 46 25 242 30 19 75 -3 78 -58 79 hintmask 111111101110111010000000
          111 180 rmoveto
          -82 callgsubr
          -31 -19 rlineto
          -68 58 -86 73 26 30 10 15 27 vhcurveto
          -15 24 24 -10 25 hhcurveto
          49 50 28 66 20 -22 callsubr
          -24 19 rlineto
          41 13 38 21 39 hhcurveto
          24 19 -10 -8 callsubr
          3 -8 -15 vvcurveto
          -21 -7 -18 -26 -12 -2 callsubr
          -4 vhcurveto
          -24 -19 rlineto
          -66 20 70 -88 79 hhcurveto
          25 25 10 15 22 hvcurveto
          -15 28 29 -10 27 hhcurveto
          43 40 26 68 -22 callsubr
          -32 19 rlineto
          -5 -1 -7 -5 -11 hhcurveto
          -3 -4 14 15 26 12 22 42 hvcurveto
          -12 72 -97 callgsubr
          -10 -9 0 -1 -9 hvcurveto
          -37 190 rlineto
          hintmask 111111101110110100000000
          52 139 hlineto
          -97 callgsubr
          -108 hlineto
          hintmask 111111101101111010000000
          41 11 42 29 0 vvcurveto
          -83 callgsubr
          47 -66 rlineto
          -121 4 callgsubr
          hintmask 111111101101110100000000
          -107 callsubr
          hintmask 111111101110111010000000
          -105 callgsubr
          -295 279 -68 callsubr
          -109 298 -87 callsubr
          hintmask 111111011110111010000000
          -67 -25 44 -40 hhcurveto
          -25 -29 -15 -13 -20 hvcurveto
          124 -60 rmoveto
          32 23 -29 -11 43 hvcurveto
          -192 hlineto
          10 15 44 30 35 hhcurveto
          54 -255 -7 callsubr
        </CharString>
        <CharString name="b">
          17 -60 89 48 28 -3 29 48 -8 callgsubr
          -26 69 52 27 66 87 85 28 hstemhm
          40 28 33 30 122 81 -81 -3 callsubr
          194 -194 233 93 78 -45 78 -78 140 hintmask 110110111111000100000000
          620 340 rmoveto
          27 37 10 45 36 vvcurveto
          164 -106 78 -149 vhcurveto
          -362 -82 callsubr
          11 -36 callsubr
          hintmask 110110111111000010000000
          121 149 23 145 hvcurveto
          hintmask 110110111111000001000000
          46 5 25 57 -91 callsubr
          -22 -19 0 -2 -16 hvcurveto
          -7 9 -8 10 -10 11 rrcurveto
          hintmask 101101111110001100000000
          -245 15 rmoveto
          -119 -52 hlineto
          -12 -5 -10 -8 -9 -11 rrcurveto
          -63 callsubr
          -26 hlineto
          0 -12 -18 -45 callgsubr
          -7 8 -7 7 -8 4 rrcurveto
          289 -63 85 324 vlineto
          116 71 -42 -113 -42 -11 -46 -45 -41 hvcurveto
          52 -32 21 -32 11 -27 -7 -5 -6 -5 -6 -8 rrcurveto
          -12 6 -11 -76 callsubr
          -27 -26 callgsubr
          -13 16 -14 8 -18 4 rrcurveto
          33 -16 -30 15 -49 hhcurveto
          -5 -253 rmoveto
          69 47 28 75 16 -11 41 -54 callgsubr
          29 24 0 -45 27 hvcurveto
          0 25 6 callsubr
          23 -5 -57 callgsubr
          -6 callgsubr
          hintmask 110110111110010010000000
          -50 -14 -40 -53 -114 -127 -26 -115 -103 -31 16 28 -32 hvcurveto
          -8 hlineto
          -27 -25 -21 -19 -34 hhcurveto
          -42 -19 26 26 -12 hvcurveto
          0 6 -2 11 63 5 50 52 43 -13 40 -51 vhcurveto
          24 vlineto
          -36 callgsubr
          -45 27 hvcurveto
          0 22 6 callsubr
          24 -5 -57 callgsubr
          -55 callgsubr
          26 callgsubr
          hintmask 101110111110010100000000
          -75 49 -28 68 vhcurveto
          -37 305 rmoveto
          61 53 18 74 65 -23 23 -91 hvcurveto
          -77 -180 hlineto
          200 -228 rmoveto
          -33 -9 -30 -15 -47 hhcurveto
          -22 -16 -40 callsubr
          5 vlineto
          hintmask 110110111110100100000000
          36 35 16 callsubr
          -14 16 rlineto
          22 -29 hlineto
          -99 callsubr
          hintmask 110110111111000100000000
          -115 321 rmoveto
          49 hlineto
          35 1 -2 0 -22 0 -42 -85 hvcurveto
          endchar
        </CharString>
        <CharString name="backslash">
          -316 23 callsubr
          369 -60 rmoveto
          -105 699 -97 callgsubr
          -163 hlineto
          105 -699 -99 callsubr
          -21 87 rmoveto
          -97 645 rlineto
          97 hlineto
          96 -645 rlineto
          endchar
        </CharString>
        <CharString name="bar">
          -310 -60 87 674 27 hstem
          116 30 100 80 vstem
          326 -60 rmoveto
          728 vlineto
          -97 callgsubr
          -160 -728 -53 callsubr
          674 100 -674 vlineto
          endchar
        </CharString>
        <CharString name="braceleft">
          -393 -44 -21 774 -20 hstem
          67 28 55 78 vstem
          19 342 rmoveto
          38 -20 16 -37 -43 -19 -6 -18 -21 vvcurveto
          -98 118 -102 103 -49 vhcurveto
          34 39 rlineto
          -47 46 -47 35 65 26 8 26 30 vvcurveto
          35 -8 32 -24 23 vhcurveto
          24 23 8 32 35 27 -8 26 29 vvcurveto
          65 47 35 47 46 vhcurveto
          -84 99 rlineto
          -78 -39 -93 -56 -90 -20 6 -19 -23 vvcurveto
          -43 -16 -37 -38 -20 vhcurveto
          30 -10 rmoveto
          34 15 17 51 49 17 -5 17 19 vvcurveto
          89 100 51 36 16 vhcurveto
          5 -6 rlineto
          -24 -19 -62 -54 -73 -27 9 -25 -30 vvcurveto
          -30 -7 -31 -26 -29 vhcurveto
          26 -29 7 -31 -30 -26 -9 -24 -32 vvcurveto
          -73 62 -54 24 -19 vhcurveto
          -5 -6 rlineto
          -36 16 -100 51 89 16 5 16 21 vvcurveto
          49 -17 51 -34 15 vhcurveto
          endchar
        </CharString>
        <CharString name="braceright">
          -357 -34 -21 764 -20 hstem
          141 28 55 78 vstem
          270 352 rmoveto
          -34 -15 -17 -51 -49 -17 5 -17 -19 vvcurveto
          -89 -100 -51 -36 -16 vhcurveto
          -5 6 rlineto
          24 19 62 54 73 27 -9 25 30 vvcurveto
          30 7 31 26 29 vhcurveto
          -26 29 -7 31 30 26 9 24 32 vvcurveto
          73 -62 54 -24 19 vhcurveto
          5 6 rlineto
          36 -16 100 -51 -89 -16 -5 -16 -21 vvcurveto
          -49 17 -51 34 -15 vhcurveto
          39 1 rmoveto
          -9 16 -4 21 21 18 6 18 20 vvcurveto
          99 -141 103 -80 40 vhcurveto
          -34 -39 rlineto
          47 -46 47 -35 -65 -26 -8 -26 -30 vvcurveto
          -35 8 -32 24 -23 vhcurveto
          -24 -23 -8 -32 -35 -27 8 -26 -29 vvcurveto
          -65 -47 -35 -47 -46 vhcurveto
          34 -39 50 -50 rlineto
          78 39 93 56 90 20 -6 19 23 vvcurveto
          43 16 37 38 20 vhcurveto
          20 vlineto
          endchar
        </CharString>
        <CharString name="bracketleft">
          -375 -72 87 523 87 60 27 hstem
          71 28 74 78 13 80 vstem
          71 712 rmoveto
          -724 vlineto
          -99 callsubr
          223 114 hlineto
          -97 callgsubr
          -43 436 93 114 hlineto
          -97 callgsubr
          -195 -27 rmoveto
          165 -60 -91 -550 91 -60 -165 hlineto
          endchar
        </CharString>
        <CharString name="bracketright">
          -369 -72 87 60 27 583 27 hstem
          33 30 63 28 74 78 vstem
          33 712 rmoveto
          -114 vlineto
          -99 callsubr
          43 -436 -93 -114 hlineto
          -99 callsubr
          223 724 hlineto
          -97 callgsubr
          -28 -697 rmoveto
          -165 60 91 550 -91 60 165 hlineto
          endchar
        </CharString>
        <CharString name="breve">
          -267 497 87 62 27 43 27 hstem
          240 497 rmoveto
          182 0 186 0 hvcurveto
          -97 callgsubr
          -104 hlineto
          -9 -2 -61 -76 vhcurveto
          -27 hlineto
          0 -1 3 7 vvcurveto
          -60 60 rlineto
          -94 hlineto
          0 30 -246 202 vhcurveto
          -50 149 rmoveto
          6 hlineto
          84 10 70 0 hvcurveto
          52 hlineto
          0 -14 -132 -138 -138 -14 132 0 vhcurveto
          52 hlineto
          0 10 -70 84 vhcurveto
          endchar
        </CharString>
        <CharString name="brokenbar">
          -321 -60 87 254 27 52 87 254 27 hstem
          108 30 100 80 vstem
          318 -60 0 callgsubr
          80 333 0 callgsubr
          endchar
        </CharString>
        <CharString name="bullet">
          -281 145 86 -86 112 188 51 -26 26 hstemhm
          72 26 -26 48 191 102 -76 76 hintmask 01101010
          72 350 -41 callsubr
          hintmask 01100110
          -21 callsubr
          hintmask 10011001
          -22 -40 callgsubr
          endchar
        </CharString>
        <CharString name="c">
          -4 21 callgsubr
          29 hstemhm
          10 89 -28 28 138 78 -78 125 54 40 126 78 -78 140 hintmask 1111111100110100
          661 118 rmoveto
          36 4 26 57 -15 callgsubr
          -54 -33 0 -34 -27 hvcurveto
          -11 6 -13 19 0 vvcurveto
          -26 hlineto
          0 -13 -19 -45 callgsubr
          34 -27 -33 0 -54 -51 callsubr
          7 hlineto
          -35 -8 -30 -18 -48 hhcurveto
          -22 -16 5 0 hvcurveto
          8 vlineto
          37 35 29 callgsubr
          72 vlineto
          hintmask 1111111011011000
          -86 callgsubr
          50 -60 rlineto
          -49 callsubr
          hintmask 1111111101011000
          3 -18 -20 0 -23 -51 callsubr
          hintmask 1111111011011000
          -103 callsubr
          endchar
        </CharString>
        <CharString name="caron">
          -291 497 87 132 27 hstem
          185 497 rmoveto
          124 hlineto
          120 186 -97 callgsubr
          -104 hlineto
          -78 -70 -78 70 rlineto
          -104 hlineto
          120 -186 rlineto
          103 27 rmoveto
          -82 hlineto
          -91 132 rlineto
          42 hlineto
          81 -70 rlineto
          18 hlineto
          81 70 rlineto
          42 hlineto
          endchar
        </CharString>
        <CharString name="ccaron">
          2 21 callgsubr
          28 -28 101 132 27 hstemhm
          10 89 -28 28 138 78 -78 125 54 40 126 79 -79 140 hintmask 1111111011010110
          661 118 rmoveto
          hintmask 1111111011001101
          36 4 26 57 -15 callgsubr
          -54 -33 0 -34 -27 hvcurveto
          -11 6 -13 19 0 vvcurveto
          -26 hlineto
          0 -13 -19 -45 callgsubr
          34 -27 -33 0 -54 -51 callsubr
          7 hlineto
          -35 -8 -30 -18 -48 hhcurveto
          -22 -16 5 0 hvcurveto
          8 vlineto
          37 35 29 callgsubr
          72 vlineto
          hintmask 1111111010110110
          -86 callgsubr
          50 -60 rlineto
          194 101 hlineto
          133 -92 70 -114 26 vhcurveto
          118 183 -97 callgsubr
          -104 hlineto
          -78 -70 -78 70 rlineto
          -104 hlineto
          120 -186 38 -46 rlineto
          -115 -4 -130 -39 -137 vvcurveto
          -222 vlineto
          hintmask 1111111011010110
          3 -18 -20 0 -23 -51 callsubr
          hintmask 1111110110110110
          -103 callsubr
          -201 606 rmoveto
          -82 hlineto
          -91 132 rlineto
          42 hlineto
          81 -70 rlineto
          18 hlineto
          81 70 rlineto
          42 hlineto
          endchar
        </CharString>
        <CharString name="ccedilla">
          2 -299 84 -84 205 40 181 -28 -5 callgsubr
          29 hstemhm
          10 90 -29 29 126 136 -125 42 -42 78 -78 102 53 77 -53 40 126 78 -78 140 hintmask 101011111010001101000000
          466 370 rmoveto
          -49 callsubr
          hintmask 101011111101000101000000
          3 -18 -20 0 -23 -51 callsubr
          hintmask 100111111011000100100000
          11 -12 hlineto
          -123 82 -69 101 -29 vhcurveto
          -1 -7 0 -7 -8 vvcurveto
          -44 vlineto
          35 -41 rlineto
          -5 -10 -11 -1 -9 hhcurveto
          -10 -73 hlineto
          -99 callsubr
          48 hlineto
          83 40 45 98 hvcurveto
          19 vlineto
          8 -1 7 -2 5 vhcurveto
          -5 19 -10 16 -12 12 rrcurveto
          108 9 114 42 127 vvcurveto
          10 vlineto
          36 4 26 57 -15 callgsubr
          -54 -33 0 -34 -27 hvcurveto
          -11 6 -13 19 0 vvcurveto
          -26 hlineto
          0 -13 -19 -45 callgsubr
          34 -27 -33 0 -54 -51 callsubr
          7 hlineto
          -35 -8 -30 -18 -48 hhcurveto
          -22 -16 5 0 hvcurveto
          8 vlineto
          37 35 29 callgsubr
          72 vlineto
          hintmask 101011111100010011000000
          -86 callgsubr
          -125 -412 rmoveto
          -98 10 -93 42 99 vvcurveto
          9 vlineto
          45 -15 40 -50 vhcurveto
          24 vlineto
          -36 callgsubr
          -46 27 hvcurveto
          0 22 4 22 0 callsubr
          24 -46 callsubr
          46 28 25 0 27 -74 callsubr
          hintmask 100111111101000011000000
          -39 callgsubr
          -98 -92 -42 -96 -11 vhcurveto
          -9 -1 rlineto
          hintmask 101011111100001101000000
          -45 -18 -31 -40 -3 hvcurveto
          29 hlineto
          31 13 -2 -35 hvcurveto
          -6 vlineto
          -117 -66 -1 -45 vhcurveto
          -8 25 hlineto
          45 21 37 34 hvcurveto
          hintmask 011011111100001101000000
          25 vlineto
          hintmask 011011111100100101000000
          -60 19 hlineto
          46 13 28 19 17 vhcurveto
          -212 513 rmoveto
          hintmask 101011111100001101000000
          117 126 37 114 117 126 28 callsubr
          -71 -137 45 vlineto
          71 -40 37 -66 -63 -39 -37 -71 vhcurveto
          -198 vlineto
          -15 -5 -13 -8 -11 -14 rrcurveto
          -12 6 -12 19 0 vvcurveto
          -26 hlineto
          0 -14 -19 -10 -74 callgsubr
          endchar
        </CharString>
        <CharString name="cedilla">
          -481 -299 84 -84 205 40 71 8 -20 hstemhm
          23 26 -26 86 53 77 hintmask 10011010
          56 18 rmoveto
          -16 -21 -17 -27 -45 vvcurveto
          -44 vlineto
          35 -41 rlineto
          -5 -10 -11 -1 -9 hhcurveto
          -10 -73 hlineto
          -99 callsubr
          48 hlineto
          83 40 45 98 hvcurveto
          19 vlineto
          8 -1 7 -2 5 vhcurveto
          -5 20 -12 17 -13 13 rrcurveto
          24 73 hlineto
          -21 19 rlineto
          hintmask 10100110
          0 -43 -8 -11 -45 -18 -31 -40 -3 vhcurveto
          29 hlineto
          31 13 -2 -35 hvcurveto
          -6 vlineto
          -113 -61 -5 -45 vhcurveto
          -13 25 hlineto
          45 21 37 34 hvcurveto
          hintmask 01100110
          25 vlineto
          hintmask 01101010
          -60 19 hlineto
          46 13 28 19 17 vhcurveto
          endchar
        </CharString>
        <CharString name="cent">
          2 -160 87 -87 176 83 -10 callgsubr
          70 119 -27 27 hstemhm
          10 89 -28 28 138 65 -65 78 -78 125 -90 30 70 80 -36 36 130 78 -78 140 hintmask 101111110100010100100000
          661 118 rmoveto
          50 18 12 43 -15 callgsubr
          -58 -31 -2 -32 -25 hvcurveto
          -11 6 -13 19 0 vvcurveto
          -26 hlineto
          0 -13 -19 -45 callgsubr
          34 -27 -33 0 -54 -51 callsubr
          7 hlineto
          -35 -8 -30 -18 -48 hhcurveto
          -22 -16 5 0 hvcurveto
          8 vlineto
          37 35 29 callgsubr
          72 vlineto
          hintmask 101111110100100011000000
          -86 callgsubr
          50 -60 rlineto
          194 101 hlineto
          133 -93 70 -115 26 vhcurveto
          40 vlineto
          -97 callgsubr
          hintmask 101111110010001101000000
          -130 -92 hlineto
          -102 -12 -99 -46 -119 vvcurveto
          -222 vlineto
          hintmask 101111110101000101000000
          3 -18 -20 0 -23 -51 callsubr
          hintmask 101111110010001101000000
          11 -12 hlineto
          -130 91 -69 110 -27 vhcurveto
          -42 vlineto
          -99 callsubr
          130 91 hlineto
          119 16 90 47 124 vvcurveto
          -289 564 rmoveto
          3 3 -1 3 hhcurveto
          103 -8 98 -41 -103 vvcurveto
          -71 -137 45 vlineto
          71 -40 37 -66 vhcurveto
          hintmask 101111110101000101000000
          -63 -39 -37 -71 hvcurveto
          -198 vlineto
          -15 -5 -13 -8 -11 -14 rrcurveto
          -12 6 -12 19 0 vvcurveto
          -26 hlineto
          0 -14 -19 -10 -74 callgsubr
          230 vlineto
          104 100 40 103 8 vhcurveto
          hintmask 011111101101000101000000
          92 70 vlineto
          -70 -756 rmoveto
          -102 8 -100 41 103 vvcurveto
          9 vlineto
          45 -15 40 -50 vhcurveto
          24 vlineto
          -36 callgsubr
          -46 27 hvcurveto
          0 22 4 22 0 callsubr
          24 -46 callsubr
          46 28 25 0 27 -74 callsubr
          -39 callgsubr
          -106 -105 -41 -105 -6 vhcurveto
          hintmask 101111110101000101000000
          -89 -70 vlineto
          endchar
        </CharString>
        <CharString name="circumflex">
          -289 497 87 132 27 hstem
          305 683 -37 callsubr
        </CharString>
        <CharString name="colon">
          -320 50 87 134 27 29 21 callsubr
          104 27 callsubr
          310 180 rmoveto
          63 -59 55 -64 -34 -49 -15 -43 vhcurveto
          -72 -94 callgsubr
          -123 29 -33 callsubr
          123 320 rmoveto
          63 -59 55 -64 -34 -49 -15 -43 vhcurveto
          -72 -94 callgsubr
          -123 29 -38 callsubr
        </CharString>
        <CharString name="comma">
          -443 -145 180 126 27 hstem
          37 27 113 76 vstem
          253 70 rmoveto
          64 -71 54 -62 -34 -49 -15 -43 vhcurveto
          -72 vlineto
          -45 42 -23 0 vhcurveto
          -2 -9 -11 0 -13 hhcurveto
          -94 callsubr
          56 101 16 127 hvcurveto
          -145 37 rmoveto
          -31 -13 2 -30 callgsubr
          26 -32 callsubr
          -59 vlineto
          -102 -67 -16 -39 vhcurveto
          25 vlineto
          45 18 31 40 3 hvcurveto
          endchar
        </CharString>
        <CharString name="copyright">
          -370 361 86 -86 112 30 125 33 51 -26 26 hstemhm
          18 26 -26 48 49 32 30 42 38 102 -76 76 hintmask 0111010111000000
          18 566 -41 callsubr
          hintmask 0111001111000000
          -21 callsubr
          hintmask 1010110110100000
          -22 -40 callgsubr
          165 -29 rmoveto
          6 1 5 9 vhcurveto
          12 vlineto
          -9 -6 0 -6 -5 hvcurveto
          -1 1 -3 4 0 vvcurveto
          -4 hlineto
          0 -2 -4 -2 -1 vhcurveto
          6 -5 -6 0 -9 hhcurveto
          -12 vlineto
          4 6 -1 -7 -8 -5 -3 -10 -9 -6 3 8 7 6 1 4 hvcurveto
          12 -8 33 vlineto
          9 4 4 9 9 4 -4 -9 vhcurveto
          -12 34 17 vlineto
          25 -26 6 -21 -21 -26 -6 -25 vhcurveto
          -39 vlineto
          1 -3 -3 0 -4 hhcurveto
          -12 vlineto
          10 0 -5 -6 -27 26 -6 21 21 26 6 27 hvcurveto
          endchar
        </CharString>
        <CharString name="currency">
          -90 -60 87 35 89 72 30 134 90 72 29 95 27 hstem
          15 29 138 79 112 29 138 79 vstem
          292 223 rmoveto
          62 48 37 71 hvcurveto
          38 vlineto
          71 -46 37 -64 -62 -48 -37 -71 vhcurveto
          -38 vlineto
          -71 46 -37 64 vhcurveto
          -31 85 rmoveto
          52 33 27 48 19 11 -4 0 vhcurveto
          1 -3 0 -5 -7 vvcurveto
          -36 vlineto
          -52 -33 -27 -48 -19 -11 -28 callgsubr
          0 -1 8 7 vvcurveto
          358 65 rmoveto
          61 -28 53 -40 38 vhcurveto
          55 151 -97 callgsubr
          -153 hlineto
          -45 -125 rlineto
          2 -23 -22 1 -21 hhcurveto
          -28 -10 -1 0 hvcurveto
          -23 63 -97 callgsubr
          -153 hlineto
          62 -168 rlineto
          -45 -27 -30 -43 -65 vvcurveto
          -97 vlineto
          -58 32 -50 37 -37 vhcurveto
          -56 -155 -99 callsubr
          153 hlineto
          45 125 rlineto
          -2 23 22 -1 21 hhcurveto
          12 13 0 1 13 hvcurveto
          23 -63 -99 callsubr
          153 hlineto
          -62 168 rlineto
          45 27 30 43 65 vvcurveto
          -79 152 rmoveto
          -90 vlineto
          -57 -33 -39 -46 -24 vhcurveto
          58 -158 rlineto
          -99 hlineto
          -47 130 rlineto
          -5 -27 -27 -1 -27 hhcurveto
          -27 -27 2 4 -27 hvcurveto
          -47 -130 rlineto
          -99 hlineto
          58 158 rlineto
          -47 24 -32 38 58 vvcurveto
          90 vlineto
          57 33 39 46 24 vhcurveto
          -58 158 rlineto
          99 hlineto
          47 -130 rlineto
          5 27 27 1 27 hhcurveto
          27 27 -2 -4 27 hvcurveto
          47 130 rlineto
          99 hlineto
          -58 -158 rlineto
          47 -24 32 -38 -58 vvcurveto
          endchar
        </CharString>
        <CharString name="d">
          28 -60 89 48 28 -3 29 48 -8 callgsubr
          -15 callsubr
          46 -39 callsubr
          128 78 -78 132 8 80 -28 28 132 79 -79 141 hintmask 1101111111010100
          692 458 rmoveto
          176 -151 66 -151 vhcurveto
          -344 -82 callsubr
          8 -36 callsubr
          121 149 23 145 hvcurveto
          hintmask 1011111111010010
          46 5 25 57 -91 callsubr
          -13 hlineto
          -302 360 rmoveto
          11 callsubr
          -11 callgsubr
          -283 hlineto
          -13 -5 -11 -8 -10 -12 rrcurveto
          -63 callsubr
          -26 hlineto
          0 -12 -18 -45 callgsubr
          -7 8 -7 7 -8 4 rrcurveto
          289 -60 85 vlineto
          299 -570 rmoveto
          69 47 28 75 16 -11 41 -54 callgsubr
          29 24 0 -45 27 hvcurveto
          0 25 6 callsubr
          23 -5 -57 callgsubr
          -6 callgsubr
          -50 -14 -40 -53 -114 -127 -26 -115 -103 -31 16 28 -32 hvcurveto
          -8 hlineto
          -27 -25 -21 -19 -34 hhcurveto
          -42 -19 26 26 -12 hvcurveto
          hintmask 1101111111010100
          0 6 -2 11 63 5 50 52 43 -13 40 -51 vhcurveto
          24 vlineto
          -36 callgsubr
          -45 27 hvcurveto
          0 22 6 callsubr
          24 -5 -57 callgsubr
          -55 callgsubr
          26 callgsubr
          hintmask 1011111110110100
          -75 49 -28 68 vhcurveto
          86 77 rmoveto
          -33 -9 -30 -15 -47 hhcurveto
          -22 -16 -40 callsubr
          5 vlineto
          36 35 2 24 1 -91 callsubr
          hintmask 1101111111001100
          -4 187 82 hlineto
          19 12 -4 -8 callsubr
          1 -4 -9 vvcurveto
          -172 vlineto
          hintmask 1101111111010100
          2 -15 -17 0 -20 hhcurveto
          -94 callsubr
          endchar
        </CharString>
        <CharString name="degree">
          -356 361 86 -86 141 129 81 -26 26 hstemhm
          22 26 -26 80 -80 185 26 130 -76 76 hintmask 0110100100000000
          22 566 -41 callsubr
          hintmask 0110010100000000
          80 hmoveto
          37 30 28 36 37 28 -28 -37 -36 -28 -28 -37 -36 -30 28 36 vhcurveto
          hintmask 1001100010000000
          -54 -40 callgsubr
          108 -35 rmoveto
          -1 4 4 -1 4 hhcurveto
          hintmask 1010001100000000
          19 20 14 28 hvcurveto
          -35 -4 -16 -36 0 vvcurveto
          endchar
        </CharString>
        <CharString name="dieresis">
          -280 525 87 104 27 hstem
          10 -2 callgsubr
          20 27 callsubr
          216 625 rmoveto
          63 -59 55 -64 -34 -49 -15 -43 vhcurveto
          -42 -94 callgsubr
          -123 29 rmoveto
          -73 callsubr
          14 -68 callgsubr
          -46 callgsubr
        </CharString>
        <CharString name="divide">
          -235 49 87 104 87 90 27 -27 -3 callgsubr
          22 30 93 -2 callgsubr
          49 80 hintmask 1110111110000000
          351 149 rmoveto
          35 -19 34 -28 22 vhcurveto
          176 144 hlineto
          -97 callgsubr
          -90 hlineto
          7 8 4 10 13 vvcurveto
          42 vlineto
          63 -59 55 -64 -34 -49 -15 -43 vhcurveto
          -42 vlineto
          -27 22 -38 32 -26 vhcurveto
          -177 -144 hlineto
          -99 callsubr
          84 hlineto
          -7 -8 -4 -11 -12 vvcurveto
          -42 -94 callgsubr
          -299 220 rmoveto
          90 348 -90 vlineto
          hintmask 1101111110000000
          -172 177 rmoveto
          -73 callsubr
          14 -68 callgsubr
          -14 -85 callgsubr
          -368 vmoveto
          -73 callsubr
          14 vlineto
          32 21 11 28 2 vhcurveto
          14 hlineto
          27 -2 22 -11 -32 vvcurveto
          -14 -85 callgsubr
          endchar
        </CharString>
        <CharString name="divisionslash">
          -259 23 callsubr
          214 -60 rmoveto
          255 699 -97 callgsubr
          -153 hlineto
          -255 -699 -99 callsubr
          -13 87 rmoveto
          235 645 rlineto
          100 hlineto
          -236 -645 rlineto
          endchar
        </CharString>
        <CharString name="dollar">
          -107 -160 87 -87 177 73 29 -29 162 36 24 104 88 27 88 64 29 -12 -20 93 27 hstemhm
          7 30 164 81 -54 30 70 80 76 73 -60 79 -79 106 hintmask 101011110111011000000000
          251 119 rmoveto
          -42 -21 13 -8 callsubr
          -4 15 14 vvcurveto
          31 vlineto
          hintmask 100111110110111000000000
          -97 callgsubr
          -116 -180 hlineto
          -18 -2 -17 -16 -9 vhcurveto
          18 -28 -99 callsubr
          38 53 29 26 26 hvcurveto
          0 3 -2 21 -12 vhcurveto
          19 -11 rlineto
          -70 vlineto
          -99 callsubr
          130 92 hlineto
          hintmask 101011110111010100000000
          89 15 79 58 114 19 -2 8 15 vvcurveto
          hintmask 100111110111010010000000
          11 4 7 25 -91 callsubr
          -21 -18 0 -2 -15 hvcurveto
          -27 74 -169 62 -20 16 rrcurveto
          0 -1 4 5 vvcurveto
          38 24 22 32 21 17 -9 0 0 11 -27 3 -19 vhcurveto
          -99 callsubr
          hintmask 101011101110111000000000
          117 224 hlineto
          -97 callgsubr
          -99 40 hlineto
          -97 callgsubr
          -130 hlineto
          hintmask 101011110110111000000000
          -88 vlineto
          -108 -1 -113 -59 -115 vvcurveto
          -133 116 -73 84 -53 vhcurveto
          -18 -16 97 -116 5 5 8 5 9 5 rlinecurve
          -7 -27 -19 -13 -31 -2 rrcurveto
          77 544 rmoveto
          34 -16 23 -24 17 -21 rrcurveto
          6 70 76 -168 -71 hlineto
          46 -15 -31 69 -79 hhcurveto
          hintmask 101011110111011000000000
          -75 -12 -63 -25 -112 204 -4 63 -113 hvcurveto
          -11 -5 -10 -7 -9 -11 rrcurveto
          -10 6 -13 17 0 vvcurveto
          -25 hlineto
          0 -9 -11 -9 -9 vhcurveto
          26 -31 -29 4 -15 hhcurveto
          -14 -11 -2 -3 -11 hvcurveto
          -78 58 -146 33 140 vvcurveto
          92 96 53 99 vhcurveto
          hintmask 011011110110111000000000
          9 9 0 -1 8 hvcurveto
          91 70 vlineto
          -756 vmoveto
          hintmask 101011110110110100000000
          -90 -70 96 vlineto
          -36 10 -29 17 -24 15 rrcurveto
          -26 16 -14 9 0 vvcurveto
          -11 -21 -58 -33 -23 -4 rrcurveto
          8 7 2 11 32 vvcurveto
          141 59 vlineto
          -91 9 64 -42 72 hhcurveto
          74 4 13 59 26 vvcurveto
          19 -1 6 -2 8 vhcurveto
          27 -6 -24 17 -24 hhcurveto
          -13 -14 -5 -10 -13 hvcurveto
          -15 19 rlineto
          14 15 25 14 21 hhcurveto
          17 31 0 -42 28 hvcurveto
          0 19 4 21 25 vhcurveto
          20 -30 24 -4 -31 callsubr
          28 24 0 29 hhcurveto
          -25 vlineto
          -25 -8 -22 -20 hvcurveto
          -22 2 -8 -14 vvcurveto
          hintmask 011011110111011000000000
          -102 -78 -51 -91 -7 vhcurveto
          endchar
        </CharString>
        <CharString name="dotaccent">
          -457 464 30 callgsubr
          vstem
          234 594 rmoveto
          63 -59 55 -64 -34 -49 -15 -43 vhcurveto
          -72 -94 callgsubr
          -123 29 -38 callsubr
        </CharString>
        <CharString name="dotlessi">
          -285 -67 callgsubr
          -15 callsubr
          56 -75 callgsubr
          hintmask 1111111101000000
          410 -1 callsubr
          -22 hhcurveto
          -106 callgsubr
          36 6 23 -89 callgsubr
          hintmask 1111111110000000
          -8 -28 callsubr
          hintmask 1111111101000000
          -156 -196 rmoveto
          -47 callgsubr
          -8 10 -8 -47 callsubr
          286 -9 callsubr
          vlineto
          hintmask 1111111110000000
          13 callsubr
          -16 4 callsubr
          45 -15 39 -51 vhcurveto
          -13 callsubr
          -51 15 -52 55 -96 callsubr
          -86 callsubr
          endchar
        </CharString>
        <CharString name="e">
          -79 -61 callgsubr
          hstemhm
          33 -48 callsubr
          hintmask 101110001110101011000000
          618 -93 callgsubr
          hintmask 110110001110110101000000
          -70 callsubr
          hintmask 110101101110110101000000
          -90 callsubr
          hintmask 110101101101010101000000
          -104 callsubr
          hintmask 110101101110110101000000
          -67 callsubr
          hintmask 110101011110110101000000
          -25 callsubr
          vlineto
          90 -130 rmoveto
          61 -140 hlineto
          -33 2 -11 7 -8 vhcurveto
          -24 5 -47 30 -10 10 rrcurveto
          -13 -17 -45 -34 -72 hhcurveto
          -49 -39 20 20 -24 hvcurveto
          -4 4 rlineto
          -9 hlineto
          -27 -26 -33 -18 -26 hhcurveto
          -38 -19 25 26 -9 2 callgsubr
          -2 9 63 7 50 52 43 -17 40 -48 vhcurveto
          -24 callsubr
          25 0 -45 28 hvcurveto
          0 24 -42 callsubr
          24 -5 18 callgsubr
          hvcurveto
          hintmask 101110001110110011000000
          -81 callgsubr
          vhcurveto
          endchar
        </CharString>
        <CharString name="eacute">
          -88 -61 callgsubr
          23 5 callsubr
          32 -48 callsubr
          hintmask 101110001111101010110000
          -90 callgsubr
          hintmask 110110001111101101010000
          -70 callsubr
          hintmask 110101101111101101010000
          -90 callsubr
          hintmask 110101101111010101010000
          -104 callsubr
          hintmask 110101101111101101010000
          -67 callsubr
          hintmask 110101011111101101010000
          -25 callsubr
          vlineto
          90 -130 rmoveto
          61 -140 hlineto
          -33 2 -11 7 -8 vhcurveto
          -24 5 -47 30 -10 10 rrcurveto
          -13 -17 -45 -34 -72 hhcurveto
          -49 -39 20 20 -24 hvcurveto
          -4 4 rlineto
          -9 hlineto
          -27 -26 -33 -18 -26 hhcurveto
          -38 -19 25 26 -9 2 callgsubr
          -2 9 63 7 50 52 43 -17 40 -48 vhcurveto
          -24 callsubr
          25 0 -45 28 hvcurveto
          0 24 -42 callsubr
          24 -5 18 callgsubr
          hvcurveto
          hintmask 101110001111101100110000
          -81 callgsubr
          vhcurveto
          -85 500 -98 callgsubr
          endchar
        </CharString>
        <CharString name="ecircumflex">
          -83 -61 callgsubr
          -28 112 132 27 hstemhm
          32 -48 callsubr
          hintmask 110110001101101101010000
          415 883 rmoveto
          -97 callgsubr
          -124 hlineto
          -120 -186 47 -57 rlineto
          -136 -63 callgsubr
          -50 callgsubr
          hintmask 110110001101010100110000
          -60 callgsubr
          hintmask 101110001101101010110000
          -41 -39 -20 -39 -20 -14 14 callsubr
          hintmask 110110001101101101010000
          -70 callsubr
          hintmask 110101101101010101010000
          -34 callgsubr
          244 hlineto
          -97 callgsubr
          -36 hlineto
          -267 -347 rmoveto
          -52 vlineto
          -35 callgsubr
          -63 callsubr
          -27 hlineto
          0 -12 -18 -12 -74 callgsubr
          287 vlineto
          hintmask 110101101101101101010000
          -67 callsubr
          hintmask 110101011101101101010000
          -25 callsubr
          vlineto
          90 -130 rmoveto
          61 -140 hlineto
          -33 2 -11 7 -8 vhcurveto
          -24 5 -47 30 -10 10 rrcurveto
          -13 -17 -45 -34 -72 hhcurveto
          -49 -39 20 20 -24 hvcurveto
          -4 4 rlineto
          -9 hlineto
          -27 -26 -33 -18 -26 hhcurveto
          -38 -19 25 26 -9 2 callgsubr
          -2 9 63 7 50 52 43 -17 40 -48 vhcurveto
          -24 callsubr
          25 0 -45 28 hvcurveto
          0 24 -42 callsubr
          24 -5 18 callgsubr
          hvcurveto
          hintmask 101110001011101100110000
          -81 callgsubr
          vhcurveto
          -217 693 rmoveto
          82 hlineto
          -83 callsubr
          182 -17 rmoveto
          hintmask 110110001101101101010000
          74 -67 rlineto
          -149 hlineto
          endchar
        </CharString>
        <CharString name="edieresis">
          -80 -61 callgsubr
          25 -3 callgsubr
          32 28 -9 89 -30 30 111 67 -52 80 -80 137 -65 27 24 78 -10 27 -7 67 -3 78 hintmask 101110001111101001001010
          -90 callgsubr
          hintmask 110110001111101010010100
          -70 callsubr
          hintmask 110101101111101100110010
          -90 callsubr
          hintmask 110101101111010010010100
          -104 callsubr
          hintmask 110101101111101010010010
          -67 callsubr
          hintmask 110101011111101010010100
          -25 callsubr
          vlineto
          90 -130 rmoveto
          61 -140 hlineto
          -33 2 -11 7 -8 vhcurveto
          -24 5 -47 30 -10 10 rrcurveto
          -13 -17 -45 -34 -72 hhcurveto
          -49 -39 20 20 -24 hvcurveto
          -4 4 rlineto
          -9 hlineto
          -27 -26 -33 -18 -26 hhcurveto
          -38 -19 25 26 -9 2 callgsubr
          -2 9 63 7 50 52 43 -17 40 -48 vhcurveto
          -24 callsubr
          25 0 -45 28 hvcurveto
          0 24 -42 callsubr
          24 -5 18 callgsubr
          hvcurveto
          hintmask 101110001111101100101010
          -81 callgsubr
          vhcurveto
          -161 602 rmoveto
          63 -59 55 -64 -34 -49 -15 -43 vhcurveto
          -42 -94 callgsubr
          -123 29 rmoveto
          -73 callsubr
          14 -68 callgsubr
          -14 -85 callgsubr
          hintmask 110110001111101100110100
          349 13 rmoveto
          63 -59 55 -64 -34 -49 -15 -43 vhcurveto
          -42 -94 callgsubr
          -123 29 rmoveto
          -73 callsubr
          14 -68 callgsubr
          -14 -85 callgsubr
          endchar
        </CharString>
        <CharString name="egrave">
          -80 -61 callgsubr
          23 -4 callgsubr
          32 28 -9 89 -30 30 126 80 43 78 -10 27 57 78 hintmask 101110001110101101100000
          -90 callgsubr
          hintmask 110110001110101110100000
          -70 callsubr
          hintmask 110101101110101110100000
          -90 callsubr
          hintmask 110101101110010110100000
          -104 callsubr
          hintmask 110101101110101110100000
          -67 callsubr
          hintmask 110101011110101110100000
          -25 callsubr
          vlineto
          90 -130 rmoveto
          61 -140 hlineto
          -33 2 -11 7 -8 vhcurveto
          -24 5 -47 30 -10 10 rrcurveto
          -13 -17 -45 -34 -72 hhcurveto
          -49 -39 20 20 -24 hvcurveto
          -4 4 rlineto
          -9 hlineto
          -27 -26 -33 -18 -26 hhcurveto
          -38 -19 25 26 -9 2 callgsubr
          -2 9 63 7 50 52 43 -17 40 -48 vhcurveto
          -24 callsubr
          25 0 -45 28 hvcurveto
          0 24 -42 callsubr
          24 -5 18 callgsubr
          hvcurveto
          hintmask 101110001110101101100000
          -81 callgsubr
          vhcurveto
          -53 500 rmoveto
          -10 160 -97 callgsubr
          -136 hlineto
          60 -160 -99 callsubr
          -29 86 rmoveto
          hintmask 110110001101101110100000
          -65 callsubr
        </CharString>
        <CharString name="eight">
          4 30 callsubr
          51 27 75 88 84 26 hstemhm
          73 29 -6 28 104 136 -136 230 -214 197 120 78 -55 79 -79 140 hintmask 1111011110100010
          663 118 rmoveto
          hintmask 1111011110100001
          36 4 26 57 -15 callgsubr
          -17 -15 0 -1 -14 hvcurveto
          -7 12 -10 10 -9 10 rrcurveto
          hintmask 1111011101100100
          28 25 9 27 65 vvcurveto
          12 vlineto
          179 -152 61 -144 -125 -122 -41 -139 vhcurveto
          -12 vlineto
          -65 7 -28 29 -27 vhcurveto
          -24 -24 -18 -27 -7 -42 rrcurveto
          5 -19 -24 0 -28 -51 callsubr
          hintmask 1110111110100010
          11 -12 hlineto
          -176 169 -64 151 120 150 34 146 vhcurveto
          -154 291 rmoveto
          34 -24 25 -35 6 -48 -5 -4 -5 -5 -4 -5 rrcurveto
          -11 6 -13 19 0 vvcurveto
          -26 hlineto
          0 -13 -19 -45 callgsubr
          -13 15 -13 9 -17 5 rrcurveto
          39 -15 -34 15 -51 hhcurveto
          -50 -35 -15 -39 -15 hvcurveto
          -17 -5 -13 -8 -13 -16 rrcurveto
          -12 6 -12 19 0 vvcurveto
          -26 hlineto
          0 -14 -20 callsubr
          -5 6 -4 4 -5 4 5 47 23 34 33 24 rrcurveto
          hintmask 1111011101100100
          -33 28 -16 34 61 vvcurveto
          12 vlineto
          117 120 37 99 99 119 28 callsubr
          -12 vlineto
          -62 -20 -31 -32 -28 vhcurveto
          hintmask 1111011110010010
          75 -230 rmoveto
          -116 -128 -38 -113 -114 -127 38 116 vhcurveto
          9 vlineto
          45 -15 40 -50 vhcurveto
          24 vlineto
          -36 callgsubr
          -46 27 hvcurveto
          0 22 4 22 0 callsubr
          24 -46 callsubr
          46 28 25 0 27 -74 callsubr
          -48 -11 -42 -16 -78 47 -28 68 67 48 28 78 16 -12 42 -47 -27 callgsubr
          25 27 0 -46 28 hvcurveto
          0 24 4 21 30 vhcurveto
          23 -30 21 -46 callsubr
          46 -55 callgsubr
          -15 -40 -45 hvcurveto
          hintmask 1111011110001100
          -143 328 rmoveto
          61 -29 35 -69 -70 -29 -35 -61 -59 29 -35 70 69 29 35 59 vhcurveto
          -19 -326 rmoveto
          7 hlineto
          -35 -8 -30 -18 -48 hhcurveto
          -22 -16 5 0 hvcurveto
          8 vlineto
          hintmask 1111011110100100
          37 35 29 callgsubr
          72 vlineto
          -13 15 6 2 7 2 8 1 rlinecurve
          -32 vlineto
          40 262 rmoveto
          -34 -12 -29 -57 -8 -6 0 1 -6 vhcurveto
          12 vlineto
          33 12 29 58 7 6 -1 -1 6 vhcurveto
          endchar
        </CharString>
        <CharString name="ellipsis">
          123 -60 30 callgsubr
          66 -2 callgsubr
          66 27 callsubr
          234 70 rmoveto
          63 -59 55 -64 -34 -49 -15 -43 vhcurveto
          -72 -94 callgsubr
          -123 29 -33 callsubr
          395 43 rmoveto
          63 -59 55 -64 -34 -49 -15 -43 vhcurveto
          -72 -94 callgsubr
          -123 29 -33 callsubr
          395 43 rmoveto
          63 -59 55 -64 -34 -49 -15 -43 vhcurveto
          -72 -94 callgsubr
          -123 29 -38 callsubr
        </CharString>
        <CharString name="emdash">
          164 24 callgsubr
          100 30 603 80 vstem
          813 5 callgsubr
          -663 -144 -53 callsubr
          90 603 -90 vlineto
          endchar
        </CharString>
        <CharString name="endash">
          71 24 callgsubr
          86 30 523 80 vstem
          719 5 callgsubr
          -583 -144 -53 callsubr
          90 523 -90 vlineto
          endchar
        </CharString>
        <CharString name="equal">
          -132 129 87 70 27 37 87 70 27 hstem
          98 30 303 80 vstem
          511 350 3 callsubr
          80 -308 3 callsubr
          endchar
        </CharString>
        <CharString name="eth">
          32 -60 89 48 28 -3 29 48 83 -83 124 -17 40 60 27 86 -53 callgsubr
          hstemhm
          13 30 5 -39 callsubr
          128 78 -78 132 -20 108 -28 28 132 79 -79 141 hintmask 110101111111101010000000
          94 179 rmoveto
          -72 callgsubr
          hintmask 110101111111101001000000
          46 5 25 57 -91 callsubr
          -13 146 hlineto
          176 -151 66 -151 vhcurveto
          -344 -82 callsubr
          8 -86 -93 -114 hlineto
          31 -37 rlineto
          -23 vlineto
          186 40 rmoveto
          hintmask 110010111111101010000000
          -63 callsubr
          -26 hlineto
          0 -12 -18 -45 callgsubr
          -7 8 -7 7 -8 4 rrcurveto
          hintmask 110101111111101010000000
          28 -93 60 93 201 -60 85 316 vlineto
          11 callsubr
          hintmask 110010111111101010000000
          -11 callgsubr
          -201 112 hlineto
          hintmask 101101111111101010000000
          -60 -112 -22 vlineto
          -13 -5 -11 -8 -10 -12 rrcurveto
          145 -177 rmoveto
          69 47 28 75 16 -11 41 -54 callgsubr
          29 24 0 -45 27 hvcurveto
          0 25 6 callsubr
          23 -5 -57 callgsubr
          -6 callgsubr
          -50 -14 -40 -53 -114 -127 -26 -115 -103 -31 16 28 -32 hvcurveto
          -8 hlineto
          -27 -25 -21 -19 -34 hhcurveto
          -42 -19 26 26 -12 hvcurveto
          hintmask 110101111111101010000000
          0 6 -2 11 63 5 50 52 43 -13 40 -51 vhcurveto
          24 vlineto
          -36 callgsubr
          -45 27 hvcurveto
          0 22 6 callsubr
          24 -5 -57 callgsubr
          -55 callgsubr
          26 callgsubr
          hintmask 101101111111100110000000
          -75 49 -28 68 vhcurveto
          -33 397 rmoveto
          82 hlineto
          19 12 -4 -8 callsubr
          1 -4 -9 vvcurveto
          -129 vlineto
          -97 callgsubr
          -64 hlineto
          119 -234 rmoveto
          -33 -9 -30 -15 -47 hhcurveto
          -22 -16 -40 callsubr
          5 vlineto
          hintmask 110101111111010110000000
          36 35 29 callgsubr
          60 8 vlineto
          -99 callsubr
          endchar
        </CharString>
        <CharString name="exclam">
          -347 -60 87 134 101 286 88 46 30 hstemhm
          82 27 -15 28 85 75 -61 61 hintmask 11110110
          288 70 rmoveto
          44 -29 41 -40 20 vhcurveto
          63 hlineto
          323 17 5 50 41 hhcurveto
          10 7 -4 -5 2 hvcurveto
          28 18 rlineto
          85 -9 -83 70 -58 hhcurveto
          -27 -28 -10 -17 -24 hvcurveto
          17 -24 -28 10 -27 hhcurveto
          -48 -43 -30 -65 -9 hvcurveto
          50 -60 28 -18 1 3 2 1 3 2 rlinecurve
          0 11 -45 15 -265 vhcurveto
          42 -51 rlineto
          hintmask 11111010
          -28 -6 -26 -17 -31 22 callgsubr
          hintmask 11110110
          -166 264 rmoveto
          310 -19 -11 64 -59 hhcurveto
          -9 -7 -4 0 hvcurveto
          27 11 18 23 38 hhcurveto
          23 26 -8 -23 27 hvcurveto
          6 hlineto
          23 27 26 8 23 hhcurveto
          38 18 -23 -27 11 hvcurveto
          0 -7 4 -9 -66 -4 -59 -281 -16 vhcurveto
          -2 -34 rlineto
          -40 -235 rmoveto
          hintmask 11111001
          -31 -25 10 35 hvcurveto
          44 -68 callgsubr
          -44 -85 callgsubr
          endchar
        </CharString>
        <CharString name="exclamdown">
          -332 -60 90 46 28 346 27 -27 101 134 27 hstemhm
          89 27 -12 25 85 78 -64 64 hintmask 1110110100000000
          41 104 rmoveto
          -10 -7 4 5 -2 hvcurveto
          -28 -18 rlineto
          -103 16 76 -52 58 hhcurveto
          27 28 -96 callgsubr
          48 43 -77 callgsubr
          70 -28 8 -1 -2 -1 -2 -3 -2 rlinecurve
          0 -14 47 -13 263 vhcurveto
          -44 52 rlineto
          25 8 22 16 29 vvcurveto
          72 vlineto
          63 -59 55 -64 -34 -49 -15 -43 vhcurveto
          -72 vlineto
          -32 33 -50 43 -23 vhcurveto
          hintmask 1110101100000000
          -61 hlineto
          -323 -17 -5 -50 -41 hhcurveto
          173 346 rmoveto
          -310 19 11 -64 59 hhcurveto
          -19 callgsubr
          66 4 59 281 16 vhcurveto
          2 34 rlineto
          hintmask 1101110010000000
          41 101 -38 callsubr
        </CharString>
        <CharString name="f">
          -99 -76 callgsubr
          2 176 -153 65 -29 callgsubr
          hstemhm
          33 28 -8 88 7 callgsubr
          -3 callsubr
          215 -92 78 74 78 hintmask 111100011101100110000000
          468 265 rmoveto
          116 vlineto
          -97 callgsubr
          -71 58 107 -43 hlineto
          hintmask 111011011101100110000000
          -90 callsubr
          hintmask 111100011010010010000000
          3 -17 -19 0 -22 hhcurveto
          -73 vlineto
          -50 callsubr
          hintmask 111100011010100110000000
          -203 38 rmoveto
          -47 callgsubr
          -8 10 -8 -47 callsubr
          286 vlineto
          hintmask 111011011101001010000000
          -67 callsubr
          hintmask 111010111101100110000000
          -174 123 -60 -123 -52 vlineto
          -58 callgsubr
          -16 4 callsubr
          45 -15 39 -51 vhcurveto
          -13 callsubr
          -51 15 -52 55 -96 callsubr
          -86 callsubr
          endchar
        </CharString>
        <CharString name="five">
          -54 -72 86 81 29 55 74 -74 133 -60 88 -88 107 64 29 47 -53 callgsubr
          hstemhm
          36 29 17 28 14 245 131 78 -49 79 -79 140 hintmask 1110001111111000
          318 452 rmoveto
          47 260 141 vlineto
          -60 60 rlineto
          -436 -378 hlineto
          49 -69 rlineto
          -95 -44 callsubr
          -49 53 53 -17 64 hhcurveto
          hintmask 1101001111110100
          -5 callsubr
          hintmask 1101001111110010
          33 5 25 56 vhcurveto
          hintmask 1100011111110010
          73 vlineto
          hintmask 1101001111111000
          -97 callgsubr
          -17 -14 0 -1 -13 hvcurveto
          -45 78 -88 57 -124 6 rrcurveto
          hintmask 1100011111111000
          -63 -93 rmoveto
          hintmask 1100101111111000
          -42 -42 -19 0 hvcurveto
          -61 332 390 -85 -260 -174 hlineto
          0 37 10 22 139 67 -69 -60 17 vhcurveto
          -2 -1 -2 -2 -2 -2 9 callgsubr
          -17 -18 -16 18 rlineto
          -16 hlineto
          -47 callgsubr
          -4 5 -4 4 -4 3 -6 5 -7 4 -7 3 rrcurveto
          hintmask 1100011111111000
          49 -18 -52 7 -36 hhcurveto
          174 -88 rmoveto
          20 -21 21 21 rlineto
          -71 callgsubr
          hintmask 1110001111110100
          -50 -15 -40 -43 hvcurveto
          -13 vlineto
          -108 -4 -105 -44 -97 hhcurveto
          -77 -39 28 47 -58 hvcurveto
          -15 -20 -55 -35 -24 -3 rrcurveto
          8 6 2 12 33 vvcurveto
          143 59 vlineto
          -93 7 60 -37 69 hhcurveto
          77 32 52 44 hvcurveto
          7 vlineto
          20 -14 44 -50 vhcurveto
          24 vlineto
          21 21 0 -22 20 hvcurveto
          6 -6 5 -8 6 -9 rrcurveto
          0 23 6 22 24 vhcurveto
          -90 -92 rmoveto
          -40 -7 -34 -15 -38 hhcurveto
          -35 -20 10 -8 callsubr
          -3 15 13 vvcurveto
          31 vlineto
          hintmask 1100101111111000
          -49 59 rlineto
          79 hlineto
          0 22 11 26 5 vhcurveto
          -29 vlineto
          hintmask 1110001111111000
          -99 callsubr
          endchar
        </CharString>
        <CharString name="four">
          -102 callsubr
        </CharString>
        <CharString name="fourinferior">
          -102 callsubr
        </CharString>
        <CharString name="foursuperior">
          -102 callsubr
        </CharString>
        <CharString name="fraction">
          -336 23 callsubr
          253 -60 -62 callsubr
          endchar
        </CharString>
        <CharString name="g">
          28 -72 89 -77 77 60 185 -172 29 60 -8 callgsubr
          58 88 63 90 72 29 hstemhm
          4 90 -28 28 126 77 -77 137 -137 233 -221 78 101 29 137 78 -78 140 hintmask 101001111011000110000000
          461 370 rmoveto
          -49 callsubr
          hintmask 100111111101000110000000
          -10 callsubr
          hintmask 100111111011000110000000
          12 -11 hlineto
          -174 160 -66 160 104 31 25 26 35 vhcurveto
          hintmask 010111111101000110000000
          -22 21 20 -17 41 hhcurveto
          55 42 -89 callsubr
          -27 18 rlineto
          -5 -6 -7 -1 0 vvcurveto
          16 vlineto
          hintmask 100111111101000101000000
          33 6 24 -89 callgsubr
          -54 -34 0 -33 -26 hvcurveto
          -11 6 -12 18 14 callgsubr
          33 -26 -35 0 -55 -80 callsubr
          -8 -31 -24 -47 hhcurveto
          -22 -16 6 -8 callsubr
          -1 8 7 vvcurveto
          hintmask 100111111100100110000000
          36 36 16 callsubr
          hintmask 100111111100001110000000
          -86 callgsubr
          -220 -151 29 callsubr
          -11 -18 -33 callgsubr
          -7 9 -8 7 -9 5 rrcurveto
          229 vlineto
          117 126 37 114 117 126 28 callsubr
          -71 -137 45 vlineto
          71 -40 37 -66 -63 -39 -37 -71 vhcurveto
          31 callgsubr
          145 -189 rmoveto
          hintmask 101001111100010010000000
          68 49 40 75 16 -12 41 -54 callgsubr
          -36 callgsubr
          -45 27 hvcurveto
          0 24 -42 callsubr
          22 -5 -57 callgsubr
          -36 callgsubr
          27 -74 callsubr
          hintmask 100111111101000110000000
          -51 -13 -40 -43 hvcurveto
          hintmask 101001111101000110000000
          -52 5 -50 63 11 6 2 0 vhcurveto
          -26 -12 -19 -26 -42 hhcurveto
          -34 -21 19 27 -25 hvcurveto
          -8 hlineto
          -28 -32 -31 -28 -103 hhcurveto
          -115 -127 38 114 53 -14 40 -54 callgsubr
          27 -7 callgsubr
          27 hvcurveto
          0 23 5 21 29 vhcurveto
          11 callgsubr
          hvcurveto
          hintmask 100111111101000110000000
          -75 47 -40 69 vhcurveto
          endchar
        </CharString>
        <CharString name="germandbls">
          7 -160 90 25 87 -66 28 81 27 67 84 25 24 -24 86 155 87 56 28 -16 28 hstemhm
          47 -39 callsubr
          133 69 -69 131 -2 26 18 28 16 28 87 79 -34 34 -34 78 hintmask 101111011011101111000000
          47 312 rmoveto
          -94 callsubr
          12 -79 hlineto
          -56 -16 -40 -27 -10 -7 4 5 -2 -45 callsubr
          rlineto
          -85 9 93 -70 48 hhcurveto
          27 28 -96 callgsubr
          44 52 35 45 10 -4 10 -4 9 hvcurveto
          -38 46 -28 18 rlineto
          0 -12 0 107 vvcurveto
          hintmask 110111011011010111000000
          36 6 23 -89 callgsubr
          -6 20 hlineto
          37 -44 rlineto
          26 hlineto
          22 31 -1 -8 26 hvcurveto
          -30 vlineto
          -63 -14 -74 -58 vhcurveto
          hintmask 110111011011101110010000
          -16 -97 hlineto
          -99 callsubr
          67 hlineto
          157 52 112 108 hvcurveto
          49 vlineto
          96 -87 52 0 vhcurveto
          hintmask 110111010111101111000000
          29 28 14 36 36 vvcurveto
          148 -117 92 -118 -87 -42 -39 0 vhcurveto
          hintmask 110111011011101111000000
          -22 27 rlineto
          -246 -82 callsubr
          8 -50 callgsubr
          3 -17 -19 0 -22 hhcurveto
          138 -9 rmoveto
          -47 callgsubr
          -8 10 -8 -47 callsubr
          286 -60 85 193 -71 5 vlineto
          hintmask 110111010111101111000000
          34 27 49 49 95 hhcurveto
          97 59 -56 -93 -55 -43 -45 -43 -21 hvcurveto
          -15 vlineto
          2 1 -1 2 hhcurveto
          hintmask 110110111011101110100000
          45 -10 81 -19 -97 vvcurveto
          -39 vlineto
          -123 -71 -68 -108 vhcurveto
          -42 43 hlineto
          88 1 130 38 hvcurveto
          19 vlineto
          88 -86 14 -66 vhcurveto
          -4 45 hlineto
          37 75 19 88 28 -9 62 -76 -76 -40 -54 -83 hvcurveto
          -175 vlineto
          -13 -5 -11 -8 -9 -12 rrcurveto
          -84 callgsubr
          -16 -342 rmoveto
          -23 -27 -26 -8 -23 hhcurveto
          -38 -18 23 27 -11 hvcurveto
          hintmask 101111011011101111000000
          0 7 -4 9 62 8 66 59 vhcurveto
          78 vlineto
          45 -15 39 -51 vhcurveto
          -13 callsubr
          hvcurveto
          -56 vlineto
          -70 0 -77 70 9 7 -28 callgsubr
          -27 -11 -18 -23 -38 hhcurveto
          -86 callsubr
          233 568 rmoveto
          7 hlineto
          -72 -58 -13 -37 -2 vhcurveto
          44 7 21 43 60 hhcurveto
          endchar
        </CharString>
        <CharString name="grave">
          -512 523 -4 callgsubr
          hintmask 10000000
          211 523 rmoveto
          -10 160 -97 callgsubr
          -136 hlineto
          60 -160 -99 callsubr
          -29 86 rmoveto
          hintmask 01000000
          -65 callsubr
        </CharString>
        <CharString name="greater">
          -238 33 -21 540 -20 hstem
          384 77 vstem
          14 171 rmoveto
          47 -99 50 -60 350 178 rlineto
          129 vlineto
          -50 60 -350 173 -47 -99 50 -60 163 -96 rlineto
          57 27 rmoveto
          -238 139 26 56 312 -152 rlineto
          -110 vlineto
          -312 -152 -26 56 238 139 rlineto
          endchar
        </CharString>
        <CharString name="guillemotleft">
          -80 25 callgsubr
          320 -18 callsubr
          -6 -15 -26 -52 -38 -49 rlinecurve
          2 5 -50 60 -97 51 -10 -27 -75 -144 -92 -38 rlinecurve
          -54 vlineto
          50 -60 61 -20 43 -80 23 -49 rlinecurve
          50 -60 97 51 -42 112 -49 44 -26 33 rlinecurve
          6 4 7 6 6 6 rrcurveto
          101 40 rmoveto
          -52 callsubr
          -215 hmoveto
          -52 callsubr
          endchar
        </CharString>
        <CharString name="guillemotright">
          -6 25 callgsubr
          369 -17 callgsubr
          5 15 27 52 38 49 rlinecurve
          -1 -2 -1 -2 -1 vvcurveto
          50 -60 97 -51 10 27 75 144 92 38 rlinecurve
          54 vlineto
          -50 60 -75 30 -42 92 -10 27 rlinecurve
          -50 60 -97 -51 8 -35 64 -120 45 -34 rlinecurve
          -7 -5 -6 -5 -6 -6 rrcurveto
          -151 20 rmoveto
          -51 callgsubr
          215 hmoveto
          -51 callgsubr
          endchar
        </CharString>
        <CharString name="guilsinglleft">
          -300 25 callgsubr
          100 -18 callsubr
          -10 -27 -75 -144 -92 -38 rlinecurve
          -54 vlineto
          112 27 rmoveto
          -52 callsubr
          endchar
        </CharString>
        <CharString name="guilsinglright">
          -337 25 callgsubr
          305 -17 callgsubr
          10 27 75 144 92 38 rlinecurve
          54 vlineto
          -162 33 rmoveto
          -51 callgsubr
          endchar
        </CharString>
        <CharString name="h">
          120 -60 90 46 28 -28 236 -133 84 25 64 60 27 60 -53 callgsubr
          hstemhm
          54 -39 callsubr
          126 76 -14 78 40 -75 callgsubr
          hintmask 1010011111101110
          54 312 rmoveto
          -73 vlineto
          hintmask 1101111111101110
          -50 callsubr
          53 -26 hlineto
          -107 callgsubr
          -65 callgsubr
          73 vlineto
          hintmask 1010011111101110
          16 callgsubr
          hintmask 1010011111011101
          -44 callgsubr
          -60 -158 60 -44 callgsubr
          -50 callgsubr
          3 -17 -19 0 -22 hhcurveto
          138 -9 rmoveto
          -47 callgsubr
          -8 10 -8 -47 callsubr
          286 -9 callsubr
          vlineto
          hintmask 1101111111101101
          -62 -175 268 175 -9 callsubr
          hlineto
          hintmask 1101111111101110
          13 callsubr
          -26 hlineto
          -47 callgsubr
          -8 10 -8 -47 callsubr
          51 -268 -51 vlineto
          -58 callgsubr
          378 4 callsubr
          45 -15 39 -51 vhcurveto
          -13 callsubr
          -51 15 -52 55 -96 callsubr
          -86 callsubr
          -400 hmoveto
          -23 -27 -26 -8 -23 hhcurveto
          -38 24 callsubr
          7 -4 9 65 5 52 51 45 -15 39 -51 vhcurveto
          -13 callsubr
          -51 15 -52 55 -96 callsubr
          -86 callsubr
          endchar
        </CharString>
        <CharString name="hungarumlaut">
          -238 523 1 callgsubr
          hstem
          186 523 -98 callgsubr
          301 -85 -98 callgsubr
          endchar
        </CharString>
        <CharString name="hyphen">
          -255 24 callgsubr
          26 30 333 80 vstem
          469 5 callgsubr
          -393 -144 -53 callsubr
          90 333 -90 vlineto
          endchar
        </CharString>
        <CharString name="i">
          -67 callgsubr
          -15 callsubr
          56 -75 callgsubr
          hintmask 1111111101000000
          410 -1 callsubr
          -22 hhcurveto
          -106 callgsubr
          36 6 23 -89 callgsubr
          hintmask 1111111110000000
          -8 -28 callsubr
          hintmask 1111111101000000
          -156 -196 rmoveto
          -47 callgsubr
          -8 10 -8 -47 callsubr
          286 -9 callsubr
          vlineto
          hintmask 1111111110000000
          13 callsubr
          -16 4 callsubr
          45 -15 39 -51 vhcurveto
          -13 callsubr
          -51 15 -52 55 -96 callsubr
          -86 callsubr
          endchar
        </CharString>
        <CharString name="iacute">
          -285 17 callsubr
          5 callsubr
          56 -75 callgsubr
          hintmask 1111111111010000
          410 -1 callsubr
          -22 hhcurveto
          -106 callgsubr
          36 6 23 -89 callgsubr
          hintmask 1111111111100000
          -8 -28 callsubr
          hintmask 1111111111010000
          -156 -196 rmoveto
          -47 callgsubr
          -8 10 -8 -47 callsubr
          286 -9 callsubr
          vlineto
          hintmask 1111111111100000
          13 callsubr
          -16 4 callsubr
          45 -15 39 -51 vhcurveto
          -13 callsubr
          -51 15 -52 55 -96 callsubr
          -86 callsubr
          79 662 -98 callgsubr
          endchar
        </CharString>
        <CharString name="icircumflex">
          -285 -67 callgsubr
          -64 callgsubr
          -28 112 132 27 hstemhm
          55 -75 callgsubr
          hintmask 1111110111100000
          319 883 rmoveto
          -97 callgsubr
          -124 hlineto
          -120 -186 47 -57 rlineto
          -17 -82 callsubr
          8 -50 callgsubr
          3 -17 -19 0 -22 hhcurveto
          -106 callgsubr
          36 6 23 56 vhcurveto
          73 vlineto
          16 callgsubr
          hintmask 1111110111010000
          60 141 hlineto
          -48 57 rlineto
          78 hlineto
          -246 -394 rmoveto
          -47 callgsubr
          -8 10 -8 -47 callsubr
          286 -9 callsubr
          vlineto
          hintmask 1111101111100000
          13 callsubr
          -16 4 callsubr
          45 -15 39 -51 vhcurveto
          -13 callsubr
          -51 15 -52 55 -96 callsubr
          -86 callsubr
          -43 855 rmoveto
          82 hlineto
          -83 callsubr
          182 -17 rmoveto
          hintmask 1111110111010000
          74 -67 rlineto
          -149 hlineto
          endchar
        </CharString>
        <CharString name="idieresis">
          -285 -67 callgsubr
          -64 callgsubr
          25 -3 callgsubr
          16 27 14 -39 callsubr
          10 67 20 27 2 -18 callgsubr
          -30 67 hintmask 1111111111111010
          411 -1 callsubr
          -22 hhcurveto
          -106 callgsubr
          36 6 23 -89 callgsubr
          hintmask 1111111111111101
          -8 -28 callsubr
          hintmask 1111111111111010
          -156 -196 rmoveto
          -47 callgsubr
          -8 10 -8 -47 callsubr
          286 -9 callsubr
          vlineto
          hintmask 1111111111111101
          13 callsubr
          -16 4 callsubr
          45 -15 39 -51 vhcurveto
          -13 callsubr
          -51 15 -52 55 -96 callsubr
          -86 callsubr
          11 764 rmoveto
          63 -59 55 -64 -34 -49 -15 -43 vhcurveto
          -42 -94 callgsubr
          -123 29 rmoveto
          -73 callsubr
          14 -68 callgsubr
          -46 callgsubr
        </CharString>
        <CharString name="igrave">
          -285 17 callsubr
          -4 callgsubr
          56 -75 callgsubr
          hintmask 1111111011010000
          410 -1 callsubr
          -22 hhcurveto
          -106 callgsubr
          36 6 23 -89 callgsubr
          hintmask 1111111011100000
          -8 -28 callsubr
          hintmask 1111111011010000
          -156 -196 rmoveto
          -47 callgsubr
          -8 10 -8 -47 callsubr
          286 -9 callsubr
          vlineto
          hintmask 1111111011100000
          13 callsubr
          -16 4 callsubr
          45 -15 39 -51 vhcurveto
          -13 callsubr
          -51 15 -52 55 -96 callsubr
          -86 callsubr
          119 662 rmoveto
          -10 160 -97 callgsubr
          -136 hlineto
          60 -160 -99 callsubr
          -29 86 rmoveto
          hintmask 1111110111100000
          -65 callsubr
        </CharString>
        <CharString name="j">
          -80 -72 89 56 147 -29 29 279 -53 callgsubr
          hstemhm
          0 28 158 119 -28 28 -6 66 -30 30 126 79 -17 78 hintmask 1101111001100000
          296 108 rmoveto
          52 vlineto
          -97 callgsubr
          -53 -35 0 -33 -24 hvcurveto
          -10 6 -14 27 0 vvcurveto
          -110 -54 hlineto
          -144 170 -94 142 120 138 34 144 vhcurveto
          15 vlineto
          hintmask 1101110101010000
          33 5 25 -89 callgsubr
          -10 187 -44 callgsubr
          -248 hlineto
          hintmask 1011110010100000
          -11 -2 -12 -2 -13 -1 rrcurveto
          -69 vlineto
          32 -39 -8 -14 -12 -10 -15 -6 rlinecurve
          194 73 rmoveto
          -14 vlineto
          -114 -114 -36 -114 -116 -118 36 114 vhcurveto
          24 69 vlineto
          17 -35 26 -7 -57 callgsubr
          25 30 0 26 -74 callsubr
          hintmask 1101111001100000
          -18 -17 -12 -23 -44 42 -18 36 45 57 28 73 hvcurveto
          29 -36 21 vlineto
          72 7 30 40 0 vvcurveto
          -27 callsubr
          -16 -38 -43 hvcurveto
          hintmask 1101110010100000
          -125 406 rmoveto
          hintmask 1101111001010000
          -9 callsubr
          hlineto
          hintmask 1101110010100000
          -62 -288 hlineto
          -5 -3 -4 -3 -4 -4 9 callgsubr
          -11 -12 -19 -17 -33 -13 rrcurveto
          endchar
        </CharString>
        <CharString name="k">
          -5 22 callsubr
          48 -39 callsubr
          126 77 -35 78 9 27 -7 30 119 77 -14 78 hintmask 1111111100110000
          411 179 rmoveto
          -31 vlineto
          -128 92 -80 84 93 38 30 65 7 vhcurveto
          28 callgsubr
          -4 -5 -7 -3 0 vvcurveto
          14 vlineto
          79 -37 83 -78 18 vhcurveto
          -23 25 150 175 rlineto
          hintmask 1111111011001000
          52 -78 callgsubr
          -260 -13 callgsubr
          16 -12 -25 -29 rlineto
          122 vlineto
          -97 callgsubr
          -284 -82 callsubr
          8 -50 callgsubr
          3 -17 -19 0 -22 hhcurveto
          -94 callsubr
          11 hlineto
          -33 -1 -42 -40 -11 -6 4 5 -3 -45 callsubr
          rlineto
          -65 9 65 -90 77 hhcurveto
          26 27 10 17 25 hvcurveto
          -17 25 27 -10 26 hhcurveto
          48 43 30 65 9 hvcurveto
          -78 78 rlineto
          hintmask 1111111100110000
          -4 -5 -6 -3 0 vvcurveto
          15 vlineto
          36 4 -14 callgsubr
          186 408 rmoveto
          -177 -208 78 -81 -5 -6 -8 -9 -8 -4 rlinecurve
          33 -26 -34 0 -56 hhcurveto
          -54 -33 0 -33 -25 hvcurveto
          -12 -26 callsubr
          -9 7 -9 5 rrcurveto
          286 -60 85 vlineto
          hintmask 1111111011010000
          228 -85 hlineto
          hintmask 1111111101001000
          -42 -206 37 hlineto
          178 206 rlineto
          -59 85 205 -85 hlineto
          -299 -299 rmoveto
          52 hlineto
          -6 callsubr
          23 5 21 30 vhcurveto
          hintmask 1111111100110000
          52 -17 7 -44 -32 vvcurveto
          -55 6 -52 61 9 6 4 0 0 -5 -50 -92 -43 -61 14 109 vhcurveto
          26 vlineto
          45 -16 39 -49 vhcurveto
          -52 hlineto
          -50 -14 -39 -45 -51 5 -52 62 12 5 -40 callsubr
          -27 -12 -18 -23 -37 hhcurveto
          -21 -28 8 23 -26 hvcurveto
          -6 hlineto
          -23 -26 -27 -8 -22 hhcurveto
          -37 24 callsubr
          5 -4 10 63 6 52 51 45 -16 39 -48 vhcurveto
          25 vlineto
          25 -24 callgsubr
          26 hvcurveto
          0 24 5 22 0 callsubr
          25 -5 -31 callsubr
          26 26 0 27 hhcurveto
          endchar
        </CharString>
        <CharString name="l">
          -101 -60 89 48 28 -3 29 92 30 33 26 -15 callsubr
          50 -75 callgsubr
          51 27 56 77 hintmask 1101111110111000
          404 499 rmoveto
          141 vlineto
          -50 60 rlineto
          -304 -141 hlineto
          50 -60 rlineto
          8 -190 hlineto
          -60 callgsubr
          hintmask 1011111111011000
          -41 -39 -20 -39 -20 -14 5 0 vhcurveto
          4 vlineto
          36 35 2 23 1 -91 callsubr
          -7 -28 callsubr
          hintmask 1101111110111000
          133 -276 rmoveto
          61 -140 hlineto
          -33 2 -11 7 -8 vhcurveto
          -24 5 -47 30 -10 10 rrcurveto
          -13 -17 -45 -34 -72 hhcurveto
          -49 -39 20 20 -24 hvcurveto
          -4 4 rlineto
          -9 hlineto
          -27 -26 -33 -18 -26 hhcurveto
          -38 -19 25 26 -9 2 callgsubr
          -2 9 63 7 50 52 43 -17 40 -48 vhcurveto
          -24 callsubr
          25 0 -45 28 hvcurveto
          0 24 -42 callsubr
          24 -5 -57 callgsubr
          26 26 0 27 -74 callsubr
          hintmask 1011111111011000
          -49 7 callsubr
          -81 callgsubr
          hvcurveto
          -240 56 29 callsubr
          -12 -18 -12 -74 callgsubr
          287 -60 85 vlineto
          hintmask 1101111110111000
          -31 callgsubr
          hlineto
          hintmask 1101111111011000
          -72 callsubr
          endchar
        </CharString>
        <CharString name="less">
          -225 33 -21 540 -20 hstem
          28 27 vstem
          261 267 rmoveto
          214 126 -47 99 -50 60 -350 -173 rlineto
          -134 vlineto
          50 -60 350 -173 47 99 -97 callgsubr
          -270 129 rmoveto
          238 -139 -26 -56 -312 152 rlineto
          110 vlineto
          312 152 26 -56 -238 -139 rlineto
          endchar
        </CharString>
        <CharString name="logicalnot">
          -169 106 87 47 87 90 27 hstem
          27 30 293 30 80 80 vstem
          27 300 rmoveto
          -99 callsubr
          273 -74 hlineto
          -99 callsubr
          140 278 hlineto
          -97 callgsubr
          -463 hlineto
          30 -117 rmoveto
          90 403 -224 -80 134 vlineto
          endchar
        </CharString>
        <CharString name="m">
          179 -76 callgsubr
          -84 133 187 201 -28 28 hstemhm
          43 -39 callsubr
          129 77 -77 135 339 -18 callgsubr
          hintmask 1110101110100000
          421 283 rmoveto
          50 -59 rlineto
          23 hlineto
          26 32 rlineto
          -17 vlineto
          -107 callgsubr
          -65 callgsubr
          73 vlineto
          hintmask 1101101110100000
          16 callgsubr
          hintmask 1101101101010000
          -57 callsubr
          -218 hlineto
          -163 -195 -161 195 rlineto
          -239 -82 callsubr
          8 -50 callgsubr
          3 -17 -19 0 -22 hhcurveto
          -106 callgsubr
          36 6 23 -89 callgsubr
          hintmask 1101011110010000
          -8 77 hlineto
          321 -86 rmoveto
          -47 callgsubr
          -9 11 -9 7 -11 5 rrcurveto
          190 -27 vlineto
          -146 -181 -145 181 rlineto
          -27 -50 callgsubr
          -11 -5 -10 -7 -8 -11 rrcurveto
          -11 -26 callsubr
          -8 -47 callsubr
          286 -60 85 175 vlineto
          175 -207 rlineto
          23 hlineto
          176 207 rlineto
          176 -85 hlineto
          hintmask 1110101110100000
          13 callsubr
          -493 4 callsubr
          45 -15 39 -51 vhcurveto
          -13 callsubr
          -51 15 -52 55 -96 callsubr
          -86 callsubr
          471 hmoveto
          -23 -27 -26 -8 -23 hhcurveto
          -38 24 callsubr
          7 -4 9 65 5 52 51 45 -15 39 -51 vhcurveto
          24 9 vlineto
          24 24 -5 -41 24 hvcurveto
          0 22 5 23 0 callsubr
          24 -5 -31 callsubr
          26 26 0 29 hhcurveto
          -25 vlineto
          -49 -17 -39 -45 -51 15 -52 55 -96 callsubr
          -86 callsubr
          endchar
        </CharString>
        <CharString name="macron">
          -248 540 87 89 27 hstem
          27 30 303 80 vstem
          440 540 rmoveto
          143 vlineto
          -97 callgsubr
          -363 -143 -53 callsubr
          89 303 -89 vlineto
          endchar
        </CharString>
        <CharString name="minus">
          -180 24 callgsubr
          77 30 303 80 vstem
          490 5 callgsubr
          -363 -144 -53 callsubr
          90 303 -90 vlineto
          endchar
        </CharString>
        <CharString name="mu">
          63 -160 87 13 87 -67 89 -72 28 72 185 -160 29 48 -8 callgsubr
          187 201 -28 28 hstemhm
          42 -75 callgsubr
          8 -75 callgsubr
          hintmask 110001111011101101000000
          758 640 rmoveto
          -97 callgsubr
          -304 -82 callsubr
          8 -50 callgsubr
          3 -17 -19 0 -23 hhcurveto
          -94 callsubr
          6 hlineto
          -33 -9 -29 -15 -47 hhcurveto
          -18 -20 -40 callsubr
          5 vlineto
          36 35 2 24 1 vhcurveto
          -49 callgsubr
          hintmask 100101111011011110000000
          -44 callgsubr
          -189 hlineto
          2 -16 -19 0 -22 hhcurveto
          -94 callsubr
          12 hlineto
          -36 -3 -138 -40 -10 -5 3 5 -4 vhcurveto
          -27 -18 rlineto
          -65 9 62 -90 85 hhcurveto
          103 14 100 55 8 hvcurveto
          hintmask 101010011011101110000000
          -26 35 28 -9 64 hhcurveto
          64 28 9 26 35 hvcurveto
          hintmask 110001111011101110000000
          -36 22 54 -19 49 hhcurveto
          55 42 -89 callsubr
          -27 18 -3 -4 -3 -2 -6 -1 rlinecurve
          15 vlineto
          33 6 25 -89 callgsubr
          -7 -28 callsubr
          hintmask 101010011011101101000000
          60 hlineto
          -384 -450 rmoveto
          -68 -26 14 28 -32 hvcurveto
          -25 hlineto
          -144 -16 -43 -20 -44 hhcurveto
          -42 -19 26 26 -12 hvcurveto
          hintmask 100101111011101101000000
          0 6 -2 11 63 5 150 52 43 -13 40 -51 vhcurveto
          24 vlineto
          -36 callgsubr
          -45 27 hvcurveto
          0 22 6 callsubr
          24 -5 -57 callgsubr
          -55 callgsubr
          7 callsubr
          -75 49 -28 68 68 49 28 75 16 -12 41 -54 callgsubr
          -36 callgsubr
          -45 27 hvcurveto
          0 24 -42 callsubr
          22 -5 0 vvcurveto
          20 callgsubr
          hintmask 110010011011101110000000
          -52 5 -50 63 11 6 2 0 vhcurveto
          -26 -12 -19 -26 -42 hhcurveto
          -44 -51 17 47 -25 hvcurveto
          -8 hlineto
          hintmask 101010010111101101000000
          -28 -32 -26 -14 -68 hhcurveto
          118 538 rmoveto
          -9 callsubr
          hlineto
          hintmask 110010010111011110000000
          -72 callsubr
          -11 6 -12 18 14 callgsubr
          -8 10 -9 -47 callsubr
          -362 286 rmoveto
          -9 callsubr
          hlineto
          hintmask 110010011011101110000000
          -72 callsubr
          -63 callsubr
          -26 hlineto
          0 -12 -18 -69 callsubr
          -9 -47 callsubr
          endchar
        </CharString>
        <CharString name="multiply">
          -300 153 -21 416 -20 hstem
          85 366 rmoveto
          -73 -72 50 -60 102 -102 77 78 76 -76 102 102 -50 60 -21 20 70 70 -50 60 -102 102 -75 -75 -75 75 -101 -102 -99 callsubr
          -12 60 rmoveto
          63 64 75 -75 75 75 64 -64 -75 -75 76 -75 -64 -64 -76 76 -75 -76 -64 64 76 75 rlineto
          endchar
        </CharString>
        <CharString name="n">
          -101 callgsubr
        </CharString>
</ttFont>
